<svg xmlns="http://www.w3.org/2000/svg" viewBox="0 0 680 750" width="100%">
  <defs>
    <marker id="arrow" viewBox="0 0 10 10" refX="8" refY="5" markerWidth="6" markerHeight="6" orient="auto-start-reverse">
      <path d="M2 1L8 5L2 9" fill="none" stroke="context-stroke" stroke-width="1.5" stroke-linecap="round" stroke-linejoin="round"/>
    </marker>
  </defs>

  <rect width="680" height="750" fill="#F1EFE8" rx="12"/>

  <!-- ==================== HEADER ==================== -->
  <text x="40" y="42" font-size="18" font-weight="500" fill="#1A1A1A" font-family="sans-serif">企业AI Agent ROI 拆解框架</text>
  <text x="40" y="62" font-size="12" fill="#5F5E5A" font-family="sans-serif">成本 · 收益 · 度量 · 阶段 — 四维一体的价值度量体系</text>
  <line x1="40" y1="72" x2="640" y2="72" stroke="#D3D1C7" stroke-width="0.5"/>

  <!-- ==================== SECTION 1: TCO ICEBERG ==================== -->
  <rect x="40" y="86" width="20" height="14" rx="3" fill="#1D9E75"/>
  <text x="68" y="97" font-size="13" font-weight="500" fill="#1D9E75" font-family="sans-serif">TCO冰山模型 — 被忽略的隐藏成本</text>

  <path d="M40 166 Q120 154 200 166 Q280 178 360 166 Q440 154 520 166 Q600 178 640 166 L640 300 L40 300 Z" fill="#D3E8F5" opacity="0.5"/>
  <path d="M40 166 Q120 154 200 166 Q280 178 360 166 Q440 154 520 166 Q600 178 640 166" fill="none" stroke="#85B7EB" stroke-width="1.5"/>
  <text x="520" y="160" font-size="10" fill="#378ADD" font-family="sans-serif">水线</text>

  <rect x="280" y="120" width="120" height="44" rx="6" fill="#1D9E75" opacity="0.15" stroke="#1D9E75" stroke-width="0.5"/>
  <text x="340" y="140" text-anchor="middle" font-size="12" font-weight="500" fill="#1D9E75" font-family="sans-serif">L1 模型调用费</text>
  <text x="340" y="155" text-anchor="middle" font-size="10" fill="#0F6E56" font-family="sans-serif">15-25% 唯一被算</text>
  <text x="410" y="140" font-size="11" fill="#5F5E5A" font-family="sans-serif">冰山一角</text>

  <rect x="240" y="172" width="200" height="28" rx="4" fill="#E6F1FB" stroke="#85B7EB" stroke-width="0.5"/>
  <text x="260" y="190" font-size="11" font-weight="500" fill="#185FA5" font-family="sans-serif">L2 算力基础设施</text>
  <text x="410" y="190" font-size="10" fill="#5F5E5A" font-family="sans-serif">10-15% 常被忽略</text>

  <rect x="220" y="202" width="240" height="28" rx="4" fill="#B5D4F4" stroke="#85B7EB" stroke-width="0.5"/>
  <text x="240" y="220" font-size="11" font-weight="500" fill="#0C447C" font-family="sans-serif">L3 数据准备与标注</text>
  <text x="430" y="220" font-size="10" fill="#5F5E5A" font-family="sans-serif">15-25% 严重被低估</text>

  <rect x="200" y="232" width="260" height="28" rx="4" fill="#85B7EB" stroke="#378ADD" stroke-width="0.5"/>
  <text x="220" y="250" font-size="11" font-weight="500" fill="#ffffff" font-family="sans-serif">L4 Agent开发与调优</text>
  <text x="430" y="250" font-size="10" fill="#ffffff" font-family="sans-serif">10-20% 部分被算</text>

  <rect x="180" y="262" width="280" height="20" rx="4" fill="#378ADD" stroke="#185FA5" stroke-width="0.5"/>
  <text x="200" y="276" font-size="11" font-weight="500" fill="#ffffff" font-family="sans-serif">L5 系统集成</text>
  <text x="430" y="276" font-size="10" fill="#ffffff" font-family="sans-serif">10-15% 常被忽略</text>

  <rect x="150" y="284" width="310" height="18" rx="4" fill="#185FA5" stroke="#0C447C" stroke-width="0.5"/>
  <text x="170" y="297" font-size="10" fill="#ffffff" font-family="sans-serif">L6 运维监控</text>
  <text x="430" y="297" font-size="10" fill="#ffffff" font-family="sans-serif">5-10% 几乎从未被算</text>

  <rect x="120" y="304" width="340" height="18" rx="4" fill="#0C447C" stroke="#042C53" stroke-width="0.5"/>
  <text x="140" y="317" font-size="10" fill="#ffffff" font-family="sans-serif">L7 安全合规</text>
  <text x="430" y="317" font-size="10" fill="#ffffff" font-family="sans-serif">5-10% 几乎从未被算</text>

  <text x="40" y="348" font-size="11" fill="#5F5E5A" font-family="sans-serif">关键洞察：L3-L7五层隐藏冰山占总TCO的45-80%，只算Token单价误差可达4倍以上</text>

  <!-- ==================== SECTION 2: ROI FORMULA + 135x ==================== -->
  <line x1="40" y1="362" x2="640" y2="362" stroke="#D3D1C7" stroke-width="0.5"/>

  <rect x="40" y="376" width="20" height="14" rx="3" fill="#D85A30"/>
  <text x="68" y="387" font-size="13" font-weight="500" fill="#D85A30" font-family="sans-serif">Agent ROI公式 — 核心杠杆：产能复用率</text>

  <rect x="40" y="398" width="380" height="56" rx="8" fill="#ffffff" stroke="#D3D1C7" stroke-width="0.5"/>
  <text x="60" y="420" font-size="12" fill="#5F5E5A" font-family="sans-serif">Agent ROI = (产出价值—持有成本) / 持有成本 × 100%</text>
  <text x="60" y="444" font-size="12" fill="#5F5E5A" font-family="sans-serif">产能复用率：人类=1条任务线  |  Agent≥100条任务线</text>

  <rect x="440" y="398" width="200" height="56" rx="8" fill="#FAEEDA" stroke="#EF9F27" stroke-width="0.5"/>
  <text x="540" y="420" text-anchor="middle" font-size="24" font-weight="500" fill="#BA7517" font-family="sans-serif">135x</text>
  <text x="540" y="444" text-anchor="middle" font-size="11" fill="#854F0B" font-family="sans-serif">Agent ROI杠杆倍数</text>

  <rect x="40" y="462" width="600" height="48" rx="6" fill="#F1EFE8" stroke="#D3D1C7" stroke-width="0.5"/>
  <text x="60" y="484" font-size="11" fill="#5F5E5A" font-family="sans-serif">人类员工</text>
  <text x="60" y="502" font-size="10" fill="#888780" font-family="sans-serif">8h/天·5天/周·1条任务线·1-5%错误率</text>
  <line x1="300" y1="466" x2="300" y2="506" stroke="#D3D1C7" stroke-width="0.5"/>
  <text x="320" y="484" font-size="11" fill="#5F5E5A" font-family="sans-serif">Agent员工</text>
  <text x="320" y="502" font-size="10" fill="#888780" font-family="sans-serif">24h/7天·100-1000条·&lt;0.1%错误率</text>
  <line x1="510" y1="466" x2="510" y2="506" stroke="#D3D1C7" stroke-width="0.5"/>
  <text x="575" y="484" font-size="11" font-weight="500" fill="#1D9E75" font-family="sans-serif" text-anchor="middle">产能差异</text>
  <text x="575" y="502" font-size="10" fill="#1D9E75" font-family="sans-serif" text-anchor="middle">4.2x·100x·50x</text>

  <!-- ==================== SECTION 3: THREE BENEFITS ==================== -->
  <line x1="40" y1="518" x2="640" y2="518" stroke="#D3D1C7" stroke-width="0.5"/>

  <rect x="40" y="532" width="20" height="14" rx="3" fill="#378ADD"/>
  <text x="68" y="543" font-size="13" font-weight="500" fill="#378ADD" font-family="sans-serif">三类收益分拆</text>

  <rect x="40" y="554" width="190" height="76" rx="8" fill="#E6F1FB" stroke="#85B7EB" stroke-width="0.5"/>
  <rect x="40" y="554" width="190" height="22" rx="8" fill="#B5D4F4"/>
  <rect x="40" y="568" width="190" height="8" fill="#B5D4F4"/>
  <text x="135" y="569" text-anchor="middle" font-size="11" font-weight="500" fill="#0C447C" font-family="sans-serif">直接收益（可量化）</text>
  <text x="60" y="588" font-size="10" fill="#185FA5" font-family="sans-serif">人力替代 · 效率提升</text>
  <text x="60" y="604" font-size="10" fill="#185FA5" font-family="sans-serif">错误减少 · 产量提升</text>
  <text x="60" y="620" font-size="9" fill="#888780" font-family="sans-serif">案例：赛力斯天→分钟(432x)</text>

  <rect x="245" y="554" width="190" height="76" rx="8" fill="#EEEDFE" stroke="#AFA9EC" stroke-width="0.5"/>
  <rect x="245" y="554" width="190" height="22" rx="8" fill="#CECBF6"/>
  <rect x="245" y="568" width="190" height="8" fill="#CECBF6"/>
  <text x="340" y="569" text-anchor="middle" font-size="11" font-weight="500" fill="#3C3489" font-family="sans-serif">间接收益（可估算）</text>
  <text x="265" y="588" font-size="10" fill="#534AB7" font-family="sans-serif">决策质量 · 服务体验</text>
  <text x="265" y="604" font-size="10" fill="#534AB7" font-family="sans-serif">响应速度 · 产能弹性</text>
  <text x="265" y="620" font-size="9" fill="#888780" font-family="sans-serif">案例：海底捞满意度↑50%</text>

  <rect x="450" y="554" width="190" height="76" rx="8" fill="#FBEAF0" stroke="#ED93B1" stroke-width="0.5"/>
  <rect x="450" y="554" width="190" height="22" rx="8" fill="#F4C0D1"/>
  <rect x="450" y="568" width="190" height="8" fill="#F4C0D1"/>
  <text x="545" y="569" text-anchor="middle" font-size="11" font-weight="500" fill="#993556" font-family="sans-serif">战略收益（不可量化）</text>
  <text x="470" y="588" font-size="10" fill="#D4537E" font-family="sans-serif">组织经验沉淀</text>
  <text x="470" y="604" font-size="10" fill="#D4537E" font-family="sans-serif">试错成本 · 竞争壁垒</text>
  <text x="470" y="620" font-size="9" fill="#888780" font-family="sans-serif">案例：安踏退货率↓15个点</text>

  <!-- ==================== SECTION 4: FOUR STAGES ==================== -->
  <line x1="40" y1="642" x2="640" y2="642" stroke="#D3D1C7" stroke-width="0.5"/>

  <rect x="40" y="656" width="20" height="14" rx="3" fill="#639922"/>
  <text x="68" y="667" font-size="13" font-weight="500" fill="#639922" font-family="sans-serif">ROI四阶段模型 — 度量方式随成熟度递进</text>

  <rect x="40" y="684" width="145" height="56" rx="6" fill="#EAF3DE" stroke="#97C459" stroke-width="0.5"/>
  <text x="112" y="702" text-anchor="middle" font-size="11" font-weight="500" fill="#27500A" font-family="sans-serif">实验期</text>
  <text x="112" y="718" text-anchor="middle" font-size="10" fill="#3B6D11" font-family="sans-serif">0-3月 算可行性</text>
  <text x="112" y="732" text-anchor="middle" font-size="9" fill="#888780" font-family="sans-serif">POC成功率&gt;80%</text>

  <line x1="187" y1="712" x2="209" y2="712" stroke="#97C459" stroke-width="1.5" marker-end="url(#arrow)"/>

  <rect x="215" y="684" width="145" height="56" rx="6" fill="#FAEEDA" stroke="#FAC775" stroke-width="0.5"/>
  <text x="287" y="702" text-anchor="middle" font-size="11" font-weight="500" fill="#633806" font-family="sans-serif">试点期</text>
  <text x="287" y="718" text-anchor="middle" font-size="10" fill="#854F0B" font-family="sans-serif">3-6月 AB组对比</text>
  <text x="287" y="732" text-anchor="middle" font-size="9" fill="#888780" font-family="sans-serif">效率提升&gt;30%</text>

  <line x1="362" y1="712" x2="384" y2="712" stroke="#FAC775" stroke-width="1.5" marker-end="url(#arrow)"/>

  <rect x="390" y="684" width="145" height="56" rx="6" fill="#FCEBEB" stroke="#F09595" stroke-width="0.5"/>
  <text x="462" y="702" text-anchor="middle" font-size="11" font-weight="500" fill="#791F1F" font-family="sans-serif">规模化期</text>
  <text x="462" y="718" text-anchor="middle" font-size="10" fill="#A32D2D" font-family="sans-serif">6-12月 算投产比</text>
  <text x="462" y="732" text-anchor="middle" font-size="9" fill="#888780" font-family="sans-serif">TCO vs 直接收益</text>

  <line x1="537" y1="712" x2="559" y2="712" stroke="#F09595" stroke-width="1.5" marker-end="url(#arrow)"/>

  <rect x="565" y="684" width="75" height="56" rx="6" fill="#FCEBEB" stroke="#E24B4A" stroke-width="0.5"/>
  <text x="602" y="702" text-anchor="middle" font-size="11" font-weight="500" fill="#791F1F" font-family="sans-serif">嵌入期</text>
  <text x="602" y="718" text-anchor="middle" font-size="10" fill="#A32D2D" font-family="sans-serif">12月+</text>
  <text x="602" y="732" text-anchor="middle" font-size="9" fill="#888780" font-family="sans-serif">归因分析</text>

  <!-- Saved as SVG file -->
</svg>