<svg xmlns="http://www.w3.org/2000/svg" viewBox="0 0 680 590" width="100%" role="img">
  <title>AI领域全景图 2026版 入门指南</title>
  <desc>四层产业结构：基础层40%、技术层30%、中间层10%、应用层20%，含2026五大趋势和四角色学习路径</desc>
  <defs>
    <marker id="arrow" viewBox="0 0 10 10" refX="8" refY="5" markerWidth="6" markerHeight="6" orient="auto-start-reverse">
      <path d="M2 1L8 5L2 9" fill="none" stroke="#888780" stroke-width="1.5" stroke-linecap="round" stroke-linejoin="round"/>
    </marker>
  </defs>

  <text x="340" y="36" text-anchor="middle" font-size="18" font-weight="500" fill="#2C2C2A" font-family="sans-serif">AI领域全景图 · 2026版</text>
  <text x="340" y="58" text-anchor="middle" font-size="12" fill="#888780" font-family="sans-serif">小白入门指南 — 四层产业结构</text>

  <!-- Layer 1 -->
  <rect x="40" y="80" width="600" height="56" rx="8" fill="#E6F1FB" stroke="#378ADD" stroke-width="0.5"/>
  <rect x="40" y="80" width="6" height="56" rx="3" fill="#378ADD"/>
  <text x="60" y="100" font-size="14" font-weight="500" fill="#0C447C" font-family="sans-serif">基础层 · 算力与数据底座</text>
  <text x="60" y="120" font-size="11" fill="#5F5E5A" font-family="sans-serif">GPU芯片 / 数据中心 / 云服务 / 网络互联</text>
  <rect x="520" y="88" width="50" height="22" rx="4" fill="#378ADD"/>
  <text x="545" y="104" text-anchor="middle" font-size="13" font-weight="500" fill="#FFF" font-family="sans-serif">40%</text>
  <rect x="578" y="88" width="48" height="22" rx="4" fill="#185FA5"/>
  <text x="602" y="104" text-anchor="middle" font-size="11" fill="#FFF" font-family="sans-serif">修路架桥</text>

  <!-- Layer 2 -->
  <rect x="40" y="144" width="600" height="56" rx="8" fill="#EEEDFE" stroke="#7F77DD" stroke-width="0.5"/>
  <rect x="40" y="144" width="6" height="56" rx="3" fill="#7F77DD"/>
  <text x="60" y="164" font-size="14" font-weight="500" fill="#3C3489" font-family="sans-serif">技术层 · 智能引擎</text>
  <text x="60" y="184" font-size="11" fill="#5F5E5A" font-family="sans-serif">大语言模型 / 多模态 / 视频生成 / 语音技术</text>
  <rect x="520" y="152" width="50" height="22" rx="4" fill="#7F77DD"/>
  <text x="545" y="168" text-anchor="middle" font-size="13" font-weight="500" fill="#FFF" font-family="sans-serif">30%</text>
  <rect x="578" y="152" width="48" height="22" rx="4" fill="#534AB7"/>
  <text x="602" y="168" text-anchor="middle" font-size="11" fill="#FFF" font-family="sans-serif">造发动机</text>

  <!-- Layer 3 -->
  <rect x="40" y="208" width="600" height="56" rx="8" fill="#F1EFE8" stroke="#888780" stroke-width="0.5"/>
  <rect x="40" y="208" width="6" height="56" rx="3" fill="#888780"/>
  <text x="60" y="228" font-size="14" font-weight="500" fill="#444441" font-family="sans-serif">中间层 · 协议与工具链</text>
  <text x="60" y="248" font-size="11" fill="#5F5E5A" font-family="sans-serif">Agent框架 / RAG / 向量数据库 / 模型训练工具</text>
  <rect x="520" y="216" width="50" height="22" rx="4" fill="#888780"/>
  <text x="545" y="232" text-anchor="middle" font-size="13" font-weight="500" fill="#FFF" font-family="sans-serif">10%</text>
  <rect x="578" y="216" width="48" height="22" rx="4" fill="#5F5E5A"/>
  <text x="602" y="232" text-anchor="middle" font-size="11" fill="#FFF" font-family="sans-serif">造方向盘</text>

  <!-- Layer 4 -->
  <rect x="40" y="272" width="600" height="56" rx="8" fill="#EAF3DE" stroke="#639922" stroke-width="0.5"/>
  <rect x="40" y="272" width="6" height="56" rx="3" fill="#639922"/>
  <text x="60" y="292" font-size="14" font-weight="500" fill="#27500A" font-family="sans-serif">应用层 · 场景价值出口</text>
  <text x="60" y="312" font-size="11" fill="#5F5E5A" font-family="sans-serif">电商 / 制造 / 金融 / 医疗 / 教育 / 内容创作</text>
  <rect x="520" y="280" width="50" height="22" rx="4" fill="#639922"/>
  <text x="545" y="296" text-anchor="middle" font-size="13" font-weight="500" fill="#FFF" font-family="sans-serif">20%</text>
  <rect x="578" y="280" width="48" height="22" rx="4" fill="#3B6D11"/>
  <text x="602" y="296" text-anchor="middle" font-size="11" fill="#FFF" font-family="sans-serif">开车上路</text>

  <!-- Players -->
  <line x1="40" y1="340" x2="640" y2="340" stroke="#D3D1C7" stroke-width="0.5" stroke-dasharray="4"/>
  <text x="340" y="358" text-anchor="middle" font-size="11" fill="#888780" font-family="sans-serif">核心玩家：英伟达 / OpenAI / Anthropic / Google / Meta / 字节 / 阿里 / 华为</text>

  <!-- Key Data -->
  <rect x="40" y="376" width="600" height="34" rx="6" fill="#F1EFE8" stroke="#D3D1C7" stroke-width="0.5"/>
  <text x="340" y="398" text-anchor="middle" font-size="12" font-weight="500" fill="#444441" font-family="sans-serif">2026 关键数据</text>

  <rect x="40" y="418" width="138" height="44" rx="6" fill="#EEEDFE" stroke="#CECBF6" stroke-width="0.5"/>
  <text x="109" y="436" text-anchor="middle" font-size="16" font-weight="500" fill="#3C3489" font-family="sans-serif">77%</text>
  <text x="109" y="453" text-anchor="middle" font-size="10" fill="#5F5E5A" font-family="sans-serif">英伟达训练市场份额</text>

  <rect x="188" y="418" width="144" height="44" rx="6" fill="#E6F1FB" stroke="#B5D4F4" stroke-width="0.5"/>
  <text x="260" y="436" text-anchor="middle" font-size="16" font-weight="500" fill="#0C447C" font-family="sans-serif">49.5%</text>
  <text x="260" y="453" text-anchor="middle" font-size="10" fill="#5F5E5A" font-family="sans-serif">豆包MaaS Token份额</text>

  <rect x="342" y="418" width="144" height="44" rx="6" fill="#EAF3DE" stroke="#C0DD97" stroke-width="0.5"/>
  <text x="414" y="436" text-anchor="middle" font-size="16" font-weight="500" fill="#27500A" font-family="sans-serif">88%</text>
  <text x="414" y="453" text-anchor="middle" font-size="10" fill="#5F5E5A" font-family="sans-serif">部署Agent获正ROI</text>

  <rect x="496" y="418" width="144" height="44" rx="6" fill="#FAEEDA" stroke="#FAC775" stroke-width="0.5"/>
  <text x="568" y="436" text-anchor="middle" font-size="16" font-weight="500" fill="#633806" font-family="sans-serif">95%</text>
  <text x="568" y="453" text-anchor="middle" font-size="10" fill="#5F5E5A" font-family="sans-serif">推理成本两年降幅</text>

  <!-- 5 Trends -->
  <rect x="40" y="478" width="600" height="28" rx="6" fill="#F1EFE8" stroke="#D3D1C7" stroke-width="0.5"/>
  <text x="340" y="497" text-anchor="middle" font-size="12" font-weight="500" fill="#444441" font-family="sans-serif">2026年五大产业趋势</text>

  <rect x="40" y="514" width="112" height="44" rx="6" fill="#FAECE7" stroke="#D85A30" stroke-width="0.5"/>
  <text x="96" y="530" text-anchor="middle" font-size="11" font-weight="500" fill="#993C1D" font-family="sans-serif">Agent替代Chatbot</text>
  <text x="96" y="548" text-anchor="middle" font-size="9" fill="#5F5E5A" font-family="sans-serif">从回答到执行</text>

  <rect x="162" y="514" width="112" height="44" rx="6" fill="#E6F1FB" stroke="#378ADD" stroke-width="0.5"/>
  <text x="218" y="530" text-anchor="middle" font-size="11" font-weight="500" fill="#185FA5" font-family="sans-serif">推理算力爆发</text>
  <text x="218" y="548" text-anchor="middle" font-size="9" fill="#5F5E5A" font-family="sans-serif">成本两年降95%</text>

  <rect x="284" y="514" width="112" height="44" rx="6" fill="#EAF3DE" stroke="#639922" stroke-width="0.5"/>
  <text x="340" y="530" text-anchor="middle" font-size="11" font-weight="500" fill="#3B6D11" font-family="sans-serif">开源生态成熟</text>
  <text x="340" y="548" text-anchor="middle" font-size="9" fill="#5F5E5A" font-family="sans-serif">开源逼近闭源</text>

  <rect x="406" y="514" width="112" height="44" rx="6" fill="#EEEDFE" stroke="#7F77DD" stroke-width="0.5"/>
  <text x="462" y="530" text-anchor="middle" font-size="11" font-weight="500" fill="#534AB7" font-family="sans-serif">多模态标配化</text>
  <text x="462" y="548" text-anchor="middle" font-size="9" fill="#5F5E5A" font-family="sans-serif">文图音视频统一</text>

  <rect x="528" y="514" width="112" height="44" rx="6" fill="#FAEEDA" stroke="#BA7517" stroke-width="0.5"/>
  <text x="584" y="530" text-anchor="middle" font-size="11" font-weight="500" fill="#854F0B" font-family="sans-serif">Agent商用元年</text>
  <text x="584" y="548" text-anchor="middle" font-size="9" fill="#5F5E5A" font-family="sans-serif">88%获正ROI</text>

  <line x1="40" y1="572" x2="640" y2="572" stroke="#D3D1C7" stroke-width="0.5" stroke-dasharray="4"/>
  <text x="340" y="586" text-anchor="middle" font-size="11" fill="#888780" font-family="sans-serif">完整学习资料 → 飞书文档：基础层→技术层→中间层→应用层→趋势→学习路径→术语表</text>
</svg>