<svg viewBox="0 0 680 820" xmlns="http://www.w3.org/2000/svg">
<title>Elite Longterm Memory 6-Layer Architecture</title>
<defs><marker id="a" viewBox="0 0 10 10" refX="8" refY="5" markerWidth="6" markerHeight="6" orient="auto-start-reverse"><path d="M2 1L8 5L2 9" fill="none" stroke="context-stroke" stroke-width="1.5" stroke-linecap="round"/></marker></defs>
<rect width="680" height="820" fill="#FAFAFA"/>
<text x="340" y="32" text-anchor="middle" font-size="15" font-weight="500" fill="#26215C">Elite Longterm Memory — 6 Layer Architecture</text>
<line x1="40" y1="46" x2="640" y2="46" stroke="#AFA9EC" stroke-width="0.5"/>
<g transform="translate(40,62)"><rect width="600" height="90" rx="8" fill="#EEEDFE" stroke="#7F77DD" stroke-width="0.5"/><rect x="12" y="12" width="76" height="66" rx="6" fill="#fff" stroke="#534AB7" stroke-width="0.8"/><text x="50" y="36" text-anchor="middle" font-size="13" font-weight="500" fill="#3C3489">L1 Hot RAM</text><text x="50" y="54" text-anchor="middle" font-size="11" fill="#534AB7">SESSION-STATE.md</text><text x="50" y="70" text-anchor="middle" font-size="11" fill="#993556">&lt;1ms / 会话级</text><rect x="100" y="18" width="200" height="54" rx="4" fill="#CECBF6"/><text x="110" y="34" font-size="11" fill="#3C3489">• 当前任务上下文</text><text x="110" y="50" font-size="11" fill="#3C3489">• 待决策项 + 临时事实</text><text x="110" y="64" font-size="11" fill="#3C3489">• 对话结束时 TTL 归档/删除</text><rect x="315" y="20" width="270" height="52" rx="4" fill="#FBEAF0" stroke="#D4537E" stroke-width="0.3"/><text x="325" y="38" font-size="11" font-weight="500" fill="#993556">Write-Ahead Log: 先写记忆 → 再返回回复</text><text x="325" y="56" font-size="10.5" fill="#72243E">防丢上下文保障协议</text></g>
<path d="M340,156 L340,170" stroke="#534AB7" stroke-width="1.5" marker-end="url(#a)" fill="none"/>
<g transform="translate(40,174)"><rect width="600" height="96" rx="8" fill="#E1F5EE" stroke="#1D9E75" stroke-width="0.5"/><rect x="12" y="12" width="84" height="72" rx="6" fill="#fff" stroke="#0F6E56" stroke-width="0.8"/><text x="54" y="36" text-anchor="middle" font-size="13" font-weight="500" fill="#04342C">L2 Warm Store</text><text x="54" y="53" text-anchor="middle" font-size="10.5" fill="#0F6E56">LanceDB 向量库</text><text x="54" y="69" text-anchor="middle" font-size="11" fill="#993556">~10ms / 月级</text><rect x="108" y="16" width="230" height="65" rx="4" fill="#9FE1CB"/><text x="118" y="33" font-size="11" font-weight="500" fill="#04342C">语义向量搜索 (核心升级点)</text><text x="118" y="49" font-size="10.5" fill="#085041">• OpenAI embedding-3 → 1536维向量</text><text x="118" y="63" font-size="10.5" fill="#085041">• LRU 热度跟踪 · 本地零运维</text><rect x="350" y="18" width="236" height="60" rx="4" fill="#FAEEDA" stroke="#BA7517" stroke-width="0.3"/><text x="360" y="35" font-size="10.5" font-weight="500" fill="#854F0B">示例查询</text><text x="360" y="51" font-size="10" fill="#633806">输入 "飞书区别" → 匹配 "feishu≠docs"</text><text x="360" y="67" font-size="10" fill="#633806">模糊语义联想，不依赖精确关键词</text></g>
<path d="M340,274 L340,288" stroke="#0F6E56" stroke-width="1.5" marker-end="url(#a)" fill="none"/>
<g transform="translate(40,292)"><rect width="600" height="92" rx="8" fill="#E6F1FB" stroke="#185FA5" stroke-width="0.5"/><rect x="12" y="12" width="80" height="68" rx="6" fill="#fff" stroke="#185FA5" stroke-width="0.8"/><text x="52" y="35" text-anchor="middle" font-size="13" font-weight="500" fill="#042C53">L3 Cold Store</text><text x="52" y="52" text-anchor="middle" font-size="10.5" fill="#185FA5">Git Notes</text><text x="52" y="68" text-anchor="middle" font-size="11" fill="#993556">~100ms / 永久</text><rect x="102" y="16" width="220" height="62" rx="4" fill="#B5D4F4"/><text x="112" y="34" font-size="11" font-weight="500" fill="#0C447C">版本化冷归档</text><text x="112" y="50" font-size="10.5" fill="#185FA5">• git notes add + git log --show-notes=memory</text><text x="112" y="71" font-size="10.5" fill="#185FA5">• 可 diff / 可回溯 / 零基础设施</text><rect x="336" y="18" width="252" height="58" rx="4" fill="#FCEBEB" stroke="#E24B4A" stroke-width="0.3"/><text x="346" y="36" font-size="10.5" font-weight="500" fill="#791F1F">归档策略 (周任务)</text><text x="346" y="51" font-size="10" fill="#A32D2D">Warm Store 低热度事实 → Git Notes 冷存储</text><text x="346" y="67" font-size="10" fill="#A32D2D">批量迁移归档</text></g>
<path d="M340,388 L340,402" stroke="#185FA5" stroke-width="1.5" marker-end="url(#a)" fill="none"/>
<g transform="translate(40,406)"><rect width="600" height="98" rx="8" fill="#FAECE7" stroke="#D85A30" stroke-width="0.5"/><rect x="12" y="14" width="86" height="70" rx="6" fill="#fff" stroke="#993C1D" stroke-width="0.8"/><text x="55" y="38" text-anchor="middle" font-size="13" font-weight="500" fill="#4A1B0C">L4 Archive</text><text x="55" y="55" text-anchor="middle" font-size="10.5" fill="#993C1D">MEMORY.md</text><text x="55" y="72" text-anchor="middle" font-size="11" fill="#993556">&lt;50ms / 永久</text><rect x="108" y="16" width="240" height="68" rx="4" fill="#F5C4B3"/><text x="118" y="34" font-size="11" font-weight="500" fill="#712B13">精选知识沉淀 (当前已有)</text><text x="118" y="50" font-size="10.5" fill="#993C1D">## User Preferences 用户偏好</text><text x="118" y="64" font-size="10.5" fill="#993C1D">## Key Decisions 关键决策记录</text><text x="118" y="78" font-size="10.5" fill="#993C1D">## Error Patterns 反模式清单</text><rect x="360" y="18" width="228" height="66" rx="4" fill="#EAF3DE" stroke="#3B6D11" stroke-width="0.3"/><text x="370" y="36" font-size="10.5" font-weight="500" fill="#27500A">结构化模板已就绪</text><text x="370" y="52" font-size="10" fill="#173404">路径: .workbuddy/memory/MEMORY.md</text><text x="370" y="66" font-size="10" fill="#173404">FTS 全文搜索 + 手动维护质量</text></g>
<path d="M340,508 L340,522" stroke="#993C1D" stroke-width="1.5" marker-end="url(#a)" fill="none"/>
<g transform="translate(40,526)"><rect width="600" height="88" rx="8" fill="#F1EFE8" stroke="#888780" stroke-width="0.5" stroke-dasharray="5,3"/><rect x="12" y="12" width="82" height="64" rx="6" fill="#fff" stroke="#888780" stroke-width="0.8"/><text x="53" y="35" text-anchor="middle" font-size="13" font-weight="500" fill="#444441">L5 Cloud</text><text x="53" y="52" text-anchor="middle" font-size="10.5" fill="#5F5E5A">SuperMemory</text><text x="53" y="68" text-anchor="middle" font-size="11" fill="#D85A30">1-3s / 云端</text><rect x="106" y="16" width="232" height="58" rx="4" fill="#D3D1C7"/><text x="116" y="34" font-size="11" font-weight="500" fill="#444441">可选 · 跨设备同步</text><text x="116" y="50" font-size="10.5" fill="#5F5E5A">SuperMemory.ai API · 多端一致</text><text x="116" y="66" font-size="10.5" fill="#5F5E5A">免费额度后付费 · 按需启用</text><rect x="350" y="18" width="236" height="54" rx="4" fill="#EEEDFE" stroke="#7F77DD" stroke-width="0.3"/><text x="360" y="36" font-size="10.5" fill="#3C3489">推荐时机：需要多设备同步时开启</text><text x="360" y="52" font-size="10.5" fill="#534AB7">优先级: 按需（非必需）</text></g>
<path d="M340,618 L340,632" stroke="#888780" stroke-width="1.5" stroke-dasharray="4,3" marker-end="url(#a)" fill="none"/>
<g transform="translate(40,636)"><rect width="600" height="88" rx="8" fill="#F1EFE8" stroke="#888780" stroke-width="0.5" stroke-dasharray="5,3"/><rect x="12" y="12" width="84" height="64" rx="6" fill="#fff" stroke="#888780" stroke-width="0.8"/><text x="54" y="35" text-anchor="middle" font-size="13" font-weight="500" fill="#444441">L6 Auto</text><text x="54" y="52" text-anchor="middle" font-size="10.5" fill="#5F5E5A">Mem0 Extract</text><text x="54" y="68" text-anchor="middle" font-size="11" fill="#D85A30">异步 / 自动</text><rect x="106" y="16" width="232" height="58" rx="4" fill="#D3D1C7"/><text x="116" y="34" font-size="11" font-weight="500" fill="#444441">可选 · 自动记忆提取</text><text x="116" y="50" font-size="10.5" fill="#5F5E5A">Mem0 AI 框架 · 对话自动提取</text><text x="116" y="66" font-size="10.5" fill="#5F5E5A">OpenAI token 费 · 日均10+轮时考虑</text><rect x="350" y="18" width="236" height="54" rx="4" fill="#EEEDFE" stroke="#7F77DD" stroke-width="0.3"/><text x="360" y="36" font-size="10.5" fill="#3C3489">推荐时机：高频对话场景下开启</text><text x="360" y="52" font-size="10.5" fill="#534AB7">优先级: 按需（非必需）</text></g>
<line x1="40" y1="736" x2="640" y2="736" stroke="#AFA9EC" stroke-width="0.5"/>
<g transform="translate(40,746)"><rect width="180" height="30" rx="4" fill="#EEEDFE"/><text x="90" y="20" text-anchor="middle" font-size="11" font-weight="500" fill="#3C3489">今天: Step 2+5 (15min)</text></g>
<g transform="translate(230,746)"><rect width="210" height="30" rx="4" fill="#E1F5EE"/><text x="105" y="20" text-anchor="middle" font-size="11" font-weight="500" fill="#04342C">本周: Step 1+3 (30min)</text></g>
<g transform="translate(450,746)"><rect width="190" height="30" rx="4" fill="#FAECE7"/><text x="95" y="20" text-anchor="middle" font-size="11" font-weight="500" fill="#712B13">下步: Step 4+7 (20min)</text></g>
</svg>