<svg viewBox="0 0 680 600" xmlns="http://www.w3.org/2000/svg" role="img">
<title>Elite Longterm Memory — 6 Layer Architecture (Landscape v4)</title>
<defs><marker id="a" viewBox="0 0 10 10" refX="8" refY="5" markerWidth="5.5" markerHeight="5.5" orient="auto-start-reverse"><path d="M2 1L8 5L2 9" fill="none" stroke="context-stroke" stroke-width="1.4" stroke-linecap="round"/></marker></defs>
<rect width="680" height="600" fill="#FAFAFA"/>
<text x="340" y="24" text-anchor="middle" font-size="14" font-weight="500" fill="#26215C">Elite Longterm Memory — 6 Layer Architecture</text>
<line x1="20" y1="36" x2="660" y2="36" stroke="#AFA9EC" stroke-width="0.4"/>

<!-- L1 Hot RAM: translate(16,48), w=100, h=184 -->
<g transform="translate(16,48)">
<rect width="100" height="184" rx="6" fill="#EEEDFE" stroke="#7F77DD" stroke-width="0.45"/>
<rect x="6" y="8" width="88" height="44" rx="4" fill="#fff" stroke="#534AB7" stroke-width="0.55"/>
<text x="50" y="24" text-anchor="middle" font-size="12" font-weight="500" fill="#3C3489">L1 Hot RAM</text>
<text x="50" y="40" text-anchor="middle" font-size="10.5" fill="#993556">&lt;1ms / session</text>
<rect x="6" y="56" width="88" height="52" rx="3" fill="#CECBF6"/>
<text x="12" y="72" font-size="10" fill="#3C3489">SESSION-STATE</text>
<text x="12" y="88" font-size="10" fill="#3C3489">Task context</text>
<text x="12" y="104" font-size="10" fill="#3C3489">TTL on end</text>
<rect x="6" y="114" width="88" height="60" rx="3" fill="#FBEAF0" stroke="#D4537E" stroke-width="0.25"/>
<text x="50" y="132" text-anchor="middle" font-size="9.5" font-weight="500" fill="#993556">WAL Protocol</text>
<text x="50" y="148" text-anchor="middle" font-size="9" fill="#72243E">write memory first</text>
<text x="50" y="164" text-anchor="middle" font-size="9" fill="#72243E">then reply</text>
</g>

<path d="M120,140 L128,140" stroke="#534AB7" stroke-width="1.3" marker-end="url(#a)" fill="none"/>

<!-- L2 Warm Store: translate(132,48), w=100, h=184 -->
<g transform="translate(132,48)">
<rect width="100" height="184" rx="6" fill="#E1F5EE" stroke="#1D9E75" stroke-width="0.45"/>
<rect x="6" y="8" width="88" height="50" rx="4" fill="#fff" stroke="#0F6E56" stroke-width="0.55"/>
<text x="50" y="24" text-anchor="middle" font-size="11.5" font-weight="500" fill="#04342C">L2 Warm Store</text>
<text x="50" y="39" text-anchor="middle" font-size="10" fill="#0F6E56">LanceDB</text>
<text x="50" y="53" text-anchor="middle" font-size="10" fill="#993556">~10ms / monthly</text>
<rect x="6" y="64" width="88" height="54" rx="3" fill="#9FE1CB"/>
<text x="12" y="80" font-size="10" font-weight="500" fill="#04342C">Vector Search</text>
<text x="12" y="96" font-size="9.5" fill="#085041">embed-3 1536d</text>
<text x="12" y="112" font-size="9.5" fill="#085041">LRU heat tracking</text>
<rect x="6" y="124" width="88" height="54" rx="3" fill="#FAEEDA" stroke="#BA7517" stroke-width="0.22"/>
<text x="50" y="141" text-anchor="middle" font-size="9.5" fill="#854F0B">semantic match</text>
<text x="50" y="157" text-anchor="middle" font-size="9" fill="#633806">core upgrade point</text>
<text x="50" y="173" text-anchor="middle" font-size="8.5" fill="#633806">(fuzzy not keyword)</text>
</g>

<path d="M238,140 L246,140" stroke="#0F6E56" stroke-width="1.3" marker-end="url(#a)" fill="none"/>

<!-- L3 Cold Store: translate(250,48), w=100, h=184 -->
<g transform="translate(250,48)">
<rect width="100" height="184" rx="6" fill="#E6F1FB" stroke="#185FA5" stroke-width="0.45"/>
<rect x="6" y="8" width="88" height="50" rx="4" fill="#fff" stroke="#185FA5" stroke-width="0.55"/>
<text x="50" y="24" text-anchor="middle" font-size="11.5" font-weight="500" fill="#042C53">L3 Cold Store</text>
<text x="50" y="39" text-anchor="middle" font-size="10" fill="#185FA5">Git Notes</text>
<text x="50" y="53" text-anchor="middle" font-size="10" fill="#993556">~100ms / forever</text>
<rect x="6" y="64" width="88" height="54" rx="3" fill="#B5D4F4"/>
<text x="12" y="80" font-size="10" font-weight="500" fill="#0C447C">Versioned Archive</text>
<text x="12" y="96" font-size="9.5" fill="#185FA5">git notes add</text>
<text x="12" y="112" font-size="9.5" fill="#185FA5">diff + rollback OK</text>
<rect x="6" y="124" width="88" height="52" rx="3" fill="#FCEBEB" stroke="#E24B4A" stroke-width="0.22"/>
<text x="50" y="141" text-anchor="middle" font-size="9.5" fill="#791F1F">weekly batch move</text>
<text x="50" y="157" text-anchor="middle" font-size="9" fill="#A32D2D">low-heat to cold</text>
</g>

<path d="M356,140 L364,140" stroke="#185FA5" stroke-width="1.3" marker-end="url(#a)" fill="none"/>

<!-- L4 Archive: translate(368,48), w=100, h=184 -->
<g transform="translate(368,48)">
<rect width="100" height="184" rx="6" fill="#FAECE7" stroke="#D85A30" stroke-width="0.45"/>
<rect x="6" y="8" width="88" height="50" rx="4" fill="#fff" stroke="#993C1D" stroke-width="0.55"/>
<text x="50" y="24" text-anchor="middle" font-size="11.5" font-weight="500" fill="#4A1B0C">L4 Archive</text>
<text x="50" y="39" text-anchor="middle" font-size="10" fill="#993C1D">MEMORY.md</text>
<text x="50" y="53" text-anchor="middle" font-size="10" fill="#993556">&lt;50ms / forever</text>
<rect x="6" y="64" width="88" height="58" rx="3" fill="#F5C4B3"/>
<text x="12" y="80" font-size="10" font-weight="500" fill="#712B13">Curated Knowledge</text>
<text x="12" y="96" font-size="9.5" fill="#993C1D">User Preferences</text>
<text x="12" y="112" font-size="9.5" fill="#993C1D">Key Decisions</text>
<text x="12" y="127" font-size="9.5" fill="#993C1D">Error Patterns</text>
<rect x="6" y="128" width="88" height="50" rx="3" fill="#EAF3DE" stroke="#3B6D11" stroke-width="0.22"/>
<text x="50" y="144" text-anchor="middle" font-size="9.5" fill="#27500A">FTS + manual q.</text>
<text x="50" y="160" text-anchor="middle" font-size="9" fill="#27500A">single .md file</text>
</g>

<path d="M474,140 L482,140" stroke="#993C1D" stroke-width="1.3" marker-end="url(#a)" fill="none"/>

<!-- L5 Cloud: translate(486,48), w=92, h=184 -->
<g transform="translate(486,48)">
<rect width="92" height="184" rx="6" fill="#F1EFE8" stroke="#888780" stroke-width="0.35" stroke-dasharray="4,3"/>
<rect x="5" y="8" width="82" height="50" rx="4" fill="#fff" stroke="#888780" stroke-width="0.5"/>
<text x="46" y="24" text-anchor="middle" font-size="11.5" font-weight="500" fill="#444441">L5 Cloud</text>
<text x="46" y="39" text-anchor="middle" font-size="9.5" fill="#5F5E5A">SuperMemory</text>
<text x="46" y="53" text-anchor="middle" font-size="10" fill="#D85A30">1-3s / cloud</text>
<rect x="5" y="64" width="82" height="54" rx="3" fill="#D3D1C7"/>
<text x="10" y="80" font-size="9.5" font-weight="500" fill="#444441">Cross-device sync</text>
<text x="10" y="96" font-size="9" fill="#5F5E5A">API based</text>
<text x="10" y="112" font-size="9" fill="#5F5E5A">on-demand enable</text>
<rect x="5" y="124" width="82" height="52" rx="3" fill="#EEEDFE" stroke="#7F77DD" stroke-width="0.22"/>
<text x="46" y="141" text-anchor="middle" font-size="9.5" fill="#3C3489">optional</text>
<text x="46" y="157" text-anchor="middle" font-size="9" fill="#534AB7">priority: as-needed</text>
</g>

<path d="M582,140 L590,140" stroke="#888780" stroke-width="1.2" stroke-dasharray="3,2" marker-end="url(#a)" fill="none"/>

<!-- L6 Auto: translate(594,48), w=76, h=184 -->
<g transform="translate(594,48)">
<rect width="76" height="184" rx="6" fill="#F1EFE8" stroke="#888780" stroke-width="0.35" stroke-dasharray="4,3"/>
<rect x="4" y="8" width="68" height="50" rx="4" fill="#fff" stroke="#888780" stroke-width="0.5"/>
<text x="38" y="24" text-anchor="middle" font-size="11.5" font-weight="500" fill="#444441">L6 Auto</text>
<text x="38" y="39" text-anchor="middle" font-size="9.5" fill="#5F5E5A">Mem0</text>
<text x="38" y="53" text-anchor="middle" font-size="10" fill="#D85A30">async / auto</text>
<rect x="4" y="64" width="68" height="54" rx="3" fill="#D3D1C7"/>
<text x="9" y="80" font-size="9.5" font-weight="500" fill="#444441">Auto extract</text>
<text x="9" y="96" font-size="9" fill="#5F5E5A">AI framework</text>
<text x="9" y="112" font-size="9" fill="#5F5E5A">token cost applies</text>
<rect x="4" y="124" width="68" height="52" rx="3" fill="#EEEDFE" stroke="#7F77DD" stroke-width="0.22"/>
<text x="38" y="141" text-anchor="middle" font-size="9.5" fill="#3C3489">optional</text>
<text x="38" y="157" text-anchor="middle" font-size="9" fill="#534AB7">high-freq only</text>
</g>

<!-- Separator after cards -->
<line x1="16" y1="245" x2="664" y2="245" stroke="#AFA9EC" stroke-width="0.35"/>

<!-- Execution Timeline section -->
<text x="340" y="263" text-anchor="middle" font-size="11" font-weight="500" fill="#2C2C2A">Execution Timeline</text>

<g transform="translate(16,274)">
<rect width="158" height="50" rx="4" fill="#EEEDFE"/>
<text x="79" y="17" text-anchor="middle" font-size="10.5" font-weight="500" fill="#3C3489">Today (15 min)</text>
<text x="10" y="33" font-size="9" fill="#534AB7">Step 2: LanceDB install</text>
<text x="10" y="45" font-size="9" fill="#534AB7">Step 5: MEMORY.md template</text>
</g>

<g transform="translate(180,274)">
<rect width="158" height="50" rx="4" fill="#E1F5EE"/>
<text x="79" y="17" text-anchor="middle" font-size="10.5" font-weight="500" fill="#04342C">This Week (30 min)</text>
<text x="148" y="33" text-anchor="end" font-size="9" fill="#085041">Step 1: WarmStore code</text>
<text x="148" y="45" text-anchor="end" font-size="9" fill="#085041">Step 3: Git Notes init</text>
</g>

<g transform="translate(344,274)">
<rect width="158" height="50" rx="4" fill="#FAECE7"/>
<text x="79" y="17" text-anchor="middle" font-size="10.5" font-weight="500" fill="#712B13">Next Sprint (20 min)</text>
<text x="148" y="33" text-anchor="end" font-size="9" fill="#993C1D">Step 4: Archive scheduler</text>
<text x="148" y="45" text-anchor="end" font-size="9" fill="#993C1D">Step 7: Integration test</text>
</g>

<g transform="translate(508,274)">
<rect width="156" height="50" rx="4" fill="#F1EFE8" stroke="#B4B2A9" stroke-width="0.3" stroke-dasharray="3,2"/>
<text x="78" y="17" text-anchor="middle" font-size="10.5" font-weight="500" fill="#444441">As Needed</text>
<text x="146" y="33" text-anchor="end" font-size="9" fill="#5F5E5A">L5 sync + L6 auto</text>
<text x="146" y="45" text-anchor="end" font-size="9" fill="#5F5E5A">Optional enhancements</text>
</g>

<!-- Separator before Data Flow -->
<line x1="16" y1="337" x2="664" y2="337" stroke="#AFA9EC" stroke-width="0.35"/>

<!-- Data Flow Summary panel: translate(16,347), w=648, h=241 -->
<g transform="translate(16,347)">
<rect width="648" height="241" rx="6" fill="#FAFAFA" stroke="#B4B2A9" stroke-width="0.3"/>
<text x="324" y="18" text-anchor="middle" font-size="11.5" font-weight="500" fill="#2C2C2A">Data Flow Summary</text>
<line x1="12" y1="28" x2="636" y2="28" stroke="#D3D1C7" stroke-width="0.3"/>

<!-- Write Path: 152x189 @ x=12 -->
<g transform="translate(12,38)">
<rect width="152" height="189" rx="4" fill="#EEEDFE" stroke="#7F77DD" stroke-width="0.28"/>
<text x="76" y="18" text-anchor="middle" font-size="10.5" font-weight="500" fill="#3C3489">Write Path</text>
<text x="10" y="40" font-size="9.5" fill="#534AB7">User msg arrives</text>
<text x="10" y="57" font-size="9.5" fill="#534AB7">Update L1 state</text>
<text x="10" y="74" font-size="9.5" fill="#534AB7">Upsert L2 vector idx</text>
<text x="10" y="91" font-size="9.5" fill="#534AB7">Append L4 if notable</text>
<text x="10" y="108" font-size="9.5" fill="#534AB7">WAL: memory first</text>
<text x="10" y="125" font-size="9.5" fill="#534AB7">Then return reply</text>
<line x1="10" y1="139" x2="142" y2="139" stroke="#CECBF6" stroke-width="0.3"/>
<text x="10" y="158" font-size="9" font-weight="500" fill="#3C3489">Key: no context lost</text>
<text x="10" y="177" font-size="9" fill="#534AB7">between sessions</text>
</g>

<!-- Read Path: 152x189 @ x=172 -->
<g transform="translate(172,38)">
<rect width="152" height="189" rx="4" fill="#E1F5EE" stroke="#1D9E75" stroke-width="0.28"/>
<text x="76" y="18" text-anchor="middle" font-size="10.5" font-weight="500" fill="#04342C">Read Path</text>
<text x="10" y="40" font-size="9.5" fill="#085041">Query arrives</text>
<text x="10" y="57" font-size="9.5" fill="#085041">Check L1 for match</text>
<text x="10" y="74" font-size="9.5" fill="#085041">Else L2 vec search</text>
<text x="10" y="91" font-size="9.5" fill="#085041">Else L4 FTS fallback</text>
<text x="10" y="108" font-size="9.5" fill="#085041">L3 cold if needed</text>
<text x="10" y="125" font-size="9.5" fill="#085041">L5/L6 async enrich</text>
<line x1="10" y1="139" x2="142" y2="139" stroke="#9FE1CB" stroke-width="0.3"/>
<text x="10" y="158" font-size="9" font-weight="500" fill="#04342C">Key: semantic recall</text>
<text x="10" y="177" font-size="9" fill="#085041">not just keyword match</text>
</g>

<!-- Eviction Policy: 152x189 @ x=332 -->
<g transform="translate(332,38)">
<rect width="152" height="189" rx="4" fill="#E6F1FB" stroke="#185FA5" stroke-width="0.28"/>
<text x="76" y="18" text-anchor="middle" font-size="10.5" font-weight="500" fill="#042C53">Eviction Policy</text>
<text x="10" y="40" font-size="9.5" fill="#185FA5">L1: TTL at session end</text>
<text x="10" y="57" font-size="9.5" fill="#185FA5">L2: LRU decay weekly</text>
<text x="10" y="74" font-size="9.5" fill="#185FA5">Low-heat L2 to L3 batch</text>
<text x="10" y="91" font-size="9.5" fill="#185FA5">L3: write-once archive</text>
<text x="10" y="108" font-size="9.5" fill="#185FA5">L4: manual curation only</text>
<text x="10" y="125" font-size="9.5" fill="#185FA5">L5/L6: API quota mgmt</text>
<line x1="10" y1="139" x2="142" y2="139" stroke="#B5D4F4" stroke-width="0.3"/>
<text x="10" y="158" font-size="9" font-weight="500" fill="#0C447C">Key: automatic flow</text>
<text x="10" y="177" font-size="9" fill="#185FA5">minimal manual work</text>
</g>

<!-- Storage Cost: 144x189 @ x=492 -->
<g transform="translate(492,38)">
<rect width="144" height="189" rx="4" fill="#FAECE7" stroke="#D85A30" stroke-width="0.28"/>
<text x="72" y="18" text-anchor="middle" font-size="10.5" font-weight="500" fill="#4A1B0C">Storage Cost</text>
<text x="10" y="40" font-size="9.5" fill="#993C1D">L1: RAM only ~KB</text>
<text x="10" y="57" font-size="9.5" fill="#993C1D">L2: Local disk ~MB</text>
<text x="10" y="74" font-size="9.5" fill="#993C1D">L3: Git repo size</text>
<text x="10" y="91" font-size="9.5" fill="#993C1D">L4: Single .md file</text>
<text x="10" y="108" font-size="9.5" fill="#993C1D">L5: Cloud API fee</text>
<text x="10" y="125" font-size="9.5" fill="#993C1D">L6: OpenAI token cost</text>
<line x1="10" y1="139" x2="134" y2="139" stroke="#F5C4B3" stroke-width="0.3"/>
<text x="10" y="158" font-size="9" font-weight="500" fill="#712B13">Key: L1-L4 = free</text>
<text x="10" y="177" font-size="9" fill="#993C1D">L5/L6 pay per use</text>
</g>
</g>
</svg>