<svg viewBox="0 0 680 1100" width="100%" role="img" xmlns="http://www.w3.org/2000/svg">
  <title>FLUX.2 LoRA标注工程完全指南 - 五阶段学习路径全景图</title>
  <desc>从入门到大师的完整学习路径：入门(理解原理)→基础(快速上手)→进阶(工程化)→专家(深度优化)→大师(实战精进)，含核心概念、工具脚本、快速参考</desc>
  <defs>
    <marker id="arrow" viewBox="0 0 10 10" refX="8" refY="5" markerWidth="6" markerHeight="6" orient="auto-start-reverse">
      <path d="M2 1L8 5L2 9" fill="none" stroke="context-stroke" stroke-width="1.5" stroke-linecap="round" stroke-linejoin="round"/>
    </marker>
    <style>
      .th { font-family: -apple-system, BlinkMacSystemFont, "Segoe UI", Roboto, sans-serif; font-weight: 500; }
      .ts { font-family: -apple-system, BlinkMacSystemFont, "Segoe UI", Roboto, sans-serif; font-weight: 400; }
      .box { fill: #fff; }
      .node { cursor: pointer; }
      .node:hover rect { opacity: 0.85; }
      .c-blue rect { fill: #E6F1FB; stroke: #378ADD; }
      .c-teal rect { fill: #E1F5EE; stroke: #1D9E75; }
      .c-amber rect { fill: #FAEEDA; stroke: #BA7517; }
      .c-pink rect { fill: #FBEAF0; stroke: #D4537E; }
    </style>
  </defs>

  <!-- 全局定义 -->
  <rect x="0" y="0" width="680" height="1100" fill="#F8F9FA" rx="0"/>

  <!-- 标题 -->
  <text class="th" x="340" y="36" text-anchor="middle" font-size="16" font-weight="500" fill="#1a1a2e">FLUX.2 LoRA 标注工程完全指南</text>
  <text class="ts" x="340" y="56" text-anchor="middle" font-size="13" fill="#666">五阶段渐进式学习路径 · 服装 LoRA · 触发词 ohwx person</text>

  <!-- ============ 阶段1：入门 ============ -->
  <rect x="40" y="76" width="600" height="160" rx="10" fill="#EEEDFE" stroke="#7F77DD" stroke-width="0.5"/>
  <text class="th" x="60" y="100" font-size="14" fill="#3C3489">阶段1：入门 · 理解原理</text>
  
  <rect x="60" y="114" width="270" height="56" rx="8" fill="#fff" stroke="#7F77DD" stroke-width="0.5"/>
  <text class="th" x="195" y="134" text-anchor="middle" font-size="13" fill="#3C3489">第一章：为什么 FLUX.2</text>
  <text class="th" x="195" y="154" text-anchor="middle" font-size="13" fill="#3C3489">需要自然语言标注</text>

  <rect x="350" y="114" width="270" height="56" rx="8" fill="#fff" stroke="#7F77DD" stroke-width="0.5"/>
  <text class="th" x="485" y="134" text-anchor="middle" font-size="13" fill="#3C3489">第二章：触发词植入的</text>
  <text class="th" x="485" y="154" text-anchor="middle" font-size="13" fill="#3C3489">语义学原理</text>

  <line x1="330" y1="142" x2="348" y2="142" stroke="#7F77DD" stroke-width="1" marker-end="url(#arrow)" stroke-dasharray="4"/>

  <rect x="60" y="182" width="560" height="42" rx="6" fill="#fff" stroke="#7F77DD" stroke-width="0.5" stroke-dasharray="3"/>
  <text class="ts" x="80" y="200" font-size="12" fill="#3C3489">核心认知：Mistral-3 编码器 → 自然语言理解 → 标签列表=触发词完全无效</text>
  <text class="ts" x="80" y="216" font-size="11" fill="#666">自动标注工具(WD14 Tagger)=负资产，手动标注是唯一正确选择</text>

  <!-- 箭头 -->
  <line x1="340" y1="236" x2="340" y2="258" stroke="#888" stroke-width="1.5" marker-end="url(#arrow)"/>

  <!-- ============ 阶段2：基础 ============ -->
  <rect x="40" y="262" width="600" height="150" rx="10" fill="#E6F1FB" stroke="#378ADD" stroke-width="0.5"/>
  <text class="th" x="60" y="286" font-size="14" fill="#185FA5">阶段2：基础 · 快速上手</text>

  <rect x="60" y="300" width="270" height="56" rx="8" fill="#fff" stroke="#378ADD" stroke-width="0.5"/>
  <text class="th" x="195" y="320" text-anchor="middle" font-size="13" fill="#185FA5">第三章：10分钟快速开始</text>
  <text class="ts" x="195" y="340" text-anchor="middle" font-size="12" fill="#666">10图验证 → 快训300步</text>

  <rect x="350" y="300" width="270" height="56" rx="8" fill="#fff" stroke="#378ADD" stroke-width="0.5"/>
  <text class="th" x="485" y="320" text-anchor="middle" font-size="13" fill="#185FA5">第四章：标注质量标准</text>
  <text class="ts" x="485" y="340" text-anchor="middle" font-size="12" fill="#666">六要素 + 标注长度 40-100词</text>

  <line x1="330" y1="328" x2="348" y2="328" stroke="#378ADD" stroke-width="1" marker-end="url(#arrow)" stroke-dasharray="4"/>

  <rect x="60" y="368" width="560" height="34" rx="6" fill="#fff" stroke="#378ADD" stroke-width="0.5" stroke-dasharray="3"/>
  <text class="ts" x="80" y="390" font-size="12" fill="#185FA5">触发词 2-3次/条 (密度 2-5%) · 位置随机分布(开头30%/中间40%/结尾30%)</text>

  <!-- 箭头 -->
  <line x1="340" y1="412" x2="340" y2="434" stroke="#888" stroke-width="1.5" marker-end="url(#arrow)"/>

  <!-- ============ 阶段3：进阶 ============ -->
  <rect x="40" y="438" width="600" height="150" rx="10" fill="#E1F5EE" stroke="#1D9E75" stroke-width="0.5"/>
  <text class="th" x="60" y="462" font-size="14" fill="#0F6E56">阶段3：进阶 · 工程化</text>

  <rect x="60" y="476" width="270" height="56" rx="8" fill="#fff" stroke="#1D9E75" stroke-width="0.5"/>
  <text class="th" x="195" y="496" text-anchor="middle" font-size="13" fill="#0F6E56">第五章：标注工程流程</text>
  <text class="ts" x="195" y="516" text-anchor="middle" font-size="12" fill="#666">数据审计 → 标注 → 验收 → 训练</text>

  <rect x="350" y="476" width="270" height="56" rx="8" fill="#fff" stroke="#1D9E75" stroke-width="0.5"/>
  <text class="th" x="485" y="496" text-anchor="middle" font-size="13" fill="#0F6E56">第六章：批量标注生成器</text>
  <text class="ts" x="485" y="516" text-anchor="middle" font-size="12" fill="#666">15模板 + CSV驱动 + 人工审阅</text>

  <line x1="330" y1="504" x2="348" y2="504" stroke="#1D9E75" stroke-width="1" marker-end="url(#arrow)" stroke-dasharray="4"/>

  <rect x="60" y="544" width="560" height="34" rx="6" fill="#fff" stroke="#1D9E75" stroke-width="0.5" stroke-dasharray="3"/>
  <text class="ts" x="80" y="566" font-size="12" fill="#0F6E56">工具: validation_script.py(验收) · caption_generator.py(批量生成)</text>

  <!-- 箭头 -->
  <line x1="340" y1="588" x2="340" y2="610" stroke="#888" stroke-width="1.5" marker-end="url(#arrow)"/>

  <!-- ============ 阶段4：专家 ============ -->
  <rect x="40" y="614" width="600" height="150" rx="10" fill="#FAEEDA" stroke="#BA7517" stroke-width="0.5"/>
  <text class="th" x="60" y="638" font-size="14" fill="#854F0B">阶段4：专家 · 深度优化</text>

  <rect x="60" y="652" width="270" height="56" rx="8" fill="#fff" stroke="#BA7517" stroke-width="0.5"/>
  <text class="th" x="195" y="672" text-anchor="middle" font-size="13" fill="#854F0B">第七章：词频污染可视化</text>
  <text class="ts" x="195" y="692" text-anchor="middle" font-size="12" fill="#666">阈值 &gt;40% 严重 → 替换同义词</text>

  <rect x="350" y="652" width="270" height="56" rx="8" fill="#fff" stroke="#BA7517" stroke-width="0.5"/>
  <text class="th" x="485" y="672" text-anchor="middle" font-size="13" fill="#854F0B">第八章：训练失败根因映射</text>
  <text class="ts" x="485" y="692" text-anchor="middle" font-size="12" fill="#666">5大失败现象 → 根因 → 解决方案</text>

  <line x1="330" y1="680" x2="348" y2="680" stroke="#BA7517" stroke-width="1" marker-end="url(#arrow)" stroke-dasharray="4"/>

  <rect x="60" y="720" width="560" height="34" rx="6" fill="#fff" stroke="#BA7517" stroke-width="0.5" stroke-dasharray="3"/>
  <text class="ts" x="80" y="742" font-size="12" fill="#854F0B">工具: word_frequency_visualizer.py · troubleshooting.py</text>

  <!-- 箭头 -->
  <line x1="340" y1="764" x2="340" y2="786" stroke="#888" stroke-width="1.5" marker-end="url(#arrow)"/>

  <!-- ============ 阶段5：大师 ============ -->
  <rect x="40" y="790" width="600" height="155" rx="10" fill="#FBEAF0" stroke="#D4537E" stroke-width="0.5"/>
  <text class="th" x="60" y="814" font-size="14" fill="#993556">阶段5：大师 · 实战精进</text>

  <rect x="60" y="828" width="270" height="56" rx="8" fill="#fff" stroke="#D4537E" stroke-width="0.5"/>
  <text class="th" x="195" y="848" text-anchor="middle" font-size="13" fill="#993556">第九章：实战技巧与陷阱规避</text>
  <text class="ts" x="195" y="868" text-anchor="middle" font-size="12" fill="#666">模板精修·分批训练·多CP对比</text>

  <rect x="350" y="828" width="270" height="56" rx="8" fill="#fff" stroke="#D4537E" stroke-width="0.5"/>
  <text class="th" x="485" y="848" text-anchor="middle" font-size="13" fill="#993556">第十章：案例学习</text>
  <text class="ts" x="485" y="868" text-anchor="middle" font-size="12" fill="#666">服装LoRA·词频污染·排障实战</text>

  <line x1="330" y1="856" x2="348" y2="856" stroke="#D4537E" stroke-width="1" marker-end="url(#arrow)" stroke-dasharray="4"/>

  <rect x="60" y="896" width="560" height="40" rx="6" fill="#fff" stroke="#D4537E" stroke-width="0.5" stroke-dasharray="3"/>
  <text class="ts" x="80" y="914" font-size="12" fill="#993556">黄金参数: LR=1e-3 · Steps=750 · caption_dropout_rate=0.1</text>
  <text class="ts" x="80" y="930" font-size="11" fill="#666">三大陷阱: 模板重复 · 位置固定 · 词频污染累积</text>

  <!-- 底部：附录 -->
  <rect x="40" y="960" width="600" height="128" rx="10" fill="#F1EFE8" stroke="#888780" stroke-width="0.5"/>
  <text class="th" x="340" y="982" text-anchor="middle" font-size="13" fill="#444">附录快速参考</text>

  <rect x="60" y="998" width="133" height="34" rx="6" fill="#fff" stroke="#B4B2A9" stroke-width="0.5"/>
  <text class="ts" x="126" y="1020" text-anchor="middle" font-size="12" fill="#444">训练参数表</text>

  <rect x="203" y="998" width="133" height="34" rx="6" fill="#fff" stroke="#B4B2A9" stroke-width="0.5"/>
  <text class="ts" x="269" y="1020" text-anchor="middle" font-size="12" fill="#444">标注质量标准</text>

  <rect x="346" y="998" width="133" height="34" rx="6" fill="#fff" stroke="#B4B2A9" stroke-width="0.5"/>
  <text class="ts" x="412" y="1020" text-anchor="middle" font-size="12" fill="#444">词频污染阈值</text>

  <rect x="489" y="998" width="133" height="34" rx="6" fill="#fff" stroke="#B4B2A9" stroke-width="0.5"/>
  <text class="ts" x="555" y="1020" text-anchor="middle" font-size="12" fill="#444">六要素清单</text>

  <text class="ts" x="340" y="1074" text-anchor="middle" font-size="11" fill="#888">另有故障排查决策树 · 案例1-3 · 思考题及答案 · 完整脚本索引</text>
</svg>