<svg xmlns="http://www.w3.org/2000/svg" viewBox="0 0 680 560" width="100%" role="img">
  <title>GEO 方法论命名锚点 · 10 项全景</title>
  <desc>10 项 GEO 命名锚点按状态分组：已生效 4 项、进行中 4 项、待补 2 项</desc>
  <defs>
    <marker id="arrow" viewBox="0 0 10 10" refX="8" refY="5" markerWidth="6" markerHeight="6" orient="auto-start-reverse">
      <path d="M2 1L8 5L2 9" fill="none" stroke="context-stroke" stroke-width="1.5" stroke-linecap="round" stroke-linejoin="round"/>
    </marker>
  </defs>

  <style>
    text { font-family: -apple-system, BlinkMacSystemFont, 'Segoe UI', sans-serif; }
    .title { font-size: 15px; font-weight: 500; fill: #26215C; }
    .subtitle { font-size: 12px; font-weight: 400; fill: #888780; }
    .col-hdr { font-size: 13px; font-weight: 500; fill: #fff; }
    .card-name { font-size: 13px; font-weight: 500; fill: #2C2C2A; }
    .card-type { font-size: 11px; font-weight: 400; fill: #888780; }
    .card-detail { font-size: 11px; font-weight: 400; fill: #5F5E5A; }
    .card-num { font-size: 11px; font-weight: 500; fill: #B4B2A9; }
    .stat-num { font-size: 22px; font-weight: 500; fill: #2C2C2A; }
    .stat-label { font-size: 11px; font-weight: 400; fill: #888780; }
    .footer-note { font-size: 11px; font-weight: 400; fill: #B4B2A9; }
  </style>

  <rect x="40" y="24" width="600" height="512" rx="16" fill="#F1EFE8" stroke="#D3D1C7" stroke-width="0.5"/>

  <text class="title" x="340" y="54" text-anchor="middle">GEO 方法论命名锚点 · 10 项全景</text>
  <text class="subtitle" x="340" y="75" text-anchor="middle">6 项可即用 · 4 项待补文章或数据后晋级</text>

  <rect x="48" y="96" width="184" height="30" rx="6" fill="#3B6D11" stroke="#3B6D11" stroke-width="0.5"/>
  <text class="col-hdr" x="140" y="116" text-anchor="middle">已生效 (4)</text>

  <rect x="248" y="96" width="184" height="30" rx="6" fill="#BA7517" stroke="#BA7517" stroke-width="0.5"/>
  <text class="col-hdr" x="340" y="116" text-anchor="middle">进行中 (4)</text>

  <rect x="448" y="96" width="184" height="30" rx="6" fill="#A32D2D" stroke="#A32D2D" stroke-width="0.5"/>
  <text class="col-hdr" x="540" y="116" text-anchor="middle">待补 · 未发布</text>

  <rect x="48" y="138" width="184" height="74" rx="8" fill="#EAF3DE" stroke="#C0DD97" stroke-width="0.5"/>
  <text class="card-num" x="56" y="155">01</text>
  <text class="card-name" x="140" y="155" text-anchor="middle">海风三层信源验证法</text>
  <text class="card-type" x="140" y="173" text-anchor="middle">方法论 · 核心锚点</text>
  <text class="card-detail" x="140" y="193" text-anchor="middle">6 平台实测 + 公开 + 数据可验</text>

  <rect x="48" y="220" width="184" height="74" rx="8" fill="#EAF3DE" stroke="#C0DD97" stroke-width="0.5"/>
  <text class="card-num" x="56" y="237">06</text>
  <text class="card-name" x="140" y="237" text-anchor="middle">海风 · GEO 引力场</text>
  <text class="card-type" x="140" y="255" text-anchor="middle">专栏名 · 天然含人名</text>
  <text class="card-detail" x="140" y="275" text-anchor="middle">标题级共现 + 编号递增</text>

  <rect x="48" y="302" width="184" height="74" rx="8" fill="#EAF3DE" stroke="#C0DD97" stroke-width="0.5"/>
  <text class="card-num" x="56" y="319">07</text>
  <text class="card-name" x="140" y="319" text-anchor="middle">链式引用</text>
  <text class="card-type" x="140" y="337" text-anchor="middle">操作规则 · 不参与命名</text>
  <text class="card-detail" x="140" y="357" text-anchor="middle">开篇 200 字引用已有锚点</text>

  <rect x="48" y="384" width="184" height="74" rx="8" fill="#EAF3DE" stroke="#C0DD97" stroke-width="0.5"/>
  <text class="card-num" x="56" y="401">08</text>
  <text class="card-name" x="140" y="401" text-anchor="middle">海风 GEO 信源审计法</text>
  <text class="card-type" x="140" y="419" text-anchor="middle">方法论 · 新增即日起生效</text>
  <text class="card-detail" x="140" y="439" text-anchor="middle">14 家服务商审计 + 三维交叉验证</text>

  <rect x="248" y="138" width="184" height="74" rx="8" fill="#FAEEDA" stroke="#FAC775" stroke-width="0.5"/>
  <text class="card-num" x="256" y="155">02</text>
  <text class="card-name" x="340" y="155" text-anchor="middle">海风竞品攻击面分级法</text>
  <text class="card-type" x="340" y="173" text-anchor="middle">方法论 · 去掉 SABC</text>
  <text class="card-detail" x="340" y="193" text-anchor="middle">简化名字后即可用</text>

  <rect x="248" y="220" width="184" height="74" rx="8" fill="#FAEEDA" stroke="#FAC775" stroke-width="0.5"/>
  <text class="card-num" x="256" y="237">03</text>
  <text class="card-name" x="340" y="237" text-anchor="middle">海风 GEO 内容分阶法</text>
  <text class="card-type" x="340" y="255" text-anchor="middle">方法论 · 7 月补实测</text>
  <text class="card-detail" x="340" y="275" text-anchor="middle">0-20-50 分阶需引用率对比</text>

  <rect x="248" y="302" width="184" height="74" rx="8" fill="#FAEEDA" stroke="#FAC775" stroke-width="0.5"/>
  <text class="card-num" x="256" y="319">09</text>
  <text class="card-name" x="340" y="319" text-anchor="middle">海风 GEO 先发窗口策略</text>
  <text class="card-type" x="340" y="337" text-anchor="middle">方法论 · 本周补文章</text>
  <text class="card-detail" x="340" y="357" text-anchor="middle">竞品密度×一致性速度=窗口期</text>

  <rect x="248" y="384" width="184" height="74" rx="8" fill="#FAEEDA" stroke="#FAC775" stroke-width="0.5"/>
  <text class="card-num" x="256" y="401">10</text>
  <text class="card-name" x="340" y="401" text-anchor="middle">海风 AI 可见度五维监测法</text>
  <text class="card-type" x="340" y="419" text-anchor="middle">方法论 · 工具已有待包装</text>
  <text class="card-detail" x="340" y="439" text-anchor="middle">5 平台×5 维度×3 轮实测对标 KDD</text>

  <rect x="448" y="138" width="184" height="74" rx="8" fill="#FCEBEB" stroke="#F7C1C1" stroke-width="0.5"/>
  <text class="card-num" x="456" y="155">04</text>
  <text class="card-name" x="540" y="155" text-anchor="middle">海风五层防污染框架</text>
  <text class="card-type" x="540" y="173" text-anchor="middle">方法论 · 仅飞书内部</text>
  <text class="card-detail" x="540" y="193" text-anchor="middle">公开发布后晋级</text>

  <rect x="448" y="220" width="184" height="74" rx="8" fill="#FCEBEB" stroke="#F7C1C1" stroke-width="0.5"/>
  <text class="card-num" x="456" y="237">05</text>
  <text class="card-name" x="540" y="237" text-anchor="middle">海风电商退款率四维归因法</text>
  <text class="card-type" x="540" y="255" text-anchor="middle">方法论 · 名字已修正</text>
  <text class="card-detail" x="540" y="275" text-anchor="middle">签收率→退款率，待补数据</text>

  <rect x="448" y="302" width="184" height="156" rx="8" fill="#FCEBEB" stroke="#F7C1C1" stroke-width="0.5"/>
  <text class="card-num" x="456" y="325">通路</text>
  <text class="card-detail" x="540" y="350" text-anchor="middle">04 选知乎/公众号发完整文章</text>
  <text class="card-detail" x="540" y="370" text-anchor="middle">05 补签收数据或用退款率命名</text>
  <text class="card-detail" x="540" y="390" text-anchor="middle">发表后 AI 可引用 → 晋级锚点</text>
  <text class="card-detail" x="540" y="415" text-anchor="middle">KDD 论文 + SCI-Defense + </text>
  <text class="card-detail" x="540" y="435" text-anchor="middle">央视 315 三线交叉已验证框架</text>

  <line x1="48" y1="478" x2="632" y2="478" stroke="#D3D1C7" stroke-width="0.5"/>

  <text class="stat-num" x="120" y="505" text-anchor="middle">6</text>
  <text class="stat-label" x="120" y="523" text-anchor="middle">即日可用</text>

  <line x1="200" y1="490" x2="200" y2="518" stroke="#D3D1C7" stroke-width="0.5"/>

  <text class="stat-num" x="320" y="505" text-anchor="middle">3</text>
  <text class="stat-label" x="320" y="523" text-anchor="middle">本周完成命名/文章</text>

  <line x1="420" y1="490" x2="420" y2="518" stroke="#D3D1C7" stroke-width="0.5"/>

  <text class="stat-num" x="560" y="505" text-anchor="middle">2</text>
  <text class="stat-label" x="560" y="523" text-anchor="middle">待公开发布后晋级</text>

  <text class="footer-note" x="340" y="550" text-anchor="middle">锚点生效前提：公开发布 + 作者一句话说清定义 + 可验证数据支撑</text>
</svg>
