<svg xmlns="http://www.w3.org/2000/svg" viewBox="0 0 1000 1480" width="100%" height="100%" style="background: #ffffff; font-family: 'PingFang SC','Microsoft YaHei','Noto Sans SC',sans-serif;">
  
  <defs>
    <marker id="arrow1" viewBox="0 0 10 10" refX="8" refY="5" markerWidth="6" markerHeight="6" orient="auto">
      <path d="M2 1L8 5L2 9" fill="none" stroke="#185FA5" stroke-width="2" stroke-linecap="round" stroke-linejoin="round"/>
    </marker>
    <marker id="arrow2" viewBox="0 0 10 10" refX="8" refY="5" markerWidth="6" markerHeight="6" orient="auto">
      <path d="M2 1L8 5L2 9" fill="none" stroke="#666666" stroke-width="1.5" stroke-linecap="round" stroke-linejoin="round"/>
    </marker>
  </defs>

  <!-- ===== HEADER ===== -->
  <rect x="0" y="0" width="1000" height="80" fill="#185FA5"/>
  <text x="500" y="38" text-anchor="middle" font-size="24" font-weight="600" fill="#ffffff">被AI看见 商业模式全景图</text>
  <text x="500" y="62" text-anchor="middle" font-size="14" fill-opacity="0.8" fill="#ffffff">GEO时代 2026年7月 海风老师分析框架</text>

  <!-- ===== SECTION 1: 三个时代 ===== -->
  <rect x="40" y="110" width="920" height="220" rx="12" fill="#F8F9FA" stroke="#DEE2E6" stroke-width="1"/>
  <text x="500" y="140" text-anchor="middle" font-size="18" font-weight="600" fill="#212529">信息分发变革的三个时代 变现链条演变</text>

  <!-- Era 1: SEO -->
  <rect x="70" y="160" width="270" height="145" rx="8" fill="#E6F1FB" stroke="#B5D4F4" stroke-width="1"/>
  <text x="205" y="185" text-anchor="middle" font-size="15" font-weight="600" fill="#185FA5">一 SEO 时代（2000-2023）</text>
  <text x="205" y="210" text-anchor="middle" font-size="12" fill="#495057">人搜索 点链接 看内容</text>
  <rect x="85" y="222" width="240" height="28" rx="4" fill="#B5D4F4"/>
  <text x="205" y="242" text-anchor="middle" font-size="12" fill="#212529">变现模型 AdWords 竞价排名</text>
  <text x="205" y="265" text-anchor="middle" font-size="11" fill="#6C757D">Google 年收入 3000+ 亿美元</text>
  <text x="205" y="282" text-anchor="middle" font-size="11" fill="#6C757D">SEO + SEM = 品牌标配</text>
  <text x="205" y="298" text-anchor="middle" font-size="11" fill="#185FA5">归因 GA/百度统计可追踪</text>

  <line x1="340" y1="232" x2="370" y2="232" stroke="#185FA5" stroke-width="2" marker-end="url(#arrow1)"/>

  <!-- Era 2: Platform -->
  <rect x="370" y="160" width="270" height="145" rx="8" fill="#EAF3DE" stroke="#C0DD97" stroke-width="1"/>
  <text x="505" y="185" text-anchor="middle" font-size="15" font-weight="600" fill="#3B6D11">二 平台时代（2012-2024）</text>
  <text x="505" y="210" text-anchor="middle" font-size="12" fill="#495057">人在 Feed 里刷内容</text>
  <rect x="385" y="222" width="240" height="28" rx="4" fill="#C0DD97"/>
  <text x="505" y="242" text-anchor="middle" font-size="12" fill="#212529">变现模型 信息流广告竞价</text>
  <text x="505" y="265" text-anchor="middle" font-size="11" fill="#6C757D">抖音年收入 2000+ 亿美元</text>
  <text x="505" y="282" text-anchor="middle" font-size="11" fill="#6C757D">算法推送+流量分层</text>
  <text x="505" y="298" text-anchor="middle" font-size="11" fill="#3B6D11">归因 GMV 可直接追踪</text>

  <line x1="640" y1="232" x2="670" y2="232" stroke="#185FA5" stroke-width="2" marker-end="url(#arrow1)"/>

  <!-- Era 3: GEO -->
  <rect x="670" y="160" width="265" height="145" rx="8" fill="#FAEEDA" stroke="#FAC775" stroke-width="1"/>
  <text x="802" y="185" text-anchor="middle" font-size="15" font-weight="600" fill="#854F0B">三 GEO 时代（2025+）</text>
  <text x="802" y="210" text-anchor="middle" font-size="12" fill="#495057">人问AI AI读取内容 直接给答案</text>
  <rect x="685" y="222" width="235" height="28" rx="4" fill="#FAC775"/>
  <text x="802" y="242" text-anchor="middle" font-size="12" fill="#212529">变现模型 ???</text>
  <text x="802" y="265" text-anchor="middle" font-size="11" fill="#6C757D">90+ 玩家，无明确领导者</text>
  <text x="802" y="282" text-anchor="middle" font-size="11" fill="#6C757D">B2B SaaS 方向空白巨大</text>
  <text x="802" y="298" text-anchor="middle" font-size="11" fill="#854F0B">归因 无（这就是问题）</text>

  <!-- ===== SECTION 2: 核心问题 ===== -->
  <rect x="40" y="355" width="920" height="85" rx="12" fill="#FFF5F5" stroke="#F7C1C1" stroke-width="1"/>
  <text x="500" y="380" text-anchor="middle" font-size="16" font-weight="600" fill="#A32D2D">你发现的两个核心问题 = 未被占领的商业机会</text>
  <rect x="80" y="395" width="410" height="30" rx="6" fill="#FCEBEB"/>
  <text x="285" y="415" text-anchor="middle" font-size="13" fill="#A32D2D">问题 A AI 引用了但不告诉你 需要归因追踪层</text>
  <rect x="510" y="395" width="410" height="30" rx="6" fill="#FCEBEB"/>
  <text x="715" y="415" text-anchor="middle" font-size="13" fill="#A32D2D">问题 B AI 内化了你的内容 需要内容溯源+补偿层</text>

  <!-- ===== SECTION 3: 7种商业模式 ===== -->
  <rect x="40" y="465" width="920" height="38" rx="8" fill="#185FA5"/>
  <text x="500" y="490" text-anchor="middle" font-size="16" font-weight="600" fill="#ffffff">7 种商业模式机会（下方数字 = 当前验证度）</text>

  <!-- Row 1 -->
  <!-- Model 1 -->
  <rect x="40" y="515" width="225" height="145" rx="8" fill="#E6F1FB" stroke="#B5D4F4" stroke-width="1"/>
  <rect x="40" y="515" width="225" height="32" rx="8" fill="#B5D4F4"/>
  <text x="152" y="536" text-anchor="middle" font-size="13" font-weight="600" fill="#0C447C">1. 内容许可/数据授权</text>
  <text x="152" y="560" text-anchor="middle" font-size="11" fill="#495057">Reddit Google/OpenAI</text>
  <text x="152" y="578" text-anchor="middle" font-size="11" fill="#495057">授权费 $2.03亿/年</text>
  <text x="152" y="596" text-anchor="middle" font-size="11" fill="#495057">+ 绩效分成新模式</text>
  <text x="152" y="614" text-anchor="middle" font-size="11" fill="#495057">Stack Overflow $1亿+/年</text>
  <text x="152" y="635" text-anchor="middle" font-size="11" fill="#495057">适合 有大量UGC的平台</text>
  <text x="152" y="653" text-anchor="middle" font-size="11" font-weight="600" fill="#185FA5">验证度 </text>

  <!-- Model 2 -->
  <rect x="280" y="515" width="225" height="145" rx="8" fill="#EAF3DE" stroke="#C0DD97" stroke-width="1"/>
  <rect x="280" y="515" width="225" height="32" rx="8" fill="#C0DD97"/>
  <text x="392" y="536" text-anchor="middle" font-size="13" font-weight="600" fill="#27500A">2. GEO SaaS 工具</text>
  <text x="392" y="560" text-anchor="middle" font-size="11" fill="#495057">监控品牌被AI引用的频率</text>
  <text x="392" y="578" text-anchor="middle" font-size="11" fill="#495057">GrackerAI 监控+内容+归因</text>
  <text x="392" y="596" text-anchor="middle" font-size="11" fill="#495057">90+ 玩家，无明确领导者</text>
  <text x="392" y="614" text-anchor="middle" font-size="11" fill="#495057">B2B SaaS 方向空白巨大</text>
  <text x="392" y="635" text-anchor="middle" font-size="11" fill="#495057">月费 $100-$5000/企业</text>
  <text x="392" y="653" text-anchor="middle" font-size="11" font-weight="600" fill="#3B6D11">验证度 </text>

  <!-- Model 3 -->
  <rect x="520" y="515" width="225" height="145" rx="8" fill="#FAEEDA" stroke="#FAC775" stroke-width="1"/>
  <rect x="520" y="515" width="225" height="32" rx="8" fill="#FAC775"/>
  <text x="632" y="536" text-anchor="middle" font-size="13" font-weight="600" fill="#633806">3. GEO 原生广告</text>
  <text x="632" y="560" text-anchor="middle" font-size="11" fill="#495057">AI回答中的赞助推荐位</text>
  <text x="632" y="578" text-anchor="middle" font-size="11" fill="#495057">等价于 AdWords for AI</text>
  <text x="632" y="596" text-anchor="middle" font-size="11" fill="#495057">Perplexity 已测试赞助回答</text>
  <text x="632" y="614" text-anchor="middle" font-size="11" fill="#495057">2028年预测成为主流</text>
  <text x="632" y="635" text-anchor="middle" font-size="11" fill="#495057">CPC CPM CPA 进化</text>
  <text x="632" y="653" text-anchor="middle" font-size="11" font-weight="600" fill="#854F0B">验证度 </text>

  <!-- Model 4 -->
  <rect x="760" y="515" width="200" height="145" rx="8" fill="#FBEAF0" stroke="#F4C0D1" stroke-width="1"/>
  <rect x="760" y="515" width="200" height="32" rx="8" fill="#F4C0D1"/>
  <text x="860" y="536" text-anchor="middle" font-size="13" font-weight="600" fill="#72243E">4. AI 归因平台</text>
  <text x="860" y="560" text-anchor="middle" font-size="11" fill="#495057">追踪谁被AI引用</text>
  <text x="860" y="578" text-anchor="middle" font-size="11" fill="#495057">在什么上下文被引用</text>
  <text x="860" y="596" text-anchor="middle" font-size="11" fill="#495057">频率和正负面判断</text>
  <text x="860" y="614" text-anchor="middle" font-size="11" fill="#495057">竞品对比分析</text>
  <text x="860" y="635" text-anchor="middle" font-size="11" fill="#495057">SaaS 订阅制</text>
  <text x="860" y="653" text-anchor="middle" font-size="11" font-weight="600" fill="#993556">验证度 </text>

  <!-- Row 2 -->
  <!-- Model 5 -->
  <rect x="40" y="675" width="225" height="145" rx="8" fill="#E6F1FB" stroke="#B5D4F4" stroke-width="1"/>
  <rect x="40" y="675" width="225" height="32" rx="8" fill="#B5D4F4"/>
  <text x="152" y="696" text-anchor="middle" font-size="13" font-weight="600" fill="#0C447C">5. 内容指纹/溯源</text>
  <text x="152" y="720" text-anchor="middle" font-size="11" fill="#495057">给内容打上数字指纹</text>
  <text x="152" y="738" text-anchor="middle" font-size="11" fill="#495057">AI训练/推理自动检测</text>
  <text x="152" y="756" text-anchor="middle" font-size="11" fill="#495057">类似TikTok的音频指纹</text>
  <text x="152" y="774" text-anchor="middle" font-size="11" fill="#495057">技术有挑战但天花板高</text>
  <text x="152" y="795" text-anchor="middle" font-size="11" fill="#495057">全球无成熟方案</text>
  <text x="152" y="813" text-anchor="middle" font-size="11" font-weight="600" fill="#185FA5">验证度 </text>

  <!-- Model 6 -->
  <rect x="280" y="675" width="225" height="145" rx="8" fill="#EAF3DE" stroke="#C0DD97" stroke-width="1"/>
  <rect x="280" y="675" width="225" height="32" rx="8" fill="#C0DD97"/>
  <text x="392" y="696" text-anchor="middle" font-size="13" font-weight="600" fill="#27500A">6. GEO 咨询服务</text>
  <text x="392" y="720" text-anchor="middle" font-size="11" fill="#495057">帮品牌训练AI引用自己</text>
  <text x="392" y="738" text-anchor="middle" font-size="11" fill="#495057">结构化数据优化</text>
  <text x="392" y="756" text-anchor="middle" font-size="11" fill="#495057">LLMs.txt 策略定制</text>
  <text x="392" y="774" text-anchor="middle" font-size="11" fill="#495057">网站内容审计</text>
  <text x="392" y="795" text-anchor="middle" font-size="11" fill="#495057">竞争分析报告</text>
  <text x="392" y="813" text-anchor="middle" font-size="11" font-weight="600" fill="#3B6D11">验证度 </text>

  <!-- Model 7 -->
  <rect x="520" y="675" width="225" height="145" rx="8" fill="#FAEEDA" stroke="#FAC775" stroke-width="1"/>
  <rect x="520" y="675" width="225" height="32" rx="8" fill="#FAC775"/>
  <text x="632" y="696" text-anchor="middle" font-size="13" font-weight="600" fill="#633806">7. 个人 IP GEO</text>
  <text x="632" y="720" text-anchor="middle" font-size="11" fill="#495057">你正在做的事</text>
  <text x="632" y="738" text-anchor="middle" font-size="11" fill="#495057">内容资产库 + GEO</text>
  <text x="632" y="756" text-anchor="middle" font-size="11" fill="#495057">被AI引用 = 被看见</text>
  <text x="632" y="774" text-anchor="middle" font-size="11" fill="#495057">无需技术投入</text>
  <text x="632" y="795" text-anchor="middle" font-size="11" fill="#495057">时间窗口 12-18个月</text>
  <text x="632" y="813" text-anchor="middle" font-size="11" font-weight="600" fill="#854F0B">验证度 </text>

  <!-- Key insight -->
  <rect x="760" y="675" width="200" height="145" rx="8" fill="#EEEDFE" stroke="#CECBF6" stroke-width="1"/>
  <text x="860" y="700" text-anchor="middle" font-size="12" font-weight="600" fill="#3C3489">逻辑链条</text>
  <text x="860" y="725" text-anchor="middle" font-size="10" fill="#495057">内容多 AI概率性高</text>
  <text x="860" y="745" text-anchor="middle" font-size="10" fill="#495057">结构化 AI易引用</text>
  <text x="860" y="765" text-anchor="middle" font-size="10" fill="#495057">作者区 权威信号</text>
  <text x="860" y="785" text-anchor="middle" font-size="10" fill="#495057">链接互引 建立回环</text>
  <text x="860" y="810" text-anchor="middle" font-size="10" font-weight="600" fill="#534AB7">逆向思考</text>
  <text x="860" y="828" text-anchor="middle" font-size="10" fill="#495057">问题A+B = 你的优势</text>

  <!-- ===== SECTION 4: 历史案例对照 ===== -->
  <rect x="40" y="845" width="920" height="38" rx="8" fill="#343A40"/>
  <text x="500" y="870" text-anchor="middle" font-size="16" font-weight="600" fill="#ffffff">历史案例对照 每一次分发革命都诞生了新巨头</text>

  <rect x="40" y="895" width="455" height="95" rx="8" fill="#F8F9FA" stroke="#DEE2E6" stroke-width="1"/>
  <text x="267" y="918" text-anchor="middle" font-size="13" font-weight="600" fill="#185FA5">Google AdWords（2000年）</text>
  <text x="267" y="940" text-anchor="middle" font-size="11" fill="#495057">当搜索成为入口 竞价排名取代黄页广告</text>
  <text x="267" y="958" text-anchor="middle" font-size="11" fill="#495057">早期入场的 SEO 公司 年收入数亿</text>
  <text x="267" y="976" text-anchor="middle" font-size="11" fill="#495057">教训 谁先建立流量管道，谁吃最多红利</text>

  <rect x="510" y="895" width="450" height="95" rx="8" fill="#F8F9FA" stroke="#DEE2E6" stroke-width="1"/>
  <text x="735" y="918" text-anchor="middle" font-size="13" font-weight="600" fill="#3B6D11">抖音信息流+直播电商（2018年）</text>
  <text x="735" y="940" text-anchor="middle" font-size="11" fill="#495057">当算法推荐取代关注 内容即广告</text>
  <text x="735" y="958" text-anchor="middle" font-size="11" fill="#495057">早期入场的带货主播/服务商 年收入数亿</text>
  <text x="735" y="976" text-anchor="middle" font-size="11" fill="#495057">教训 新平台给初期创作者超额流量扶持</text>

  <rect x="40" y="1010" width="920" height="3" rx="1.5" fill="#185FA5"/>

  <!-- ===== SECTION 5: 个人路径 ===== -->
  <rect x="40" y="1035" width="920" height="38" rx="8" fill="#185FA5"/>
  <text x="500" y="1060" text-anchor="middle" font-size="16" font-weight="600" fill="#ffffff">你的个人行动路径</text>

  <!-- Phase 1 -->
  <rect x="60" y="1090" width="220" height="120" rx="8" fill="#E6F1FB" stroke="#378ADD" stroke-width="1.5"/>
  <rect x="60" y="1090" width="220" height="28" rx="8" fill="#378ADD"/>
  <text x="170" y="1109" text-anchor="middle" font-size="12" font-weight="600" fill="#ffffff">现在 堆量期</text>
  <text x="170" y="1135" text-anchor="middle" font-size="11" fill="#495057">继续写文章+推仓库</text>
  <text x="170" y="1153" text-anchor="middle" font-size="11" fill="#495057">awesome star 增长</text>
  <text x="170" y="1171" text-anchor="middle" font-size="11" fill="#495057">每篇文章 = GEO 资产</text>
  <text x="170" y="1189" text-anchor="middle" font-size="11" fill="#6C757D">投入 已有内容产出时间</text>
  <text x="170" y="1204" text-anchor="middle" font-size="11" fill="#185FA5">产出 品牌曝光+权威性</text>

  <line x1="280" y1="1150" x2="310" y2="1150" stroke="#185FA5" stroke-width="2" marker-end="url(#arrow2)"/>

  <!-- Phase 2 -->
  <rect x="310" y="1090" width="220" height="120" rx="8" fill="#EAF3DE" stroke="#639922" stroke-width="1.5"/>
  <rect x="310" y="1090" width="220" height="28" rx="8" fill="#639922"/>
  <text x="420" y="1109" text-anchor="middle" font-size="12" font-weight="600" fill="#ffffff">1-3月 变现期</text>
  <text x="420" y="1135" text-anchor="middle" font-size="11" fill="#495057">打包GEO方法论</text>
  <text x="420" y="1153" text-anchor="middle" font-size="11" fill="#495057">电商AI GEO诊断服务</text>
  <text x="420" y="1171" text-anchor="middle" font-size="11" fill="#495057">帮品牌做内容审计</text>
  <text x="420" y="1189" text-anchor="middle" font-size="11" fill="#6C757D">投入 方法总结+客户获取</text>
  <text x="420" y="1204" text-anchor="middle" font-size="11" fill="#3B6D11">产出 咨询费收入</text>

  <line x1="530" y1="1150" x2="560" y2="1150" stroke="#185FA5" stroke-width="2" marker-end="url(#arrow2)"/>

  <!-- Phase 3 -->
  <rect x="560" y="1090" width="220" height="120" rx="8" fill="#FAEEDA" stroke="#EF9F27" stroke-width="1.5"/>
  <rect x="560" y="1090" width="220" height="28" rx="8" fill="#EF9F27"/>
  <text x="670" y="1109" text-anchor="middle" font-size="12" font-weight="600" fill="#ffffff">3-6月 扩量期</text>
  <text x="670" y="1135" text-anchor="middle" font-size="11" fill="#495057">开发简易GEO监控工具</text>
  <text x="670" y="1153" text-anchor="middle" font-size="11" fill="#495057">自动检测AI引用频率</text>
  <text x="670" y="1171" text-anchor="middle" font-size="11" fill="#495057">竞品分析看板</text>
  <text x="670" y="1189" text-anchor="middle" font-size="11" fill="#6C757D">投入 SaaS开发+运维</text>
  <text x="670" y="1204" text-anchor="middle" font-size="11" fill="#854F0B">产出 SaaS订阅收入</text>

  <line x1="780" y1="1150" x2="810" y2="1150" stroke="#185FA5" stroke-width="2" marker-end="url(#arrow2)"/>

  <!-- Phase 4 -->
  <rect x="810" y="1090" width="135" height="120" rx="8" fill="#FBEAF0" stroke="#ED93B1" stroke-width="1.5"/>
  <rect x="810" y="1090" width="135" height="28" rx="8" fill="#ED93B1"/>
  <text x="877" y="1109" text-anchor="middle" font-size="12" font-weight="600" fill="#ffffff">6-12月</text>
  <text x="877" y="1135" text-anchor="middle" font-size="11" fill="#495057">咨询+SaaS</text>
  <text x="877" y="1153" text-anchor="middle" font-size="11" fill="#495057">双轮驱动</text>
  <text x="877" y="1171" text-anchor="middle" font-size="11" fill="#495057">最大议价权</text>
  <text x="877" y="1189" text-anchor="middle" font-size="11" fill="#6C757D">竞争加剧前</text>
  <text x="877" y="1204" text-anchor="middle" font-size="11" fill="#993556">建立壁垒</text>

  <!-- ===== FOOTER SUMMARY ===== -->
  <rect x="40" y="1240" width="920" height="55" rx="8" fill="#185FA5"/>
  <text x="500" y="1265" text-anchor="middle" font-size="14" font-weight="600" fill="#ffffff">总结 问题即机会</text>
  <text x="500" y="1285" text-anchor="middle" font-size="12" fill-opacity="0.85" fill="#ffffff">你发现的"AI引用不告知"和"AI内化内容"不是Bug，是留给先行者的市场空白。</text>

  <rect x="310" y="1310" width="380" height="28" rx="6" fill="#B5D4F4"/>
  <text x="500" y="1330" text-anchor="middle" font-size="12" font-weight="600" fill="#0C447C">时间窗口 最多 12-18 个月 和2012年公众号一样早进场吃肉</text>

  <!-- ===== AUTHOR INFO ===== -->
  <rect x="40" y="1355" width="920" height="92" rx="8" fill="#F0F4F8" stroke="#D0D7DE" stroke-width="1"/>
  <rect x="40" y="1355" width="920" height="28" rx="8" fill="#343A40"/>
  <text x="500" y="1374" text-anchor="middle" font-size="13" font-weight="600" fill="#ffffff">关于作者</text>

  <text x="500" y="1398" text-anchor="middle" font-size="11" fill="#212529" font-weight="600">海风  AI电商FDE（Forward Deployed Engineer）</text>
  <text x="500" y="1416" text-anchor="middle" font-size="10" fill="#495057">专注领域 AI视频生成技术 企业知识库搭建 电商ROI优化体系  LoRA模型训练  AIGC工作流落地</text>
  <text x="500" y="1436" text-anchor="middle" font-size="10" fill="#185FA5">内容资产库 https://github.com/frankhzh-source/hf-ai-articles  微信 frankhzheng</text>
</svg>
