<svg xmlns="http://www.w3.org/2000/svg" viewBox="0 0 680 1220" width="100%">
<defs>
  <marker id="arrow" viewBox="0 0 10 10" refX="8" refY="5" markerWidth="6" markerHeight="6" orient="auto-start-reverse">
    <path d="M2 1L8 5L2 9" fill="none" stroke="context-stroke" stroke-width="1.5" stroke-linecap="round" stroke-linejoin="round"/>
  </marker>
  <marker id="arr-gray" viewBox="0 0 10 10" refX="8" refY="5" markerWidth="6" markerHeight="6" orient="auto-start-reverse">
    <path d="M2 1L8 5L2 9" fill="none" stroke="#b0b0b0" stroke-width="1.5" stroke-linecap="round" stroke-linejoin="round"/>
  </marker>
  <style>
    .t{font-family:system-ui,-apple-system,sans-serif;font-size:13px;fill:#1f2937}
    .ts{font-family:system-ui,-apple-system,sans-serif;font-size:11px;fill:#6b7280}
    .th{font-family:system-ui,-apple-system,sans-serif;font-size:13px;font-weight:500;fill:#1f2937}
    .tsm{font-family:system-ui,-apple-system,sans-serif;font-size:10px;fill:#6b7280}
    .tw{font-family:system-ui,-apple-system,sans-serif;font-size:11px;fill:white}
  </style>
</defs>
<rect width="680" height="1220" fill="white"/>

<text class="th" x="340" y="22" text-anchor="middle" font-size="15">传统 LoRA 训练完整流程</text>
<text class="ts" x="340" y="38" text-anchor="middle">数据工程 环境 训练 测试 交付 — 五阶段标准工程指南</text>

<!-- ==================== Phase 1: 数据工程 ==================== -->
<rect x="30" y="60" width="620" height="335" rx="10" fill="#EEEDFE" stroke="#7F77DD" stroke-width="0.5"/>
<text class="th" x="340" y="84" text-anchor="middle" fill="#534AB7">Phase 1  数据工程（70% 工作量）</text>
<rect x="38" y="96" width="604" height="1.5" rx="1" fill="#CECBF6"/>

<!-- Stage A -->
<text class="th" x="48" y="110" text-anchor="start" fill="#3C3489" font-size="12">阶段A: 大库采集与基线锁定</text>
<text class="tsm" x="632" y="110" text-anchor="end" fill="#7F77DD">储备库 12.6万张 → 结构化清单</text>

<rect x="46" y="120" width="280" height="36" rx="6" fill="#CECBF6" stroke="#7F77DD" stroke-width="0.4"/>
<text class="th" x="186" y="135" text-anchor="middle" fill="#3C3489" font-size="12">全量扫描</text>
<text class="tsm" x="186" y="148" text-anchor="middle" fill="#534AB7">inventory.csv · 路径/格式/大小</text>

<rect x="356" y="120" width="278" height="36" rx="6" fill="#CECBF6" stroke="#7F77DD" stroke-width="0.4"/>
<text class="th" x="495" y="135" text-anchor="middle" fill="#3C3489" font-size="12">杂质清理</text>
<text class="tsm" x="495" y="148" text-anchor="middle" fill="#534AB7">剔除非图片 · Thumbs.db/PSD/MP4</text>

<rect x="46" y="164" width="280" height="36" rx="6" fill="#CECBF6" stroke="#7F77DD" stroke-width="0.4"/>
<text class="th" x="186" y="179" text-anchor="middle" fill="#3C3489" font-size="12">命名规则审计</text>
<text class="tsm" x="186" y="192" text-anchor="middle" fill="#534AB7">统计命名模式 · 摸清混乱程度</text>

<rect x="356" y="164" width="278" height="36" rx="6" fill="#CECBF6" stroke="#7F77DD" stroke-width="0.4"/>
<text class="th" x="495" y="179" text-anchor="middle" fill="#3C3489" font-size="12">质量预筛选</text>
<text class="tsm" x="495" y="192" text-anchor="middle" fill="#534AB7">模糊/过小/零字节/重复标记</text>

<path d="M340 206 L340 218" stroke="#7F77DD" stroke-width="1.2" marker-end="url(#arrow)" fill="none"/>

<!-- Stage B -->
<rect x="38" y="224" width="604" height="1.5" rx="1" fill="#CECBF6"/>
<text class="th" x="48" y="238" text-anchor="start" fill="#3C3489" font-size="12">阶段B: 训练集构建与验证</text>
<text class="tsm" x="632" y="238" text-anchor="end" fill="#7F77DD">视觉验证兜底 → 每品类精选</text>

<rect x="46" y="248" width="280" height="36" rx="6" fill="#CECBF6" stroke="#7F77DD" stroke-width="0.4"/>
<text class="th" x="186" y="263" text-anchor="middle" fill="#3C3489" font-size="12">CLIP 语义聚类</text>
<text class="tsm" x="186" y="276" text-anchor="middle" fill="#534AB7">Chinese-CLIP 自动分组 · 解决多创作者命名乱</text>

<rect x="356" y="248" width="278" height="36" rx="6" fill="#CECBF6" stroke="#7F77DD" stroke-width="0.4"/>
<text class="th" x="495" y="263" text-anchor="middle" fill="#3C3489" font-size="12">类目映射与审核</text>
<text class="tsm" x="495" y="276" text-anchor="middle" fill="#534AB7">机器分组 → 你审核映射品类标签</text>

<rect x="46" y="292" width="280" height="36" rx="6" fill="#AFA9EC" stroke="#7F77DD" stroke-width="0.4"/>
<text class="th" x="186" y="307" text-anchor="middle" fill="#3C3489" font-size="12">每品类精选</text>
<text class="tsm" x="186" y="320" text-anchor="middle" fill="#534AB7">均衡质量/视角/背景 → 30-200 张/品类</text>

<rect x="356" y="292" width="278" height="36" rx="6" fill="#AFA9EC" stroke="#7F77DD" stroke-width="0.4"/>
<text class="th" x="495" y="307" text-anchor="middle" fill="#3C3489" font-size="12">QC 验收</text>
<text class="tsm" x="495" y="320" text-anchor="middle" fill="#534AB7">去重 / 污染检查 / 词频分析</text>

<path d="M340 334 L340 344" stroke="#7F77DD" stroke-width="1.2" marker-end="url(#arrow)" fill="none"/>

<!-- Captioning + Split -->
<rect x="46" y="350" width="280" height="32" rx="6" fill="#CECBF6" stroke="#7F77DD" stroke-width="0.4"/>
<text class="th" x="186" y="365" text-anchor="middle" fill="#3C3489" font-size="12">标注 Captioning</text>
<text class="tsm" x="186" y="376" text-anchor="middle" fill="#534AB7">FLUX 纯自然语言 40-100 词</text>

<rect x="356" y="350" width="278" height="32" rx="6" fill="#CECBF6" stroke="#7F77DD" stroke-width="0.4"/>
<text class="th" x="495" y="365" text-anchor="middle" fill="#3C3489" font-size="12">数据集拆分</text>
<text class="tsm" x="495" y="376" text-anchor="middle" fill="#534AB7">train/ (80-90%)  ↔  val/ (10-20%)</text>

<!-- ==================== Phase 2: 环境配置 ==================== -->
<path d="M340 405 L340 420" stroke="#b0b0b0" stroke-width="1.2" marker-end="url(#arr-gray)" fill="none"/>

<rect x="30" y="425" width="620" height="100" rx="10" fill="#E1F5EE" stroke="#1D9E75" stroke-width="0.5"/>
<text class="th" x="340" y="447" text-anchor="middle" fill="#0F6E56">Phase 2  环境配置</text>

<rect x="46" y="462" width="180" height="34" rx="6" fill="#9FE1CB" stroke="#1D9E75" stroke-width="0.4"/>
<text class="th" x="136" y="479" text-anchor="middle" fill="#085041" font-size="12">硬件检查</text>
<text class="tsm" x="136" y="491" text-anchor="middle" fill="#0F6E56">GPU >= 16GB</text>

<rect x="246" y="462" width="180" height="34" rx="6" fill="#9FE1CB" stroke="#1D9E75" stroke-width="0.4"/>
<text class="th" x="336" y="479" text-anchor="middle" fill="#085041" font-size="12">框架选择</text>
<text class="tsm" x="336" y="491" text-anchor="middle" fill="#0F6E56">Kohya / AI-ToolKit</text>

<rect x="446" y="462" width="185" height="34" rx="6" fill="#9FE1CB" stroke="#1D9E75" stroke-width="0.4"/>
<text class="th" x="538" y="479" text-anchor="middle" fill="#085041" font-size="12">参数初始化</text>
<text class="tsm" x="538" y="491" text-anchor="middle" fill="#0F6E56">LR 1e-4 / rank 32-64</text>

<path d="M226 479 L246 479" stroke="#1D9E75" stroke-width="1.2" marker-end="url(#arrow)" fill="none"/>
<path d="M426 479 L446 479" stroke="#1D9E75" stroke-width="1.2" marker-end="url(#arrow)" fill="none"/>

<rect x="46" y="505" width="585" height="18" rx="5" fill="#5DCAA5" stroke="#1D9E75" stroke-width="0.3"/>
<text class="tsm" x="338" y="517" text-anchor="middle" fill="#085041">Precheck: 路径 → caption → 模型加载 → 1-step → 5-step loss</text>

<!-- ==================== Phase 3: 训练执行 ==================== -->
<path d="M340 535 L340 548" stroke="#b0b0b0" stroke-width="1.2" marker-end="url(#arr-gray)" fill="none"/>

<rect x="30" y="553" width="620" height="100" rx="10" fill="#FAEEDA" stroke="#BA7517" stroke-width="0.5"/>
<text class="th" x="340" y="575" text-anchor="middle" fill="#854F0B">Phase 3  训练执行</text>

<rect x="46" y="590" width="185" height="36" rx="6" fill="#FAC775" stroke="#BA7517" stroke-width="0.4"/>
<text class="th" x="138" y="608" text-anchor="middle" fill="#633806" font-size="12">多段训练</text>
<text class="tsm" x="138" y="620" text-anchor="middle" fill="#854F0B">适应 → 主训 → 调优</text>

<rect x="251" y="590" width="185" height="36" rx="6" fill="#FAC775" stroke="#BA7517" stroke-width="0.4"/>
<text class="th" x="343" y="608" text-anchor="middle" fill="#633806" font-size="12">Loss 监控</text>
<text class="tsm" x="343" y="620" text-anchor="middle" fill="#854F0B">1.0 → 0.3 → 0.15</text>

<rect x="456" y="590" width="175" height="36" rx="6" fill="#FAC775" stroke="#BA7517" stroke-width="0.4"/>
<text class="th" x="543" y="608" text-anchor="middle" fill="#633806" font-size="12">中间保存</text>
<text class="tsm" x="543" y="620" text-anchor="middle" fill="#854F0B">每 100-200 steps</text>

<path d="M231 608 L251 608" stroke="#BA7517" stroke-width="1.2" marker-end="url(#arrow)" fill="none"/>
<path d="M436 608 L456 608" stroke="#BA7517" stroke-width="1.2" marker-end="url(#arrow)" fill="none"/>

<rect x="46" y="635" width="585" height="16" rx="5" fill="#EF9F27" stroke="#BA7517" stroke-width="0.3"/>
<text class="tsm" x="338" y="646" text-anchor="middle" fill="white">震荡=LR太高 / 不降=数据问题 / 飙升=OOM</text>

<!-- ==================== Phase 4: 测试验证 ==================== -->
<path d="M340 662 L340 675" stroke="#b0b0b0" stroke-width="1.2" marker-end="url(#arr-gray)" fill="none"/>

<rect x="30" y="680" width="620" height="100" rx="10" fill="#E6F1FB" stroke="#378ADD" stroke-width="0.5"/>
<text class="th" x="340" y="702" text-anchor="middle" fill="#185FA5">Phase 4  测试验证（最容易被跳过）</text>

<rect x="46" y="717" width="270" height="36" rx="6" fill="#B5D4F4" stroke="#378ADD" stroke-width="0.4"/>
<text class="th" x="181" y="735" text-anchor="middle" fill="#0C447C" font-size="12">推理测试</text>
<text class="tsm" x="181" y="747" text-anchor="middle" fill="#185FA5">每个 CP 统一 prompt 生成 8 张</text>

<rect x="336" y="717" width="270" height="36" rx="6" fill="#B5D4F4" stroke="#378ADD" stroke-width="0.4"/>
<text class="th" x="471" y="735" text-anchor="middle" fill="#0C447C" font-size="12">五维评分筛选</text>
<text class="tsm" x="471" y="747" text-anchor="middle" fill="#185FA5">一致性/细节/背景/跟随/材质</text>

<path d="M316 735 L336 735" stroke="#378ADD" stroke-width="1.2" marker-end="url(#arrow)" fill="none"/>

<rect x="46" y="760" width="560" height="16" rx="5" fill="#85B7EB" stroke="#378ADD" stroke-width="0.3"/>
<text class="tsm" x="326" y="771" text-anchor="middle" fill="#0C447C">每个检查点 8 张图 → 五维打分 → 选总分最高的权重</text>

<!-- ==================== Phase 5: 交付与迭代 ==================== -->
<path d="M340 788 L340 801" stroke="#b0b0b0" stroke-width="1.2" marker-end="url(#arr-gray)" fill="none"/>

<rect x="30" y="806" width="620" height="85" rx="10" fill="#EAF3DE" stroke="#639922" stroke-width="0.5"/>
<text class="th" x="340" y="828" text-anchor="middle" fill="#3B6D11">Phase 5  交付与迭代</text>

<rect x="46" y="842" width="180" height="34" rx="6" fill="#C0DD97" stroke="#639922" stroke-width="0.4"/>
<text class="th" x="136" y="859" text-anchor="middle" fill="#27500A" font-size="12">权重归档</text>
<text class="tsm" x="136" y="871" text-anchor="middle" fill="#3B6D11">最佳 .safetensors</text>

<rect x="246" y="842" width="180" height="34" rx="6" fill="#C0DD97" stroke="#639922" stroke-width="0.4"/>
<text class="th" x="336" y="859" text-anchor="middle" fill="#27500A" font-size="12">参数可复现</text>
<text class="tsm" x="336" y="871" text-anchor="middle" fill="#3B6D11">config.yaml</text>

<rect x="446" y="842" width="185" height="34" rx="6" fill="#C0DD97" stroke="#639922" stroke-width="0.4"/>
<text class="th" x="538" y="859" text-anchor="middle" fill="#27500A" font-size="12">训练日志</text>
<text class="tsm" x="538" y="871" text-anchor="middle" fill="#3B6D11">loss + 踩坑记录</text>

<path d="M226 859 L246 859" stroke="#639922" stroke-width="1.2" marker-end="url(#arrow)" fill="none"/>
<path d="M426 859 L446 859" stroke="#639922" stroke-width="1.2" marker-end="url(#arrow)" fill="none"/>

<!-- ==================== Core Principle ==================== -->
<rect x="30" y="905" width="620" height="55" rx="8" fill="#FCEBEB" stroke="#E24B4A" stroke-width="0.5"/>
<text class="th" x="340" y="926" text-anchor="middle" fill="#A32D2D">核心原则：局部完成 ≠ 整体完成</text>
<text class="ts" x="340" y="944" text-anchor="middle" fill="#A32D2D">定标准 → 逐级验收 → 通过 → 下一步    跳过任一阶段 = 返工</text>

<!-- ==================== Parameter Reference ==================== -->
<rect x="30" y="975" width="620" height="175" rx="8" fill="#F1EFE8" stroke="#888780" stroke-width="0.5"/>
<text class="th" x="340" y="998" text-anchor="middle" fill="#444441">训练参数速查（FLUX LoRA）</text>

<rect x="46" y="1012" width="288" height="24" rx="5" fill="#D3D1C7" stroke="#888780" stroke-width="0.3"/>
<text class="tsm" x="53" y="1028" fill="#444441">resolution: 1024x1024</text>

<rect x="350" y="1012" width="288" height="24" rx="5" fill="#D3D1C7" stroke="#888780" stroke-width="0.3"/>
<text class="tsm" x="357" y="1028" fill="#444441">batch_size: 2-4</text>

<rect x="46" y="1042" width="288" height="24" rx="5" fill="#D3D1C7" stroke="#888780" stroke-width="0.3"/>
<text class="tsm" x="53" y="1058" fill="#444441">learning_rate: 1e-4</text>

<rect x="350" y="1042" width="288" height="24" rx="5" fill="#D3D1C7" stroke="#888780" stroke-width="0.3"/>
<text class="tsm" x="357" y="1058" fill="#444441">lr_scheduler: cosine</text>

<rect x="46" y="1072" width="288" height="24" rx="5" fill="#D3D1C7" stroke="#888780" stroke-width="0.3"/>
<text class="tsm" x="53" y="1088" fill="#444441">train_steps: 800-2000</text>

<rect x="350" y="1072" width="288" height="24" rx="5" fill="#D3D1C7" stroke="#888780" stroke-width="0.3"/>
<text class="tsm" x="357" y="1088" fill="#444441">rank: 32-64</text>

<rect x="46" y="1102" width="288" height="24" rx="5" fill="#D3D1C7" stroke="#888780" stroke-width="0.3"/>
<text class="tsm" x="53" y="1118" fill="#444441">optimizer: AdamW8bit</text>

<rect x="350" y="1102" width="288" height="24" rx="5" fill="#D3D1C7" stroke="#888780" stroke-width="0.3"/>
<text class="tsm" x="357" y="1118" fill="#444441">precision: bf16</text>

<rect x="46" y="1132" width="288" height="24" rx="5" fill="#D3D1C7" stroke="#888780" stroke-width="0.3"/>
<text class="tsm" x="53" y="1148" fill="#444441">save_every_n_steps: 100-200</text>

<rect x="350" y="1132" width="288" height="24" rx="5" fill="#D3D1C7" stroke="#888780" stroke-width="0.3"/>
<text class="tsm" x="357" y="1148" fill="#444441">max_grad_norm: 1.0</text>

<!-- ==================== Author ==================== -->
<text class="ts" x="340" y="1200" text-anchor="middle" fill="#888780">海风老师 | AI技术咨询 / LoRA模型训练 / 电商AI落地 · 微信：frankhzheng</text>
</svg>
