<svg xmlns="http://www.w3.org/2000/svg" viewBox="0 0 680 1560" width="100%">
<defs>
  <marker id="arrow" viewBox="0 0 10 10" refX="8" refY="5" markerWidth="6" markerHeight="6" orient="auto-start-reverse">
    <path d="M2 1L8 5L2 9" fill="none" stroke="context-stroke" stroke-width="1.5" stroke-linecap="round" stroke-linejoin="round"/>
  </marker>
  <style>
    .t{font-family:system-ui,-apple-system,sans-serif;font-size:14px;fill:#1f2937}
    .ts{font-family:system-ui,-apple-system,sans-serif;font-size:12px;fill:#6b7280}
    .th{font-family:system-ui,-apple-system,sans-serif;font-size:14px;font-weight:500;fill:#1f2937}
  </style>
</defs>
<rect width="680" height="1560" fill="white"/>
<text class="th" x="340" y="30" text-anchor="middle">LoRA 训练图片采集工具全景</text>
<text class="ts" x="340" y="48" text-anchor="middle">来源 采集 预处理 打标 打包 — 全链路工具链</text>
<rect x="40" y="70" width="600" height="350" rx="12" fill="#EEEDFE" stroke="#7F77DD" stroke-width="0.5"/>
<text class="th" x="340" y="96" text-anchor="middle" fill="#534AB7">图片来源分类</text>
<rect x="56" y="112" width="175" height="56" rx="8" fill="#CECBF6" stroke="#7F77DD" stroke-width="0.5"/>
<text class="th" x="143" y="134" text-anchor="middle" fill="#3C3489">小红书</text>
<text class="ts" x="143" y="150" text-anchor="middle" fill="#534AB7">穿搭博主实拍</text>
<rect x="247" y="112" width="175" height="56" rx="8" fill="#CECBF6" stroke="#7F77DD" stroke-width="0.5"/>
<text class="th" x="334" y="134" text-anchor="middle" fill="#3C3489">电商平台</text>
<text class="ts" x="334" y="150" text-anchor="middle" fill="#534AB7">京东/淘宝/1688</text>
<rect x="438" y="112" width="175" height="56" rx="8" fill="#CECBF6" stroke="#7F77DD" stroke-width="0.5"/>
<text class="th" x="525" y="134" text-anchor="middle" fill="#3C3489">品牌官网</text>
<text class="ts" x="525" y="150" text-anchor="middle" fill="#534AB7">La Perla/桑罗</text>
<rect x="56" y="184" width="175" height="56" rx="8" fill="#CECBF6" stroke="#7F77DD" stroke-width="0.5"/>
<text class="th" x="143" y="206" text-anchor="middle" fill="#3C3489">Pinterest</text>
<text class="ts" x="143" y="222" text-anchor="middle" fill="#534AB7">穿搭风格参考</text>
<rect x="247" y="184" width="175" height="56" rx="8" fill="#CECBF6" stroke="#7F77DD" stroke-width="0.5"/>
<text class="th" x="334" y="206" text-anchor="middle" fill="#3C3489">Instagram</text>
<text class="ts" x="334" y="222" text-anchor="middle" fill="#534AB7">博主实穿场景</text>
<rect x="438" y="184" width="175" height="56" rx="8" fill="#CECBF6" stroke="#7F77DD" stroke-width="0.5"/>
<text class="th" x="525" y="206" text-anchor="middle" fill="#3C3489">抖音商品页</text>
<text class="ts" x="525" y="222" text-anchor="middle" fill="#534AB7">场景自然光线</text>
<rect x="56" y="260" width="270" height="72" rx="8" fill="#AFA9EC" stroke="#7F77DD" stroke-width="0.5"/>
<text class="th" x="191" y="282" text-anchor="middle" fill="#3C3489">少女甜系 / 纯欲性感</text>
<text class="ts" x="191" y="298" text-anchor="middle" fill="#534AB7">小红书搜品牌/品类</text>
<text class="ts" x="191" y="314" text-anchor="middle" fill="#534AB7">京东商品模特图</text>
<rect x="350" y="260" width="270" height="72" rx="8" fill="#AFA9EC" stroke="#7F77DD" stroke-width="0.5"/>
<text class="th" x="485" y="282" text-anchor="middle" fill="#3C3489">新中式 / 老娘客</text>
<text class="ts" x="485" y="298" text-anchor="middle" fill="#534AB7">抖音/淘宝 搜场景</text>
<text class="ts" x="485" y="314" text-anchor="middle" fill="#534AB7">品牌官网截图</text>
<rect x="56" y="346" width="560" height="56" rx="8" fill="#CECBF6" stroke="#7F77DD" stroke-width="0.5"/>
<text class="th" x="336" y="368" text-anchor="middle" fill="#3C3489">关键：不混入 AI 生成图 / 礼盒图 / 平铺图 / 多人图</text>
<path d="M340 420 L340 440" stroke="#9ca3af" stroke-width="1.5" marker-end="url(#arrow)" fill="none"/>
<rect x="40" y="450" width="600" height="230" rx="12" fill="#E1F5EE" stroke="#1D9E75" stroke-width="0.5"/>
<text class="th" x="340" y="476" text-anchor="middle" fill="#0F6E56">采集工具对比</text>
<rect x="56" y="492" width="175" height="56" rx="8" fill="#9FE1CB" stroke="#1D9E75" stroke-width="0.5"/>
<text class="th" x="143" y="514" text-anchor="middle" fill="#085041">RedHelper</text>
<text class="ts" x="143" y="530" text-anchor="middle" fill="#0F6E56">Edge插件 小红书</text>
<rect x="247" y="492" width="175" height="56" rx="8" fill="#9FE1CB" stroke="#1D9E75" stroke-width="0.5"/>
<text class="th" x="334" y="514" text-anchor="middle" fill="#085041">八爪鱼RPA</text>
<text class="ts" x="334" y="530" text-anchor="middle" fill="#0F6E56">可视化批量采集</text>
<rect x="438" y="492" width="175" height="56" rx="8" fill="#9FE1CB" stroke="#1D9E75" stroke-width="0.5"/>
<text class="th" x="525" y="514" text-anchor="middle" fill="#085041">Python脚本</text>
<text class="ts" x="525" y="530" text-anchor="middle" fill="#0F6E56">自定义灵活性最高</text>
<rect x="56" y="562" width="175" height="56" rx="8" fill="#9FE1CB" stroke="#1D9E75" stroke-width="0.5"/>
<text class="th" x="143" y="584" text-anchor="middle" fill="#085041">ImageDownloader</text>
<text class="ts" x="143" y="600" text-anchor="middle" fill="#0F6E56">浏览器插件 存页内图</text>
<rect x="247" y="562" width="175" height="56" rx="8" fill="#5DCAA5" stroke="#1D9E75" stroke-width="0.5"/>
<text class="th" x="334" y="584" text-anchor="middle" fill="#085041">手动保存</text>
<text class="ts" x="334" y="600" text-anchor="middle" fill="#0F6E56">质量最高 但最慢</text>
<rect x="438" y="562" width="175" height="56" rx="8" fill="#9FE1CB" stroke="#1D9E75" stroke-width="0.5"/>
<text class="th" x="525" y="584" text-anchor="middle" fill="#085041">4K Stogram</text>
<text class="ts" x="525" y="600" text-anchor="middle" fill="#0F6E56">Instagram采集</text>
<path d="M340 680 L340 700" stroke="#9ca3af" stroke-width="1.5" marker-end="url(#arrow)" fill="none"/>
<rect x="40" y="710" width="600" height="200" rx="12" fill="#FAEEDA" stroke="#BA7517" stroke-width="0.5"/>
<text class="th" x="340" y="736" text-anchor="middle" fill="#854F0B">预处理全流程</text>
<rect x="56" y="752" width="110" height="44" rx="8" fill="#FAC775" stroke="#BA7517" stroke-width="0.5"/>
<text class="th" x="111" y="774" text-anchor="middle" fill="#633806">人工筛选</text>
<rect x="182" y="752" width="110" height="44" rx="8" fill="#FAC775" stroke="#BA7517" stroke-width="0.5"/>
<text class="th" x="237" y="774" text-anchor="middle" fill="#633806">批量裁剪</text>
<rect x="308" y="752" width="110" height="44" rx="8" fill="#FAC775" stroke="#BA7517" stroke-width="0.5"/>
<text class="th" x="363" y="774" text-anchor="middle" fill="#633806">缩放到1024</text>
<rect x="434" y="752" width="110" height="44" rx="8" fill="#FAC775" stroke="#BA7517" stroke-width="0.5"/>
<text class="th" x="489" y="774" text-anchor="middle" fill="#633806">去重去水印</text>
<rect x="560" y="752" width="60" height="44" rx="8" fill="#FAC775" stroke="#BA7517" stroke-width="0.5"/>
<text class="ts" x="590" y="774" text-anchor="middle" fill="#633806">QC</text>
<path d="M166 774 L182 774" stroke="#BA7517" stroke-width="1.5" marker-end="url(#arrow)" fill="none"/>
<path d="M292 774 L308 774" stroke="#BA7517" stroke-width="1.5" marker-end="url(#arrow)" fill="none"/>
<path d="M418 774 L434 774" stroke="#BA7517" stroke-width="1.5" marker-end="url(#arrow)" fill="none"/>
<path d="M544 774 L560 774" stroke="#BA7517" stroke-width="1.5" marker-end="url(#arrow)" fill="none"/>
<rect x="56" y="810" width="270" height="44" rx="8" fill="#EF9F27" stroke="#BA7517" stroke-width="0.5"/>
<text class="th" x="191" y="832" text-anchor="middle" fill="white">推荐: XnConvert</text>
<text class="ts" x="191" y="846" text-anchor="middle" fill="#fef3c7">可视化批量 1:1 方形裁剪 + 缩放 1024</text>
<rect x="340" y="810" width="270" height="44" rx="8" fill="#EF9F27" stroke="#BA7517" stroke-width="0.5"/>
<text class="th" x="475" y="832" text-anchor="middle" fill="white">备选: ImageMagick</text>
<text class="ts" x="475" y="846" text-anchor="middle" fill="#fef3c7">Python批处理脚本 可加校色</text>
<path d="M340 910 L340 930" stroke="#9ca3af" stroke-width="1.5" marker-end="url(#arrow)" fill="none"/>
<rect x="40" y="940" width="600" height="200" rx="12" fill="#E6F1FB" stroke="#378ADD" stroke-width="0.5"/>
<text class="th" x="340" y="966" text-anchor="middle" fill="#185FA5">标注（Caption）工具对比</text>
<rect x="56" y="982" width="175" height="56" rx="8" fill="#B5D4F4" stroke="#378ADD" stroke-width="0.5"/>
<text class="th" x="143" y="1004" text-anchor="middle" fill="#0C447C">WD14 Tagger</text>
<text class="ts" x="143" y="1020" text-anchor="middle" fill="#185FA5">Booru标签 FLUX不适用</text>
<rect x="247" y="982" width="175" height="56" rx="8" fill="#B5D4F4" stroke="#378ADD" stroke-width="0.5"/>
<text class="th" x="334" y="1004" text-anchor="middle" fill="#0C447C">JoyCaption</text>
<text class="ts" x="334" y="1020" text-anchor="middle" fill="#185FA5">免费 自动自然语言描述</text>
<rect x="438" y="982" width="175" height="56" rx="8" fill="#B5D4F4" stroke="#378ADD" stroke-width="0.5"/>
<text class="th" x="525" y="1004" text-anchor="middle" fill="#0C447C">BLIP-2</text>
<text class="ts" x="525" y="1020" text-anchor="middle" fill="#185FA5">可做基线 短句风格</text>
<rect x="56" y="1052" width="270" height="44" rx="8" fill="#85B7EB" stroke="#378ADD" stroke-width="0.5"/>
<text class="th" x="191" y="1074" text-anchor="middle" fill="#0C447C">最佳方案：JoyCaption + 人工精修</text>
<rect x="340" y="1052" width="270" height="44" rx="8" fill="#85B7EB" stroke="#378ADD" stroke-width="0.5"/>
<text class="th" x="475" y="1074" text-anchor="middle" fill="#0C447C">FLUX必须用 自然语言 40-100词</text>
<path d="M340 1140 L340 1160" stroke="#9ca3af" stroke-width="1.5" marker-end="url(#arrow)" fill="none"/>
<rect x="40" y="1170" width="600" height="130" rx="12" fill="#EAF3DE" stroke="#639922" stroke-width="0.5"/>
<text class="th" x="340" y="1196" text-anchor="middle" fill="#3B6D11">推荐工具管线（服装 LoRA）</text>
<rect x="56" y="1212" width="85" height="44" rx="8" fill="#C0DD97" stroke="#639922" stroke-width="0.5"/>
<text class="ts" x="98" y="1234" text-anchor="middle" fill="#27500A">RedHelper</text>
<rect x="153" y="1212" width="55" height="44" rx="8" fill="#C0DD97" stroke="#639922" stroke-width="0.5"/>
<text class="ts" x="180" y="1234" text-anchor="middle" fill="#27500A">手动</text>
<rect x="220" y="1212" width="70" height="44" rx="8" fill="#C0DD97" stroke="#639922" stroke-width="0.5"/>
<text class="ts" x="255" y="1234" text-anchor="middle" fill="#27500A">XnConvert</text>
<rect x="302" y="1212" width="70" height="44" rx="8" fill="#C0DD97" stroke="#639922" stroke-width="0.5"/>
<text class="ts" x="337" y="1234" text-anchor="middle" fill="#27500A">JoyCaption</text>
<rect x="384" y="1212" width="55" height="44" rx="8" fill="#C0DD97" stroke="#639922" stroke-width="0.5"/>
<text class="ts" x="411" y="1234" text-anchor="middle" fill="#27500A">人工</text>
<rect x="451" y="1212" width="55" height="44" rx="8" fill="#97C459" stroke="#639922" stroke-width="0.5"/>
<text class="ts" x="478" y="1234" text-anchor="middle" fill="white">Codex</text>
<rect x="518" y="1212" width="100" height="44" rx="8" fill="#97C459" stroke="#639922" stroke-width="0.5"/>
<text class="ts" x="568" y="1234" text-anchor="middle" fill="white">权重出炉</text>
<path d="M141 1234 L153 1234" stroke="#639922" stroke-width="1.5" marker-end="url(#arrow)" fill="none"/>
<path d="M208 1234 L220 1234" stroke="#639922" stroke-width="1.5" marker-end="url(#arrow)" fill="none"/>
<path d="M290 1234 L302 1234" stroke="#639922" stroke-width="1.5" marker-end="url(#arrow)" fill="none"/>
<path d="M372 1234 L384 1234" stroke="#639922" stroke-width="1.5" marker-end="url(#arrow)" fill="none"/>
<path d="M439 1234 L451 1234" stroke="#639922" stroke-width="1.5" marker-end="url(#arrow)" fill="none"/>
<path d="M506 1234 L518 1234" stroke="#639922" stroke-width="1.5" marker-end="url(#arrow)" fill="none"/>
<text class="ts" x="340" y="1280" text-anchor="middle" fill="#3B6D11">采集(10min) -> 筛选(15min) -> 裁剪(5min) -> 打标(20min) -> 精修(20min) -> 训练</text>
<text class="ts" x="340" y="1320" text-anchor="middle" fill="#888780">—</text>
<text class="ts" x="340" y="1340" text-anchor="middle" fill="#5F5E5A">作者信息</text>
<text class="t" x="340" y="1362" text-anchor="middle" fill="#444441">海风老师 | AI技术咨询 / LoRA模型训练 / 电商AI落地</text>
<text class="ts" x="340" y="1380" text-anchor="middle" fill="#888780">微信：frankhzheng</text>
</svg>