<svg xmlns="http://www.w3.org/2000/svg" viewBox="0 0 680 1480" width="100%">
<defs>
  <marker id="arrow" viewBox="0 0 10 10" refX="8" refY="5" markerWidth="6" markerHeight="6" orient="auto-start-reverse">
    <path d="M2 1L8 5L2 9" fill="none" stroke="context-stroke" stroke-width="1.5" stroke-linecap="round" stroke-linejoin="round"/>
  </marker>
  <marker id="arr-purple" viewBox="0 0 10 10" refX="8" refY="5" markerWidth="6" markerHeight="6" orient="auto-start-reverse">
    <path d="M2 1L8 5L2 9" fill="none" stroke="#7F77DD" stroke-width="1.5" stroke-linecap="round" stroke-linejoin="round"/>
  </marker>
  <marker id="arr-teal" viewBox="0 0 10 10" refX="8" refY="5" markerWidth="6" markerHeight="6" orient="auto-start-reverse">
    <path d="M2 1L8 5L2 9" fill="none" stroke="#1D9E75" stroke-width="1.5" stroke-linecap="round" stroke-linejoin="round"/>
  </marker>
  <style>
    .t{font-family:system-ui,-apple-system,sans-serif;font-size:14px;fill:#1f2937}
    .ts{font-family:system-ui,-apple-system,sans-serif;font-size:12px;fill:#6b7280}
    .th{font-family:system-ui,-apple-system,sans-serif;font-size:14px;font-weight:500;fill:#1f2937}
    .tsm{font-family:system-ui,-apple-system,sans-serif;font-size:11px;fill:#6b7280}
    .tw{font-family:system-ui,-apple-system,sans-serif;font-size:11px;fill:white}
  </style>
</defs>
<rect width="680" height="1480" fill="white"/>
<text class="th" x="340" y="26" text-anchor="middle">LoRA 工作量重新布局</text>
<text class="ts" x="340" y="44" text-anchor="middle">商品正反图 → 人物三视图(不同人物) → 多模特多场景 · 系统最优工作流</text>

<!-- Layer 1 -->
<rect x="30" y="62" width="620" height="260" rx="12" fill="#EEEDFE" stroke="#7F77DD" stroke-width="0.5"/>
<text class="th" x="340" y="86" text-anchor="middle" fill="#534AB7">Layer 1  商品正反图（基础层）</text>
<text class="tsm" x="632" y="86" text-anchor="end" fill="#7F77DD">每个SKU 2-4张 · 平铺/挂拍</text>
<rect x="38" y="96" width="604" height="1.5" rx="1" fill="#CECBF6"/>

<rect x="46" y="110" width="175" height="130" rx="8" fill="#CECBF6" stroke="#7F77DD" stroke-width="0.4"/>
<text class="th" x="133" y="135" text-anchor="middle" fill="#3C3489" font-size="12">正面平铺</text>
<text class="tsm" x="133" y="152" text-anchor="middle" fill="#534AB7">上衣 + 裤子分开</text>
<text class="tsm" x="133" y="168" text-anchor="middle" fill="#534AB7">纯白背景</text>
<text class="tsm" x="133" y="184" text-anchor="middle" fill="#534AB7">1024×1024</text>
<text class="tsm" x="133" y="210" text-anchor="middle" fill="#7F77DD" font-size="10">参考图1 左侧</text>
<text class="tsm" x="133" y="228" text-anchor="middle" fill="#534AB7" font-size="10">用途: ControlNet参考</text>

<rect x="237" y="110" width="175" height="130" rx="8" fill="#CECBF6" stroke="#7F77DD" stroke-width="0.4"/>
<text class="th" x="324" y="135" text-anchor="middle" fill="#3C3489" font-size="12">背面平铺</text>
<text class="tsm" x="324" y="152" text-anchor="middle" fill="#534AB7">上衣 + 裤子分开</text>
<text class="tsm" x="324" y="168" text-anchor="middle" fill="#534AB7">纯白背景</text>
<text class="tsm" x="324" y="184" text-anchor="middle" fill="#534AB7">1024×1024</text>
<text class="tsm" x="324" y="210" text-anchor="middle" fill="#7F77DD" font-size="10">参考图1 右侧</text>
<text class="tsm" x="324" y="228" text-anchor="middle" fill="#534AB7" font-size="10">用途: 结构学习基线</text>

<rect x="428" y="110" width="206" height="130" rx="8" fill="#AFA9EC" stroke="#534AB7" stroke-width="0.5"/>
<text class="th" x="531" y="132" text-anchor="middle" fill="#3C3489" font-size="12">商品图采集标准</text>
<text class="tsm" x="531" y="152" text-anchor="middle" fill="#3C3489">每SKU: 正面+背面=2张起</text>
<text class="tsm" x="531" y="168" text-anchor="middle" fill="#3C3489">有套装则上下装分拍</text>
<text class="tsm" x="531" y="184" text-anchor="middle" fill="#3C3489">分辨率 ≥ 1000px</text>
<text class="tsm" x="531" y="200" text-anchor="middle" fill="#3C3489">无水印/无模特遮挡</text>
<text class="tsm" x="531" y="220" text-anchor="middle" fill="#534AB7">来源: 1688/品牌官网</text>

<rect x="46" y="250" width="280" height="28" rx="6" fill="#CECBF6" stroke="#7F77DD" stroke-width="0.3"/>
<text class="tsm" x="56" y="268" fill="#3C3489">工作量: 约 50-100 张/SKU系列</text>
<rect x="340" y="250" width="294" height="28" rx="6" fill="#CECBF6" stroke="#7F77DD" stroke-width="0.3"/>
<text class="tsm" x="350" y="268" fill="#3C3489">占比: 总工作量 15% · 但影响后续所有层</text>

<path d="M340 330 L340 355" stroke="#7F77DD" stroke-width="1.8" marker-end="url(#arr-purple)" fill="none"/>
<text class="tsm" x="360" y="346" fill="#7F77DD">基于商品选模特</text>

<!-- Layer 2 -->
<rect x="30" y="365" width="620" height="380" rx="12" fill="#E1F5EE" stroke="#1D9E75" stroke-width="0.5"/>
<text class="th" x="340" y="389" text-anchor="middle" fill="#0F6E56">Layer 2  人物三视图（核心层 · 按人物划分）</text>
<text class="tsm" x="632" y="389" text-anchor="end" fill="#1D9E75">每人物 9-15张 · 正/侧/背 × 多姿态</text>
<rect x="38" y="399" width="604" height="1.5" rx="1" fill="#9FE1CB"/>

<text class="th" x="46" y="418" text-anchor="start" fill="#085041" font-size="12">人物 A（主模特）</text>
<rect x="46" y="428" width="120" height="70" rx="6" fill="#9FE1CB" stroke="#1D9E75" stroke-width="0.4"/>
<text class="th" x="106" y="450" text-anchor="middle" fill="#085041" font-size="11">正面全身</text>
<text class="tsm" x="106" y="466" text-anchor="middle" fill="#0F6E56">3-5张</text>
<text class="tsm" x="106" y="484" text-anchor="middle" fill="#1D9E75" font-size="9">站姿/微侧</text>

<rect x="176" y="428" width="120" height="70" rx="6" fill="#9FE1CB" stroke="#1D9E75" stroke-width="0.4"/>
<text class="th" x="236" y="450" text-anchor="middle" fill="#085041" font-size="11">侧面45°</text>
<text class="tsm" x="236" y="466" text-anchor="middle" fill="#0F6E56">2-3张</text>
<text class="tsm" x="236" y="484" text-anchor="middle" fill="#1D9E75" font-size="9">左/右侧</text>

<rect x="306" y="428" width="120" height="70" rx="6" fill="#9FE1CB" stroke="#1D9E75" stroke-width="0.4"/>
<text class="th" x="366" y="450" text-anchor="middle" fill="#085041" font-size="11">背面全身</text>
<text class="tsm" x="366" y="466" text-anchor="middle" fill="#0F6E56">2-3张</text>
<text class="tsm" x="366" y="484" text-anchor="middle" fill="#1D9E75" font-size="9">完整背影</text>

<rect x="436" y="428" width="95" height="70" rx="6" fill="#5DCAA5" stroke="#0F6E56" stroke-width="0.5"/>
<text class="tw" x="483" y="452" text-anchor="middle" font-size="11">小计</text>
<text class="tw" x="483" y="470" text-anchor="middle" font-size="13">7-11张</text>

<rect x="541" y="428" width="101" height="70" rx="6" fill="#E1F5EE" stroke="#1D9E75" stroke-width="0.3" stroke-dasharray="4,2"/>
<text class="tsm" x="591" y="450" text-anchor="middle" fill="#0F6E56" font-size="9">参考图2</text>
<text class="tsm" x="591" y="466" text-anchor="middle" fill="#0F6E56" font-size="9">三视图</text>
<text class="tsm" x="591" y="482" text-anchor="middle" fill="#0F6E56" font-size="9">示例</text>

<text class="th" x="46" y="518" text-anchor="start" fill="#085041" font-size="12">人物 B（副模特 · 不同脸型/体型）</text>
<rect x="46" y="528" width="120" height="70" rx="6" fill="#9FE1CB" stroke="#1D9E75" stroke-width="0.4"/>
<text class="th" x="106" y="550" text-anchor="middle" fill="#085041" font-size="11">正面全身</text>
<text class="tsm" x="106" y="566" text-anchor="middle" fill="#0F6E56">3-5张</text>
<text class="tsm" x="106" y="584" text-anchor="middle" fill="#1D9E75" font-size="9">与A差异化</text>

<rect x="176" y="528" width="120" height="70" rx="6" fill="#9FE1CB" stroke="#1D9E75" stroke-width="0.4"/>
<text class="th" x="236" y="550" text-anchor="middle" fill="#085041" font-size="11">侧面45°</text>
<text class="tsm" x="236" y="566" text-anchor="middle" fill="#0F6E56">2-3张</text>
<text class="tsm" x="236" y="584" text-anchor="middle" fill="#1D9E75" font-size="9">左/右侧</text>

<rect x="306" y="528" width="120" height="70" rx="6" fill="#9FE1CB" stroke="#1D9E75" stroke-width="0.4"/>
<text class="th" x="366" y="550" text-anchor="middle" fill="#085041" font-size="11">背面全身</text>
<text class="tsm" x="366" y="566" text-anchor="middle" fill="#0F6E56">2-3张</text>
<text class="tsm" x="366" y="584" text-anchor="middle" fill="#1D9E75" font-size="9">完整背影</text>

<rect x="436" y="528" width="95" height="70" rx="6" fill="#5DCAA5" stroke="#0F6E56" stroke-width="0.5"/>
<text class="tw" x="483" y="552" text-anchor="middle" font-size="11">小计</text>
<text class="tw" x="483" y="570" text-anchor="middle" font-size="13">7-11张</text>

<text class="th" x="46" y="618" text-anchor="start" fill="#085041" font-size="12">人物 C/D ...（按需扩展）</text>
<rect x="46" y="628" width="185" height="50" rx="6" fill="#E1F5EE" stroke="#1D9E75" stroke-width="0.3" stroke-dasharray="4,2"/>
<text class="tsm" x="138" y="650" text-anchor="middle" fill="#0F6E56">每种体型/肤色 一个人物</text>
<text class="tsm" x="138" y="668" text-anchor="middle" fill="#0F6E56">建议 3-5 人覆盖主流客群</text>

<rect x="245" y="628" width="180" height="50" rx="6" fill="#5DCAA5" stroke="#0F6E56" stroke-width="0.5"/>
<text class="tw" x="335" y="648" text-anchor="middle" font-size="11">Layer 2 总计</text>
<text class="tw" x="335" y="668" text-anchor="middle" font-size="13">21-55张 / SKU</text>

<rect x="439" y="628" width="203" height="50" rx="6" fill="#E1F5EE" stroke="#1D9E75" stroke-width="0.3"/>
<text class="tsm" x="540" y="648" text-anchor="middle" fill="#0F6E56">关键原则:</text>
<text class="tsm" x="540" y="666" text-anchor="middle" fill="#0F6E56">同一人 = 同一LoRA触发词</text>

<rect x="46" y="698" width="290" height="28" rx="6" fill="#9FE1CB" stroke="#1D9E75" stroke-width="0.3"/>
<text class="tsm" x="56" y="716" fill="#085041">工作量: 核心最大块 · 占总工作量 50%</text>
<rect x="345" y="698" width="289" height="28" rx="6" fill="#9FE1CB" stroke="#1D9E75" stroke-width="0.3"/>
<text class="tsm" x="355" y="716" fill="#085041">Caption: 每张40-100词自然语言描述</text>

<path d="M340 753 L340 778" stroke="#1D9E75" stroke-width="1.8" marker-end="url(#arr-teal)" fill="none"/>
<text class="tsm" x="360" y="769" fill="#1D9E75">基于人物扩展场景</text>

<!-- Layer 3 -->
<rect x="30" y="788" width="620" height="380" rx="12" fill="#FAEEDA" stroke="#BA7517" stroke-width="0.5"/>
<text class="th" x="340" y="812" text-anchor="middle" fill="#854F0B">Layer 3  多模特多场景（扩展层）</text>
<text class="tsm" x="632" y="812" text-anchor="end" fill="#BA7517">每人 15-30张 · 姿态/场景/色板</text>
<rect x="38" y="822" width="604" height="1.5" rx="1" fill="#FAC775"/>

<text class="th" x="46" y="842" text-anchor="start" fill="#633806" font-size="12">维度A: 多角度姿态（每人）</text>

<rect x="46" y="852" width="90" height="56" rx="6" fill="#FAC775" stroke="#BA7517" stroke-width="0.4"/>
<text class="th" x="91" y="872" text-anchor="middle" fill="#633806" font-size="11">特写</text>
<text class="tsm" x="91" y="888" text-anchor="middle" fill="#854F0B">2-3张</text>

<rect x="146" y="852" width="90" height="56" rx="6" fill="#FAC775" stroke="#BA7517" stroke-width="0.4"/>
<text class="th" x="191" y="872" text-anchor="middle" fill="#633806" font-size="11">坐姿</text>
<text class="tsm" x="191" y="888" text-anchor="middle" fill="#854F0B">2-3张</text>

<rect x="246" y="852" width="90" height="56" rx="6" fill="#FAC775" stroke="#BA7517" stroke-width="0.4"/>
<text class="th" x="291" y="872" text-anchor="middle" fill="#633806" font-size="11">动态</text>
<text class="tsm" x="291" y="888" text-anchor="middle" fill="#854F0B">2-3张</text>

<rect x="346" y="852" width="90" height="56" rx="6" fill="#EF9F27" stroke="#854F0B" stroke-width="0.5"/>
<text class="tw" x="391" y="872" text-anchor="middle" font-size="11">6-9张</text>
<text class="tsm" x="391" y="888" text-anchor="middle" fill="#fef3c7">/人</text>

<rect x="450" y="852" width="186" height="56" rx="6" fill="#FAEEDA" stroke="#BA7517" stroke-width="0.3" stroke-dasharray="4,2"/>
<text class="tsm" x="543" y="874" text-anchor="middle" fill="#854F0B" font-size="9">参考图3 上半部</text>
<text class="tsm" x="543" y="890" text-anchor="middle" fill="#854F0B" font-size="9">多角度示例</text>

<text class="th" x="46" y="926" text-anchor="start" fill="#633806" font-size="12">维度B: 场景环境变化</text>

<rect x="46" y="936" width="115" height="44" rx="6" fill="#FAC775" stroke="#BA7517" stroke-width="0.4"/>
<text class="th" x="103" y="956" text-anchor="middle" fill="#633806" font-size="11">纯白棚拍</text>
<text class="tsm" x="103" y="970" text-anchor="middle" fill="#854F0B">基线</text>

<rect x="171" y="936" width="115" height="44" rx="6" fill="#FAC775" stroke="#BA7517" stroke-width="0.4"/>
<text class="th" x="228" y="956" text-anchor="middle" fill="#633806" font-size="11">卧室场景</text>
<text class="tsm" x="228" y="970" text-anchor="middle" fill="#854F0B">1-2张</text>

<rect x="296" y="936" width="115" height="44" rx="6" fill="#FAC775" stroke="#BA7517" stroke-width="0.4"/>
<text class="th" x="353" y="956" text-anchor="middle" fill="#633806" font-size="11">客厅场景</text>
<text class="tsm" x="353" y="970" text-anchor="middle" fill="#854F0B">1-2张</text>

<rect x="421" y="936" width="115" height="44" rx="6" fill="#FAC775" stroke="#BA7517" stroke-width="0.4"/>
<text class="th" x="478" y="956" text-anchor="middle" fill="#633806" font-size="11">自然光/窗边</text>
<text class="tsm" x="478" y="970" text-anchor="middle" fill="#854F0B">1-2张</text>

<rect x="546" y="936" width="90" height="44" rx="6" fill="#EF9F27" stroke="#854F0B" stroke-width="0.5"/>
<text class="tw" x="591" y="956" text-anchor="middle" font-size="11">4-8张</text>
<text class="tsm" x="591" y="970" text-anchor="middle" fill="#fef3c7">/人</text>

<text class="th" x="46" y="1002" text-anchor="start" fill="#633806" font-size="12">维度C: 颜色变体（可选）</text>

<rect x="46" y="1012" width="420" height="44" rx="6" fill="#FAEEDA" stroke="#BA7517" stroke-width="0.3" stroke-dasharray="4,2"/>
<text class="tsm" x="256" y="1034" text-anchor="middle" fill="#854F0B">同款不同色: 每色板增加 2-3张正面展示</text>

<rect x="480" y="1012" width="156" height="44" rx="6" fill="#FAC775" stroke="#BA7517" stroke-width="0.4"/>
<text class="th" x="558" y="1032" text-anchor="middle" fill="#633806" font-size="11">N色 × 2-3张</text>

<rect x="46" y="1072" width="240" height="50" rx="6" fill="#EF9F27" stroke="#854F0B" stroke-width="0.5"/>
<text class="tw" x="166" y="1092" text-anchor="middle" font-size="12">Layer 3 总计/人</text>
<text class="tw" x="166" y="1110" text-anchor="middle" font-size="14">15-30张</text>

<rect x="298" y="1072" width="220" height="50" rx="6" fill="#EF9F27" stroke="#854F0B" stroke-width="0.5"/>
<text class="tw" x="408" y="1092" text-anchor="middle" font-size="12">全人物合计/SKU</text>
<text class="tw" x="408" y="1110" text-anchor="middle" font-size="14">45-150张</text>

<rect x="532" y="1072" width="104" height="50" rx="6" fill="#FAEEDA" stroke="#BA7517" stroke-width="0.3"/>
<text class="tsm" x="584" y="1094" text-anchor="middle" fill="#854F0B" font-size="10">占比</text>
<text class="tsm" x="584" y="1110" text-anchor="middle" fill="#854F0B" font-size="10">总工作量 35%</text>

<rect x="46" y="1136" width="300" height="28" rx="6" fill="#FAC775" stroke="#BA7517" stroke-width="0.3"/>
<text class="tsm" x="56" y="1154" fill="#633806">优先级: 有余力再做 · 先保 L1+L2 质量</text>
<rect x="358" y="1136" width="276" height="28" rx="6" fill="#FAC775" stroke="#BA7517" stroke-width="0.3"/>
<text class="tsm" x="368" y="1154" fill="#633806">可分批迭代: 先姿态 → 后场景 → 后色板</text>

<!-- 汇总矩阵 -->
<path d="M340 1172 L340 1192" stroke="#888780" stroke-width="1.5" marker-end="url(#arrow)" fill="none"/>

<rect x="30" y="1200" width="620" height="170" rx="12" fill="#F1EFE8" stroke="#888780" stroke-width="0.5"/>
<text class="th" x="340" y="1226" text-anchor="middle" fill="#444441">工作量汇总矩阵（每SKU）</text>

<rect x="46" y="1240" width="145" height="36" rx="6" fill="#D3D1C7" stroke="#888780" stroke-width="0.3"/>
<text class="th" x="118" y="1262" text-anchor="middle" fill="#444441" font-size="12">层级</text>
<rect x="199" y="1240" width="110" height="36" rx="6" fill="#D3D1C7" stroke="#888780" stroke-width="0.3"/>
<text class="th" x="254" y="1262" text-anchor="middle" fill="#444441" font-size="12">单SKU张数</text>
<rect x="317" y="1240" width="100" height="36" rx="6" fill="#D3D1C7" stroke="#888780" stroke-width="0.3"/>
<text class="th" x="367" y="1262" text-anchor="middle" fill="#444441" font-size="12">占比</text>
<rect x="425" y="1240" width="105" height="36" rx="6" fill="#D3D1C7" stroke="#888780" stroke-width="0.3"/>
<text class="th" x="477" y="1262" text-anchor="middle" fill="#444441" font-size="12">LoRA角色</text>
<rect x="538" y="1240" width="96" height="36" rx="6" fill="#D3D1C7" stroke="#888780" stroke-width="0.3"/>
<text class="th" x="586" y="1262" text-anchor="middle" fill="#444441" font-size="12">优先级</text>

<rect x="46" y="1284" width="145" height="32" rx="5" fill="#EEEDFE" stroke="#7F77DD" stroke-width="0.3"/>
<text class="ts" x="118" y="1304" text-anchor="middle" fill="#3C3489">L1 商品正反图</text>
<rect x="199" y="1284" width="110" height="32" rx="5" fill="#EEEDFE" stroke="#7F77DD" stroke-width="0.3"/>
<text class="ts" x="254" y="1304" text-anchor="middle" fill="#3C3489">2-4张</text>
<rect x="317" y="1284" width="100" height="32" rx="5" fill="#EEEDFE" stroke="#7F77DD" stroke-width="0.3"/>
<text class="ts" x="367" y="1304" text-anchor="middle" fill="#3C3489">15%</text>
<rect x="425" y="1284" width="105" height="32" rx="5" fill="#EEEDFE" stroke="#7F77DD" stroke-width="0.3"/>
<text class="ts" x="477" y="1304" text-anchor="middle" fill="#3C3489">ControlNet参考</text>
<rect x="538" y="1284" width="96" height="32" rx="5" fill="#AFA9EC" stroke="#534AB7" stroke-width="0.4"/>
<text class="tw" x="586" y="1304" text-anchor="middle" font-size="11">P0 必须</text>

<rect x="46" y="1322" width="145" height="32" rx="5" fill="#E1F5EE" stroke="#1D9E75" stroke-width="0.3"/>
<text class="ts" x="118" y="1342" text-anchor="middle" fill="#085041">L2 人物三视图</text>
<rect x="199" y="1322" width="110" height="32" rx="5" fill="#E1F5EE" stroke="#1D9E75" stroke-width="0.3"/>
<text class="ts" x="254" y="1342" text-anchor="middle" fill="#085041">21-55张</text>
<rect x="317" y="1322" width="100" height="32" rx="5" fill="#E1F5EE" stroke="#1D9E75" stroke-width="0.3"/>
<text class="ts" x="367" y="1342" text-anchor="middle" fill="#085041">50%</text>
<rect x="425" y="1322" width="105" height="32" rx="5" fill="#E1F5EE" stroke="#1D9E75" stroke-width="0.3"/>
<text class="ts" x="477" y="1342" text-anchor="middle" fill="#085041">主训练数据</text>
<rect x="538" y="1322" width="96" height="32" rx="5" fill="#5DCAA5" stroke="#0F6E56" stroke-width="0.5"/>
<text class="tw" x="586" y="1342" text-anchor="middle" font-size="11">P0 核心</text>

<rect x="46" y="1360" width="145" height="32" rx="5" fill="#FAEEDA" stroke="#BA7517" stroke-width="0.3"/>
<text class="ts" x="118" y="1380" text-anchor="middle" fill="#854F0B">L3 多场景扩展</text>
<rect x="199" y="1360" width="110" height="32" rx="5" fill="#FAEEDA" stroke="#BA7517" stroke-width="0.3"/>
<text class="ts" x="254" y="1380" text-anchor="middle" fill="#854F0B">45-150张</text>
<rect x="317" y="1360" width="100" height="32" rx="5" fill="#FAEEDA" stroke="#BA7517" stroke-width="0.3"/>
<text class="ts" x="367" y="1380" text-anchor="middle" fill="#854F0B">35%</text>
<rect x="425" y="1360" width="105" height="32" rx="5" fill="#FAEEDA" stroke="#BA7517" stroke-width="0.3"/>
<text class="ts" x="477" y="1380" text-anchor="middle" fill="#854F0B">泛化增强</text>
<rect x="538" y="1360" width="96" height="32" rx="5" fill="#FAC775" stroke="#BA7517" stroke-width="0.3"/>
<text class="ts" x="586" y="1380" text-anchor="middle" fill="#633806">P1 迭代</text>

<rect x="140" y="1402" width="400" height="36" rx="6" fill="#888780" stroke="#5F5E5A" stroke-width="0.4"/>
<text class="tw" x="340" y="1424" text-anchor="middle" font-size="13">单SKU总计: 68-209张（推荐 100-150张）</text>

<text class="ts" x="340" y="1462" text-anchor="middle" fill="#888780">海风老师 | AI技术咨询 / LoRA模型训练 / 电商AI落地</text>
</svg>