<svg viewBox="0 0 680 780" xmlns="http://www.w3.org/2000/svg" style="font-family: -apple-system, BlinkMacSystemFont, 'Segoe UI', Roboto, sans-serif;">
<defs>
  <marker id="arrow" viewBox="0 0 10 10" refX="8" refY="5" markerWidth="6" markerHeight="6" orient="auto-start-reverse">
    <path d="M2 1L8 5L2 9" fill="none" stroke="context-stroke" stroke-width="1.5" stroke-linecap="round" stroke-linejoin="round"/>
  </marker>
</defs>

<!-- 标题 -->
<text x="340" y="36" text-anchor="middle" style="font-size:15px;font-weight:500;fill:#2C2C2A">三层一体化布局总览（2026 → 2031）</text>
<text x="340" y="56" text-anchor="middle" style="font-size:12px;fill:#888780">能力 · 业务 · 内容 三线协同演进路线图</text>

<!-- 时间轴底色 -->
<line x1="100" y1="90" x2="100" y2="740" stroke="#D3D1C7" stroke-width="0.5"/>
<line x1="240" y1="90" x2="240" y2="740" stroke="#D3D1C7" stroke-width="0.5"/>
<line x1="380" y1="90" x2="380" y2="740" stroke="#D3D1C7" stroke-width="0.5"/>
<line x1="520" y1="90" x2="520" y2="740" stroke="#D3D1C7" stroke-width="0.5"/>
<line x1="640" y1="90" x2="640" y2="740" stroke="#D3D1C7" stroke-width="0.5"/>

<!-- 时间节点标签 -->
<text x="100" y="82" text-anchor="middle" style="font-size:11px;font-weight:500;fill:#2C2C2A">2026</text>
<text x="240" y="82" text-anchor="middle" style="font-size:11px;font-weight:500;fill:#2C2C2A">2027</text>
<text x="380" y="82" text-anchor="middle" style="font-size:11px;font-weight:500;fill:#2C2C2A">2028</text>
<text x="520" y="82" text-anchor="middle" style="font-size:11px;font-weight:500;fill:#2C2C2A">2029-30</text>
<text x="640" y="82" text-anchor="middle" style="font-size:11px;font-weight:500;fill:#2C2C2A">2031</text>

<!-- 拐点标记 -->
<rect x="362" y="86" width="36" height="18" rx="4" fill="#FCEBEB"/>
<text x="380" y="100" text-anchor="middle" style="font-size:10px;font-weight:500;fill:#A32D2D">拐点</text>

<!-- ===== 第一层：个人能力 ===== -->
<rect x="40" y="105" width="600" height="195" rx="12" fill="#F1EFE8" stroke="#D3D1C7" stroke-width="0.5"/>
<text x="56" y="128" style="font-size:13px;font-weight:500;fill:#2C2C2A">① 个人能力布局</text>
<text x="56" y="146" style="font-size:11px;fill:#888780">从「执行者」到「验收者」的能力迁移路径</text>

<!-- 2026 能力 -->
<rect x="72" y="158" width="110" height="68" rx="8" fill="white" stroke="#D3D1C7" stroke-width="0.5"/>
<text x="127" y="176" text-anchor="middle" style="font-size:11px;font-weight:500;fill:#2C2C2A">2026：基础期</text>
<text x="82" y="192" style="font-size:10px;fill:#444441">• LoRA训练精通</text>
<text x="82" y="206" style="font-size:10px;fill:#444441">• 端侧AI工具链</text>
<text x="82" y="220" style="font-size:10px;fill:#444441">• 企业落地方法论</text>

<!-- 2027 能力 -->
<rect x="212" y="158" width="110" height="68" rx="8" fill="white" stroke="#D3D1C7" stroke-width="0.5"/>
<text x="267" y="176" text-anchor="middle" style="font-size:11px;font-weight:500;fill:#2C2C2A">2027：实验期</text>
<text x="222" y="192" style="font-size:10px;fill:#444441">• AI协作工作流</text>
<text x="222" y="206" style="font-size:10px;fill:#444441">• 多客户场景覆盖</text>
<text x="222" y="220" style="font-size:10px;fill:#444441">• 验收标准建立</text>

<!-- 2028 拐点 能力 -->
<rect x="352" y="158" width="110" height="68" rx="8" fill="#FCEBEB" stroke="#F09595" stroke-width="0.5" opacity="0.12"/>
<rect x="352" y="158" width="110" height="68" rx="8" fill="none" stroke="#E24B4A" stroke-width="0.5"/>
<text x="407" y="176" text-anchor="middle" style="font-size:11px;font-weight:500;fill:#A32D2D">2028：拐点</text>
<text x="362" y="192" style="font-size:10px;fill:#A32D2D">• AI自主部署能力</text>
<text x="362" y="206" style="font-size:10px;fill:#A32D2D">• 角色切换：执行→验收</text>
<text x="362" y="220" style="font-size:10px;fill:#A32D2D">• 护城河：判断力</text>

<!-- 2031 能力 -->
<rect x="532" y="158" width="110" height="68" rx="8" fill="white" stroke="#D3D1C7" stroke-width="0.5"/>
<text x="587" y="176" text-anchor="middle" style="font-size:11px;font-weight:500;fill:#2C2C2A">2031：目标态</text>
<text x="542" y="192" style="font-size:10px;fill:#444441">• AI协作架构师</text>
<text x="542" y="206" style="font-size:10px;fill:#444441">• 领域知识+AI调度</text>
<text x="542" y="220" style="font-size:10px;fill:#444441">• 不可替代的判断</text>

<!-- 箭头 -->
<polyline points="182,192 212,192" fill="none" stroke="#D3D1C7" stroke-width="0.5" marker-end="url(#arrow)"/>
<polyline points="322,192 352,192" fill="none" stroke="#D3D1C7" stroke-width="0.5" marker-end="url(#arrow)"/>
<polyline points="462,192 532,192" fill="none" stroke="#D3D1C7" stroke-width="0.5" marker-end="url(#arrow)"/>

<!-- 关键行动 -->
<rect x="72" y="238" width="570" height="52" rx="8" fill="#E1F5EE" stroke="none"/>
<text x="88" y="256" style="font-size:10px;font-weight:500;fill:#2C2C2A">关键行动（现在→2028）</text>
<text x="88" y="272" style="font-size:10px;fill:#085041">① 把端侧AI工具链摸透（不要只停留在调用层）  ② 攒3+完整端到端落地项目  ③ 建立「验收AI输出」的判断框架</text>

<!-- ===== 第二层：业务服务 ===== -->
<rect x="40" y="320" width="600" height="195" rx="12" fill="#F1EFE8" stroke="#D3D1C7" stroke-width="0.5"/>
<text x="56" y="343" style="font-size:13px;font-weight:500;fill:#2C2C2A">② 业务/服务布局</text>
<text x="56" y="361" style="font-size:11px;fill:#888780">服务形态随AI能力演进同步转型</text>

<!-- 2026 业务 -->
<rect x="72" y="373" width="110" height="68" rx="8" fill="white" stroke="#D3D1C7" stroke-width="0.5"/>
<text x="127" y="391" text-anchor="middle" style="font-size:11px;font-weight:500;fill:#2C2C2A">2026：执行型</text>
<text x="82" y="407" style="font-size:10px;fill:#444441">• AI落地咨询</text>
<text x="82" y="421" style="font-size:10px;fill:#444441">• LoRA训练服务</text>
<text x="82" y="435" style="font-size:10px;fill:#444441">• 端侧部署（高单价）</text>

<!-- 2027 业务 -->
<rect x="212" y="373" width="110" height="68" rx="8" fill="white" stroke="#D3D1C7" stroke-width="0.5"/>
<text x="267" y="391" text-anchor="middle" style="font-size:11px;font-weight:500;fill:#2C2C2A">2027：协作型</text>
<text x="222" y="407" style="font-size:10px;fill:#444441">• AI+人工混合交付</text>
<text x="222" y="421" style="font-size:10px;fill:#444441">• 企业AI培训（规模化）</text>
<text x="222" y="435" style="font-size:10px;fill:#444441">• 工具链授权/订阅</text>

<!-- 2028 拐点 业务 -->
<rect x="352" y="373" width="110" height="68" rx="8" fill="#FCEBEB" stroke="#F09595" stroke-width="0.5" opacity="0.12"/>
<rect x="352" y="373" width="110" height="68" rx="8" fill="none" stroke="#E24B4A" stroke-width="0.5"/>
<text x="407" y="391" text-anchor="middle" style="font-size:11px;font-weight:500;fill:#A32D2D">2028：转型期</text>
<text x="362" y="407" style="font-size:10px;fill:#A32D2D">• 服务形态重构</text>
<text x="362" y="421" style="font-size:10px;fill:#A32D2D">• AI执行+人验收</text>
<text x="362" y="435" style="font-size:10px;fill:#A32D2D">• 高溢价：架构决策</text>

<!-- 2031 业务 -->
<rect x="532" y="373" width="110" height="68" rx="8" fill="white" stroke="#D3D1C7" stroke-width="0.5"/>
<text x="587" y="391" text-anchor="middle" style="font-size:11px;font-weight:500;fill:#2C2C2A">2031：平台型</text>
<text x="542" y="407" style="font-size:10px;fill:#444441">• AI协作平台</text>
<text x="542" y="421" style="font-size:10px;fill:#444441">• 行业标准/认证</text>
<text x="542" y="435" style="font-size:10px;fill:#444441">• 知识IP变现</text>

<!-- 箭头 -->
<polyline points="182,407 212,407" fill="none" stroke="#D3D1C7" stroke-width="0.5" marker-end="url(#arrow)"/>
<polyline points="322,407 352,407" fill="none" stroke="#D3D1C7" stroke-width="0.5" marker-end="url(#arrow)"/>
<polyline points="462,407 532,407" fill="none" stroke="#D3D1C7" stroke-width="0.5" marker-end="url(#arrow)"/>

<!-- 关键行动 -->
<rect x="72" y="453" width="570" height="52" rx="8" fill="#E1F5EE" stroke="none"/>
<text x="88" y="471" style="font-size:10px;font-weight:500;fill:#2C2C2A">关键行动（现在→2028）</text>
<text x="88" y="487" style="font-size:10px;fill:#085041">① 2026-2027：抓住端侧AI部署高价窗口（AI还做不好）  ② 2027下半年：布局「AI协作培训」产品线  ③ 2028前：完成从「卖时间」到「卖判断」的转型</text>

<!-- ===== 第三层：内容布局 ===== -->
<rect x="40" y="535" width="600" height="195" rx="12" fill="#F1EFE8" stroke="#D3D1C7" stroke-width="0.5"/>
<text x="56" y="558" style="font-size:13px;font-weight:500;fill:#2C2C2A">③ 内容布局</text>
<text x="56" y="576" style="font-size:11px;fill:#888780">用具体技术场景作为AI能力的测量尺，建立「未来感知」内容IP</text>

<!-- 2026 内容 -->
<rect x="72" y="588" width="110" height="68" rx="8" fill="white" stroke="#D3D1C7" stroke-width="0.5"/>
<text x="127" y="606" text-anchor="middle" style="font-size:11px;font-weight:500;fill:#2C2C2A">2026：建立标尺</text>
<text x="82" y="622" style="font-size:10px;fill:#444441">• LoRA调试测量AI</text>
<text x="82" y="636" style="font-size:10px;fill:#444441">• 端侧AI测量AI</text>
<text x="82" y="650" style="font-size:10px;fill:#444441">• KIWI日记（未来视角）</text>

<!-- 2027 内容 -->
<rect x="212" y="588" width="110" height="68" rx="8" fill="white" stroke="#D3D1C7" stroke-width="0.5"/>
<text x="267" y="606" text-anchor="middle" style="font-size:11px;font-weight:500;fill:#2C2C2A">2027：扩大影响</text>
<text x="222" y="622" style="font-size:10px;fill:#444441">• AI能力演进年度报告</text>
<text x="222" y="636" style="font-size:10px;fill:#444441">• 企业落地案例库</text>
<text x="222" y="650" style="font-size:10px;fill:#444441">• 跨领域测量尺系列</text>

<!-- 2028 拐点 内容 -->
<rect x="352" y="588" width="110" height="68" rx="8" fill="#FCEBEB" stroke="#F09595" stroke-width="0.5" opacity="0.12"/>
<rect x="352" y="588" width="110" height="68" rx="8" fill="none" stroke="#E24B4A" stroke-width="0.5"/>
<text x="407" y="606" text-anchor="middle" style="font-size:11px;font-weight:500;fill:#A32D2D">2028：拐点记录</text>
<text x="362" y="622" style="font-size:10px;fill:#A32D2D">• 「我见证了拐点」系列</text>
<text x="362" y="636" style="font-size:10px;fill:#A32D2D">• AI自主部署实测</text>
<text x="362" y="650" style="font-size:10px;fill:#A32D2D">• 人类角色变迁讨论</text>

<!-- 2031 内容 -->
<rect x="532" y="588" width="110" height="68" rx="8" fill="white" stroke="#D3D1C7" stroke-width="0.5"/>
<text x="587" y="606" text-anchor="middle" style="font-size:11px;font-weight:500;fill:#2C2C2A">2031：历史资产</text>
<text x="542" y="622" style="font-size:10px;fill:#444441">• 5年推演完整记录</text>
<text x="542" y="636" style="font-size:10px;fill:#444441">• 书/课程/付费专栏</text>
<text x="542" y="650" style="font-size:10px;fill:#444441">• 行业顾问/智库</text>

<!-- 箭头 -->
<polyline points="182,622 212,622" fill="none" stroke="#D3D1C7" stroke-width="0.5" marker-end="url(#arrow)"/>
<polyline points="322,622 352,622" fill="none" stroke="#D3D1C7" stroke-width="0.5" marker-end="url(#arrow)"/>
<polyline points="462,622 532,622" fill="none" stroke="#D3D1C7" stroke-width="0.5" marker-end="url(#arrow)"/>

<!-- 关键行动 -->
<rect x="72" y="668" width="570" height="52" rx="8" fill="#E1F5EE" stroke="none"/>
<text x="88" y="686" style="font-size:10px;font-weight:500;fill:#2C2C2A">关键行动（现在→2028）</text>
<text x="88" y="702" style="font-size:10px;fill:#085041">① 持续用新技术场景测量AI（每季度1-2篇）  ② KIWI日记保持未来视角连续性（2031年穿越设定）  ③ 2028年拐点到来时，你是少有的「有完整记录」的人</text>

<!-- 底部总结 -->
<rect x="40" y="740" width="600" height="32" rx="8" fill="#E6F1FB" stroke="#B5D4F4" stroke-width="0.5" opacity="0.5"/>
<text x="340" y="762" text-anchor="middle" style="font-size:11px;font-weight:500;fill:#0C447C">核心逻辑：三线不是独立推进，而是相互增强——能力是内核，业务是变现，内容是杠杆</text>
</svg>
