<svg xmlns="http://www.w3.org/2000/svg" viewBox="0 0 1200 630" width="100%" height="100%" role="img">
  <title>客户代际范式·未来赛博城市与机器人交互场景</title>
  <desc>霓虹闪烁的未来赛博城市中，自动驾驶汽车、人形机器人在街道上穿行，四层价值链以全息投影悬浮在城市上空</desc>
  <style>
    @keyframes pulseN { 0%,100%{opacity:0.5} 50%{opacity:1} }
    @keyframes floatR { 0%,100%{transform:translateY(0)} 50%{transform:translateY(-6px)} }
    @keyframes scan { 0%{opacity:0} 20%{opacity:0.8} 80%{opacity:0.8} 100%{opacity:0} }
    @keyframes blink { 0%,100%{opacity:1} 50%{opacity:0.2} }
    @keyframes drive { 0%{transform:translateX(0)} 100%{transform:translateX(30px)} }
    .pulse { animation:pulseN 2.5s ease-in-out infinite }
    .float { animation:floatR 5s ease-in-out infinite }
    .scan-up { animation:scan 4s ease-in-out infinite }
    .blink { animation:blink 1.5s step-end infinite }
    .drive { animation:drive 8s linear infinite }
  </style>
  <defs>
    <linearGradient id="nightSky" x1="0" y1="0" x2="0" y2="1">
      <stop offset="0%" stop-color="#050510"/>
      <stop offset="25%" stop-color="#0a0a2e"/>
      <stop offset="50%" stop-color="#120838"/>
      <stop offset="75%" stop-color="#1a0a3a"/>
      <stop offset="100%" stop-color="#0d0d2b"/>
    </linearGradient>
    <linearGradient id="neonCity" x1="0" y1="0" x2="0" y2="1">
      <stop offset="0%" stop-color="transparent"/>
      <stop offset="60%" stop-color="#ff3366" stop-opacity="0.08"/>
      <stop offset="80%" stop-color="#ff6600" stop-opacity="0.15"/>
      <stop offset="100%" stop-color="#ffaa00" stop-opacity="0.08"/>
    </linearGradient>
    <linearGradient id="goldCurve" x1="0" y1="1" x2="1" y2="0">
      <stop offset="0%" stop-color="#ffd700" stop-opacity="0.1"/>
      <stop offset="25%" stop-color="#ffaa33" stop-opacity="0.5"/>
      <stop offset="50%" stop-color="#ffd700" stop-opacity="0.95"/>
      <stop offset="80%" stop-color="#ffe066" stop-opacity="0.7"/>
      <stop offset="100%" stop-color="#ff8844" stop-opacity="0.3"/>
    </linearGradient>
    <linearGradient id="bldgDk" x1="0" y1="0" x2="0" y2="1">
      <stop offset="0%" stop-color="#0f0a2e"/>
      <stop offset="100%" stop-color="#08081a"/>
    </linearGradient>
    <linearGradient id="bldgMd" x1="0" y1="0" x2="0" y2="1">
      <stop offset="0%" stop-color="#1a1240"/>
      <stop offset="100%" stop-color="#0f0a2e"/>
    </linearGradient>
    <linearGradient id="bldgLt" x1="0" y1="0" x2="0" y2="1">
      <stop offset="0%" stop-color="#241860"/>
      <stop offset="100%" stop-color="#1a1240"/>
    </linearGradient>
    <linearGradient id="hologram" x1="0" y1="0" x2="0" y2="1">
      <stop offset="0%" stop-color="#00d4ff" stop-opacity="0.3"/>
      <stop offset="50%" stop-color="#00d4ff" stop-opacity="0.1"/>
      <stop offset="100%" stop-color="#00d4ff" stop-opacity="0"/>
    </linearGradient>
    <linearGradient id="rdGlow" x1="0" y1="0" x2="1" y2="1">
      <stop offset="0%" stop-color="#ff3366" stop-opacity="0.6"/>
      <stop offset="100%" stop-color="#ff3366" stop-opacity="0.1"/>
    </linearGradient>
    <filter id="glowBlue">
      <feGaussianBlur stdDeviation="3" result="b"/>
      <feMerge><feMergeNode in="b"/><feMergeNode in="SourceGraphic"/></feMerge>
    </filter>
    <filter id="glowGold">
      <feGaussianBlur stdDeviation="5" result="b"/>
      <feMerge><feMergeNode in="b"/><feMergeNode in="b"/><feMergeNode in="SourceGraphic"/></feMerge>
    </filter>
    <filter id="glowPink">
      <feGaussianBlur stdDeviation="4" result="b"/>
      <feMerge><feMergeNode in="b"/><feMergeNode in="SourceGraphic"/></feMerge>
    </filter>
  </defs>

  <!-- 夜空 -->
  <rect width="1200" height="630" fill="url(#nightSky)"/>
  <rect width="1200" height="630" fill="url(#neonCity)"/>

  <!-- 远处星光 -->
  <g opacity="0.3">
    <circle cx="50" cy="30" r="0.8" fill="#fff" class="blink"/>
    <circle cx="180" cy="55" r="0.6" fill="#fff"/>
    <circle cx="320" cy="25" r="0.8" fill="#fff" class="blink"/>
    <circle cx="480" cy="60" r="0.5" fill="#fff"/>
    <circle cx="600" cy="35" r="0.7" fill="#fff"/>
    <circle cx="750" cy="50" r="0.6" fill="#fff" class="blink"/>
    <circle cx="900" cy="28" r="0.8" fill="#fff"/>
    <circle cx="1050" cy="45" r="0.5" fill="#fff"/>
    <circle cx="1150" cy="30" r="0.6" fill="#fff" class="blink"/>
  </g>

  <!-- 远景城市(深色剪影) -->
  <g opacity="0.25">
    <rect x="0" y="280" width="35" height="150" fill="url(#bldgDk)" rx="1"/>
    <rect x="40" y="260" width="28" height="170" fill="url(#bldgDk)" rx="1"/>
    <rect x="72" y="290" width="42" height="140" fill="url(#bldgDk)" rx="1"/>
    <rect x="118" y="240" width="22" height="190" fill="url(#bldgDk)" rx="1"/>
    <rect x="144" y="270" width="35" height="160" fill="url(#bldgDk)" rx="1"/>
    <rect x="184" y="250" width="30" height="180" fill="url(#bldgDk)" rx="1"/>
    <rect x="218" y="285" width="45" height="145" fill="url(#bldgDk)" rx="1"/>
    <rect x="268" y="230" width="25" height="200" fill="url(#bldgDk)" rx="1"/>
    <rect x="298" y="260" width="38" height="170" fill="url(#bldgDk)" rx="1"/>
    <rect x="340" y="280" width="32" height="150" fill="url(#bldgDk)" rx="1"/>
    <rect x="376" y="245" width="28" height="185" fill="url(#bldgDk)" rx="1"/>
    <rect x="408" y="270" width="40" height="160" fill="url(#bldgDk)" rx="1"/>
    <rect x="452" y="290" width="35" height="140" fill="url(#bldgDk)" rx="1"/>
    <rect x="492" y="235" width="25" height="195" fill="url(#bldgDk)" rx="1"/>
    <rect x="522" y="260" width="42" height="170" fill="url(#bldgDk)" rx="1"/>
    <rect x="568" y="275" width="30" height="155" fill="url(#bldgDk)" rx="1"/>
    <rect x="602" y="240" width="35" height="190" fill="url(#bldgDk)" rx="1"/>
    <rect x="642" y="265" width="40" height="165" fill="url(#bldgDk)" rx="1"/>
    <rect x="686" y="290" width="28" height="140" fill="url(#bldgDk)" rx="1"/>
    <rect x="718" y="250" width="32" height="180" fill="url(#bldgDk)" rx="1"/>
    <rect x="754" y="270" width="45" height="160" fill="url(#bldgDk)" rx="1"/>
    <rect x="803" y="240" width="25" height="190" fill="url(#bldgDk)" rx="1"/>
    <rect x="832" y="260" width="38" height="170" fill="url(#bldgDk)" rx="1"/>
    <rect x="874" y="280" width="42" height="150" fill="url(#bldgDk)" rx="1"/>
    <rect x="920" y="250" width="28" height="180" fill="url(#bldgDk)" rx="1"/>
    <rect x="952" y="270" width="35" height="160" fill="url(#bldgDk)" rx="1"/>
    <rect x="992" y="290" width="40" height="140" fill="url(#bldgDk)" rx="1"/>
    <rect x="1036" y="245" width="30" height="185" fill="url(#bldgDk)" rx="1"/>
    <rect x="1070" y="265" width="38" height="165" fill="url(#bldgDk)" rx="1"/>
    <rect x="1112" y="285" width="45" height="145" fill="url(#bldgDk)" rx="1"/>
    <rect x="1160" y="260" width="40" height="170" fill="url(#bldgDk)" rx="1"/>
  </g>

  <!-- 中景建筑(霓虹点缀) -->
  <g opacity="0.5">
    <rect x="15" y="350" width="30" height="130" fill="url(#bldgMd)" rx="1"/>
    <rect x="50" y="330" width="25" height="150" fill="url(#bldgMd)" rx="1"/>
    <rect x="80" y="365" width="40" height="115" fill="url(#bldgMd)" rx="1"/>
    <rect x="125" y="340" width="32" height="140" fill="url(#bldgMd)" rx="1"/>
    <rect x="162" y="360" width="35" height="120" fill="url(#bldgMd)" rx="1"/>
    <rect x="202" y="335" width="28" height="145" fill="url(#bldgMd)" rx="1"/>
    <rect x="235" y="355" width="45" height="125" fill="url(#bldgMd)" rx="1"/>
    <rect x="285" y="340" width="30" height="140" fill="url(#bldgMd)" rx="1"/>
    <rect x="320" y="370" width="38" height="110" fill="url(#bldgMd)" rx="1"/>
    <rect x="363" y="350" width="32" height="130" fill="url(#bldgMd)" rx="1"/>
    <rect x="400" y="370" width="42" height="110" fill="url(#bldgMd)" rx="1"/>
    <rect x="447" y="340" width="28" height="140" fill="url(#bldgMd)" rx="1"/>
    <rect x="480" y="360" width="35" height="120" fill="url(#bldgMd)" rx="1"/>
    <rect x="520" y="345" width="40" height="135" fill="url(#bldgMd)" rx="1"/>
    <rect x="565" y="365" width="30" height="115" fill="url(#bldgMd)" rx="1"/>
    <rect x="600" y="350" width="38" height="130" fill="url(#bldgMd)" rx="1"/>
    <rect x="643" y="370" width="42" height="110" fill="url(#bldgMd)" rx="1"/>
    <rect x="690" y="340" width="28" height="140" fill="url(#bldgMd)" rx="1"/>
    <rect x="723" y="355" width="35" height="125" fill="url(#bldgMd)" rx="1"/>
    <rect x="763" y="370" width="45" height="110" fill="url(#bldgMd)" rx="1"/>
    <rect x="813" y="345" width="30" height="135" fill="url(#bldgMd)" rx="1"/>
    <rect x="848" y="360" width="38" height="120" fill="url(#bldgMd)" rx="1"/>
    <rect x="891" y="340" width="42" height="140" fill="url(#bldgMd)" rx="1"/>
    <rect x="938" y="365" width="28" height="115" fill="url(#bldgMd)" rx="1"/>
    <rect x="970" y="350" width="35" height="130" fill="url(#bldgMd)" rx="1"/>
    <rect x="1010" y="370" width="40" height="110" fill="url(#bldgMd)" rx="1"/>
    <rect x="1055" y="345" width="30" height="135" fill="url(#bldgMd)" rx="1"/>
    <rect x="1090" y="360" width="38" height="120" fill="url(#bldgMd)" rx="1"/>
    <rect x="1132" y="340" width="35" height="140" fill="url(#bldgMd)" rx="1"/>
    <rect x="1172" y="365" width="28" height="115" fill="url(#bldgMd)" rx="1"/>
  </g>

  <!-- 近景建筑(霓虹边缘) -->
  <g opacity="0.7">
    <rect x="5" y="380" width="35" height="140" fill="url(#bldgLt)" rx="1"/>
    <rect x="44" y="365" width="28" height="155" fill="url(#bldgLt)" rx="1"/>
    <rect x="76" y="395" width="42" height="125" fill="url(#bldgLt)" rx="1"/>
    <rect x="122" y="380" width="32" height="140" fill="url(#bldgLt)" rx="1"/>
    <rect x="158" y="400" width="38" height="120" fill="url(#bldgLt)" rx="1"/>
    <rect x="200" y="385" width="45" height="135" fill="url(#bldgLt)" rx="1"/>
    <rect x="250" y="370" width="30" height="150" fill="url(#bldgLt)" rx="1"/>
    <rect x="284" y="395" width="35" height="125" fill="url(#bldgLt)" rx="1"/>
    <rect x="323" y="380" width="42" height="140" fill="url(#bldgLt)" rx="1"/>
    <rect x="370" y="400" width="28" height="120" fill="url(#bldgLt)" rx="1"/>
    <rect x="402" y="385" width="38" height="135" fill="url(#bldgLt)" rx="1"/>
    <rect x="445" y="370" width="45" height="150" fill="url(#bldgLt)" rx="1"/>
    <rect x="495" y="395" width="30" height="125" fill="url(#bldgLt)" rx="1"/>
    <rect x="530" y="380" width="35" height="140" fill="url(#bldgLt)" rx="1"/>
    <rect x="570" y="400" width="42" height="120" fill="url(#bldgLt)" rx="1"/>
    <rect x="617" y="385" width="28" height="135" fill="url(#bldgLt)" rx="1"/>
    <rect x="650" y="370" width="38" height="150" fill="url(#bldgLt)" rx="1"/>
    <rect x="693" y="395" width="45" height="125" fill="url(#bldgLt)" rx="1"/>
    <rect x="743" y="380" width="30" height="140" fill="url(#bldgLt)" rx="1"/>
    <rect x="778" y="400" width="35" height="120" fill="url(#bldgLt)" rx="1"/>
    <rect x="818" y="385" width="42" height="135" fill="url(#bldgLt)" rx="1"/>
    <rect x="865" y="370" width="28" height="150" fill="url(#bldgLt)" rx="1"/>
    <rect x="898" y="395" width="38" height="125" fill="url(#bldgLt)" rx="1"/>
    <rect x="941" y="380" width="45" height="140" fill="url(#bldgLt)" rx="1"/>
    <rect x="991" y="400" width="30" height="120" fill="url(#bldgLt)" rx="1"/>
    <rect x="1026" y="385" width="35" height="135" fill="url(#bldgLt)" rx="1"/>
    <rect x="1066" y="370" width="42" height="150" fill="url(#bldgLt)" rx="1"/>
    <rect x="1113" y="395" width="28" height="125" fill="url(#bldgLt)" rx="1"/>
    <rect x="1146" y="380" width="38" height="140" fill="url(#bldgLt)" rx="1"/>
    <rect x="1188" y="400" width="12" height="120" fill="url(#bldgLt)" rx="1"/>
  </g>

  <!-- 建筑边缘霓虹线 -->
  <g opacity="0.3">
    <line x1="5" y1="380" x2="40" y2="380" stroke="#ff3366" stroke-width="1"/>
    <line x1="76" y1="395" x2="118" y2="395" stroke="#00d4ff" stroke-width="1"/>
    <line x1="200" y1="385" x2="245" y2="385" stroke="#ff3366" stroke-width="1"/>
    <line x1="284" y1="395" x2="319" y2="395" stroke="#aa66ff" stroke-width="1"/>
    <line x1="402" y1="385" x2="440" y2="385" stroke="#ff3366" stroke-width="1"/>
    <line x1="495" y1="395" x2="525" y2="395" stroke="#33dd88" stroke-width="1"/>
    <line x1="650" y1="370" x2="688" y2="370" stroke="#ff3366" stroke-width="1"/>
    <line x1="743" y1="380" x2="773" y2="380" stroke="#aa66ff" stroke-width="1"/>
    <line x1="865" y1="370" x2="893" y2="370" stroke="#00d4ff" stroke-width="1"/>
    <line x1="1026" y1="385" x2="1061" y2="385" stroke="#ff3366" stroke-width="1"/>
    <line x1="1146" y1="380" x2="1184" y2="380" stroke="#33dd88" stroke-width="1"/>
  </g>

  <!-- 建筑窗户灯光 -->
  <g opacity="0.5">
    <rect x="15" y="390" width="3" height="3" fill="#ffee88"/>
    <rect x="25" y="410" width="3" height="3" fill="#ffee88"/>
    <rect x="55" y="385" width="3" height="3" fill="#ff8844"/>
    <rect x="90" y="410" width="3" height="3" fill="#88ddff"/>
    <rect x="130" y="395" width="3" height="3" fill="#ffee88"/>
    <rect x="165" y="415" width="3" height="3" fill="#ffee88"/>
    <rect x="210" y="400" width="3" height="3" fill="#ff8844"/>
    <rect x="255" y="388" width="3" height="3" fill="#88ddff"/>
    <rect x="295" y="410" width="3" height="3" fill="#ffee88"/>
    <rect x="330" y="395" width="3" height="3" fill="#ff8844"/>
    <rect x="375" y="415" width="3" height="3" fill="#ffee88"/>
    <rect x="410" y="400" width="3" height="3" fill="#88ddff"/>
    <rect x="455" y="388" width="3" height="3" fill="#ffee88"/>
    <rect x="500" y="410" width="3" height="3" fill="#ff8844"/>
    <rect x="540" y="395" width="3" height="3" fill="#88ddff"/>
    <rect x="580" y="415" width="3" height="3" fill="#ffee88"/>
    <rect x="625" y="400" width="3" height="3" fill="#ffee88"/>
    <rect x="660" y="388" width="3" height="3" fill="#ff8844"/>
    <rect x="700" y="410" width="3" height="3" fill="#88ddff"/>
    <rect x="750" y="395" width="3" height="3" fill="#ffee88"/>
    <rect x="785" y="415" width="3" height="3" fill="#ffee88"/>
    <rect x="828" y="400" width="3" height="3" fill="#ff8844"/>
    <rect x="873" y="388" width="3" height="3" fill="#88ddff"/>
    <rect x="908" y="410" width="3" height="3" fill="#ffee88"/>
    <rect x="950" y="395" width="3" height="3" fill="#ff8844"/>
    <rect x="998" y="415" width="3" height="3" fill="#88ddff"/>
    <rect x="1035" y="400" width="3" height="3" fill="#ffee88"/>
    <rect x="1075" y="388" width="3" height="3" fill="#ffee88"/>
    <rect x="1120" y="410" width="3" height="3" fill="#ff8844"/>
    <rect x="1155" y="395" width="3" height="3" fill="#88ddff"/>
  </g>

  <!-- ===== 街道 & 路面 ===== -->
  <rect x="0" y="510" width="1200" height="120" fill="#0a0818"/>
  <line x1="0" y1="510" x2="1200" y2="510" stroke="#ff3366" stroke-width="0.8" opacity="0.5"/>
  <line x1="0" y1="570" x2="1200" y2="570" stroke="#ff3366" stroke-width="0.3" opacity="0.2"/>
  <!-- 路面标线 -->
  <line x1="0" y1="540" x2="180" y2="540" stroke="#ffee88" stroke-width="0.5" opacity="0.15"/>
  <line x1="240" y1="540" x2="420" y2="540" stroke="#ffee88" stroke-width="0.5" opacity="0.15"/>
  <line x1="480" y1="540" x2="660" y2="540" stroke="#ffee88" stroke-width="0.5" opacity="0.15"/>
  <line x1="720" y1="540" x2="900" y2="540" stroke="#ffee88" stroke-width="0.5" opacity="0.15"/>
  <line x1="960" y1="540" x2="1140" y2="540" stroke="#ffee88" stroke-width="0.5" opacity="0.15"/>

  <!-- 路面反射 -->
  <g opacity="0.06">
    <rect x="100" y="510" width="200" height="60" fill="#ff3366" rx="10"/>
    <rect x="500" y="510" width="150" height="40" fill="#00d4ff" rx="10"/>
    <rect x="800" y="510" width="180" height="50" fill="#aa66ff" rx="10"/>
  </g>

  <!-- ===== 机器人交互场景 ===== -->

  <!-- 1. 自动驾驶汽车(左) -->
  <g transform="translate(120,520)" class="float">
    <!-- 车体 -->
    <rect x="0" y="0" width="60" height="18" rx="6" fill="#0a0a2e" stroke="#00d4ff" stroke-width="0.8"/>
    <rect x="4" y="2" width="52" height="8" rx="3" fill="#00d4ff" opacity="0.08"/>
    <!-- 车顶激光雷达 -->
    <rect x="22" y="-4" width="10" height="4" rx="2" fill="#00d4ff" opacity="0.4"/>
    <circle cx="27" cy="-2" r="2" fill="#00d4ff" opacity="0.2" class="pulse"/>
    <!-- 车灯 -->
    <rect x="0" y="4" width="3" height="4" rx="1" fill="#ffee88" opacity="0.6"/>
    <rect x="57" y="4" width="3" height="4" rx="1" fill="#ff3366" opacity="0.6"/>
    <!-- 轮子 -->
    <rect x="8" y="18" width="8" height="4" rx="2" fill="#ff3366" opacity="0.4"/>
    <rect x="44" y="18" width="8" height="4" rx="2" fill="#ff3366" opacity="0.4"/>
    <!-- 扫描光 -->
    <line x1="0" y1="10" x2="-30" y2="5" stroke="#00d4ff" stroke-width="0.5" opacity="0.15"/>
    <line x1="0" y1="10" x2="-25" y2="12" stroke="#00d4ff" stroke-width="0.5" opacity="0.15"/>
  </g>

  <!-- 2. 自动驾驶汽车(右) -->
  <g transform="translate(900,515)" class="float" style="animation-delay:-2s">
    <rect x="0" y="0" width="55" height="16" rx="5" fill="#0a0a2e" stroke="#ff3366" stroke-width="0.8"/>
    <rect x="20" y="-3" width="8" height="3" rx="1.5" fill="#ff3366" opacity="0.35"/>
    <circle cx="24" cy="-2" r="1.5" fill="#ff3366" opacity="0.15" class="pulse"/>
    <rect x="0" y="3" width="2" height="4" rx="1" fill="#ffee88" opacity="0.5"/>
    <rect x="52" y="3" width="3" height="4" rx="1" fill="#ff3366" opacity="0.5"/>
    <rect x="6" y="16" width="7" height="3" rx="1.5" fill="#00d4ff" opacity="0.35"/>
    <rect x="40" y="16" width="7" height="3" rx="1.5" fill="#00d4ff" opacity="0.35"/>
  </g>

  <!-- 3. 人形机器人(左中) - 站立 -->
  <g transform="translate(370,470)">
    <!-- 身体 -->
    <rect x="-8" y="-20" width="16" height="24" rx="4" fill="#0a0a2e" stroke="#33dd88" stroke-width="0.6" opacity="0.85"/>
    <!-- 头部 -->
    <circle cx="0" cy="-28" r="8" fill="#0a0a2e" stroke="#33dd88" stroke-width="0.6" opacity="0.85"/>
    <!-- 眼睛(发光) -->
    <circle cx="-3" cy="-29" r="1.5" fill="#33dd88" class="pulse"/>
    <circle cx="3" cy="-29" r="1.5" fill="#33dd88" class="pulse" style="animation-delay:-0.3s"/>
    <!-- 手臂 -->
    <line x1="-8" y1="-16" x2="-18" y2="-5" stroke="#33dd88" stroke-width="1.5" opacity="0.5"/>
    <line x1="8" y1="-16" x2="18" y2="-5" stroke="#33dd88" stroke-width="1.5" opacity="0.5"/>
    <!-- 腿 -->
    <line x1="-4" y1="4" x2="-6" y2="18" stroke="#33dd88" stroke-width="1.5" opacity="0.5"/>
    <line x1="4" y1="4" x2="6" y2="18" stroke="#33dd88" stroke-width="1.5" opacity="0.5"/>
    <!-- 关节光点 -->
    <circle cx="-18" cy="-5" r="1.5" fill="#33dd88" opacity="0.4"/>
    <circle cx="18" cy="-5" r="1.5" fill="#33dd88" opacity="0.4"/>
    <circle cx="-6" cy="18" r="1" fill="#33dd88" opacity="0.4"/>
    <circle cx="6" cy="18" r="1" fill="#33dd88" opacity="0.4"/>
  </g>

  <!-- 4. 人形机器人(右中) - 挥手/交互 -->
  <g transform="translate(650,475)" class="float" style="animation-delay:-3s">
    <rect x="-7" y="-18" width="14" height="22" rx="3" fill="#0a0a2e" stroke="#00d4ff" stroke-width="0.6" opacity="0.85"/>
    <circle cx="0" cy="-26" r="7" fill="#0a0a2e" stroke="#00d4ff" stroke-width="0.6" opacity="0.85"/>
    <circle cx="-2" cy="-27" r="1.2" fill="#00d4ff" class="pulse"/>
    <circle cx="3" cy="-27" r="1.2" fill="#00d4ff" class="pulse" style="animation-delay:-0.5s"/>
    <!-- 抬起的左手(交互) -->
    <line x1="-7" y1="-14" x2="-16" y2="-28" stroke="#00d4ff" stroke-width="1.2" opacity="0.5"/>
    <circle cx="-16" cy="-28" r="1.5" fill="#00d4ff" opacity="0.5"/>
    <!-- 右手 -->
    <line x1="7" y1="-14" x2="16" y2="-4" stroke="#00d4ff" stroke-width="1.2" opacity="0.5"/>
    <!-- 腿 -->
    <line x1="-3" y1="4" x2="-5" y2="16" stroke="#00d4ff" stroke-width="1.2" opacity="0.5"/>
    <line x1="3" y1="4" x2="5" y2="16" stroke="#00d4ff" stroke-width="1.2" opacity="0.5"/>
  </g>

  <!-- 5. 小型服务机器人(左前) -->
  <g transform="translate(270,500)" class="float" style="animation-delay:-1.5s">
    <rect x="-6" y="-8" width="12" height="14" rx="3" fill="#0a0a2e" stroke="#ff8844" stroke-width="0.5" opacity="0.8"/>
    <circle cx="0" cy="-13" r="5" fill="#0a0a2e" stroke="#ff8844" stroke-width="0.5" opacity="0.8"/>
    <circle cx="-1.5" cy="-14" r="1" fill="#ff8844" class="pulse"/>
    <circle cx="1.5" cy="-14" r="1" fill="#ff8844" class="pulse" style="animation-delay:-0.4s"/>
    <!-- 轮子底座 -->
    <rect x="-8" y="6" width="16" height="3" rx="1.5" fill="#ff8844" opacity="0.3"/>
    <circle cx="-5" cy="9" r="1.5" fill="#ff8844" opacity="0.3"/>
    <circle cx="5" cy="9" r="1.5" fill="#ff8844" opacity="0.3"/>
  </g>

  <!-- 6. 无人机(空中) -->
  <g transform="translate(800,380)" class="float" style="animation-delay:-4s">
    <ellipse cx="0" cy="0" rx="10" ry="4" fill="#0a0a2e" stroke="#ff3366" stroke-width="0.5" opacity="0.7"/>
    <circle cx="0" cy="3" r="3" fill="#0a0a2e" stroke="#ff3366" stroke-width="0.5" opacity="0.7"/>
    <circle cx="0" cy="3" r="1.5" fill="#ff3366" class="pulse"/>
    <!-- 旋翼 -->
    <line x1="-12" y1="0" x2="-22" y2="-2" stroke="#ff3366" stroke-width="0.5" opacity="0.3"/>
    <line x1="12" y1="0" x2="22" y2="-2" stroke="#ff3366" stroke-width="0.5" opacity="0.3"/>
    <ellipse cx="-28" cy="-3" rx="6" ry="1.5" fill="none" stroke="#ff3366" stroke-width="0.3" opacity="0.15"/>
    <ellipse cx="28" cy="-3" rx="6" ry="1.5" fill="none" stroke="#ff3366" stroke-width="0.3" opacity="0.15"/>
  </g>

  <!-- 7. 两机器人之间的数据交互连线 -->
  <g opacity="0.15">
    <path d="M388,450 Q480,430 650,448" stroke="#00d4ff" stroke-width="0.5" fill="none" stroke-dasharray="3,3"/>
    <path d="M388,450 Q480,460 650,448" stroke="#33dd88" stroke-width="0.3" fill="none" stroke-dasharray="2,4"/>
    <circle cx="520" cy="443" r="1" fill="#00d4ff" class="pulse" style="animation-delay:-1s"/>
    <circle cx="520" cy="453" r="0.8" fill="#33dd88" class="pulse" style="animation-delay:-0.5s"/>
  </g>

  <!-- ===== 金色超指数曲线 ===== -->
  <g filter="url(#glowGold)">
    <path d="M-20,560 Q100,540 220,520 Q340,480 420,410 Q470,350 510,275 Q540,220 570,175 Q600,140 640,115 Q690,90 760,75 Q860,58 1010,48 Q1080,44 1220,42"
          stroke="url(#goldCurve)" stroke-width="4.5" fill="none" stroke-linecap="round"/>
    <path d="M-20,560 Q100,540 220,520 Q340,480 420,410 Q470,350 510,275 Q540,220 570,175 Q600,140 640,115 Q690,90 760,75 Q860,58 1010,48 Q1080,44 1220,42"
          stroke="#ffd700" stroke-width="14" fill="none" opacity="0.1" stroke-linecap="round"/>
  </g>

  <!-- 拐点 -->
  <circle cx="420" cy="410" r="5" fill="#ffd700" opacity="0.9" class="pulse"/>
  <text x="408" y="398" text-anchor="end" fill="#ffd700" font-size="11" opacity="0.85" font-family="sans-serif">拐点</text>

  <!-- ===== 全息投影 · 四层价值链 ===== -->

  <!-- 标题 -->
  <g transform="translate(600,48)">
    <rect x="-200" y="-30" width="400" height="60" rx="8" fill="#050510" stroke="#00d4ff" stroke-width="0.8" opacity="0.85"/>
    <rect x="-196" y="-26" width="392" height="52" rx="6" fill="url(#hologram)" opacity="0.3"/>
    <text x="0" y="2" text-anchor="middle" fill="#00d4ff" font-size="22" font-family="sans-serif" font-weight="600" filter="url(#glowBlue)">客户代际范式理论</text>
    <text x="0" y="22" text-anchor="middle" fill="#88ddff" font-size="11" font-family="sans-serif" opacity="0.7">算力成本超指数崩塌驱动产业代际更替</text>
  </g>

  <!-- L1 -->
  <g transform="translate(340,135)">
    <rect x="-145" y="-20" width="290" height="40" rx="5" fill="#050510" stroke="#00d4ff" stroke-width="0.8" opacity="0.88"/>
    <rect x="-141" y="-16" width="282" height="32" rx="3" fill="#00d4ff" opacity="0.08"/>
    <text x="0" y="3" text-anchor="middle" fill="#00d4ff" font-size="13" font-family="sans-serif" font-weight="600" filter="url(#glowBlue)">L1 芯片层 · 爆发初期</text>
    <text x="0" y="15" text-anchor="middle" fill="#66d9ff" font-size="8" opacity="0.55">NVIDIA · AMD · 华为 · 存算一体</text>
    <rect x="-118" y="-14" width="18" height="12" rx="1" fill="none" stroke="#00d4ff" stroke-width="0.4" opacity="0.3"/>
    <line x1="-114" y1="-14" x2="-114" y2="-19" stroke="#00d4ff" stroke-width="0.3" opacity="0.25"/>
    <line x1="-108" y1="-14" x2="-108" y2="-19" stroke="#00d4ff" stroke-width="0.3" opacity="0.25"/>
    <line x1="-102" y1="-14" x2="-102" y2="-19" stroke="#00d4ff" stroke-width="0.3" opacity="0.25"/>
  </g>

  <g opacity="0.25">
    <line x1="340" y1="155" x2="340" y2="170" stroke="#00d4ff" stroke-width="0.5"/>
    <polygon points="337,167 340,173 343,167" fill="#00d4ff"/>
  </g>

  <!-- L2 -->
  <g transform="translate(340,182)">
    <rect x="-145" y="-20" width="290" height="40" rx="5" fill="#050510" stroke="#aa66ff" stroke-width="0.8" opacity="0.88"/>
    <rect x="-141" y="-16" width="282" height="32" rx="3" fill="#aa66ff" opacity="0.08"/>
    <text x="0" y="3" text-anchor="middle" fill="#cc88ff" font-size="13" font-family="sans-serif" font-weight="600">L2 模型层 · 爆发中期</text>
    <text x="0" y="15" text-anchor="middle" fill="#cc88ff" font-size="8" opacity="0.55">OpenAI · Anthropic · DeepSeek · Google</text>
    <circle cx="-120" cy="-8" r="1.8" fill="#cc88ff" opacity="0.35"/>
    <circle cx="-110" cy="-13" r="1.8" fill="#cc88ff" opacity="0.35"/>
    <circle cx="-110" cy="-3" r="1.8" fill="#cc88ff" opacity="0.35"/>
    <circle cx="-100" cy="-8" r="1.8" fill="#cc88ff" opacity="0.35"/>
    <line x1="-120" y1="-8" x2="-110" y2="-13" stroke="#cc88ff" stroke-width="0.3" opacity="0.2"/>
    <line x1="-120" y1="-8" x2="-110" y2="-3" stroke="#cc88ff" stroke-width="0.3" opacity="0.2"/>
    <line x1="-110" y1="-13" x2="-100" y2="-8" stroke="#cc88ff" stroke-width="0.3" opacity="0.2"/>
  </g>

  <g opacity="0.25">
    <line x1="340" y1="202" x2="340" y2="217" stroke="#cc88ff" stroke-width="0.5"/>
    <polygon points="337,214 340,220 343,214" fill="#cc88ff"/>
  </g>

  <!-- L3a -->
  <g transform="translate(340,229)">
    <rect x="-145" y="-20" width="290" height="40" rx="5" fill="#050510" stroke="#33dd88" stroke-width="0.8" opacity="0.88"/>
    <rect x="-141" y="-16" width="282" height="32" rx="3" fill="#33dd88" opacity="0.08"/>
    <text x="0" y="3" text-anchor="middle" fill="#33dd88" font-size="13" font-family="sans-serif" font-weight="600">L3a AIGC · 超指数爆发期</text>
    <text x="0" y="15" text-anchor="middle" fill="#33dd88" font-size="8" opacity="0.55">内容平台 · 电商 · 视频生成 · 商品图</text>
    <polygon points="-118,-13 -110,-18 -110,-8" fill="#33dd88" opacity="0.25"/>
  </g>

  <!-- L3b 侧标 -->
  <g transform="translate(650,239)" opacity="0.45">
    <line x1="-55" y1="0" x2="0" y2="0" stroke="#ff8844" stroke-width="0.5"/>
    <text x="-60" y="3" text-anchor="end" fill="#ff8844" font-size="9" font-family="sans-serif">L3b 通用AI · 稳态增长</text>
  </g>

  <g opacity="0.25">
    <line x1="340" y1="249" x2="340" y2="264" stroke="#33dd88" stroke-width="0.5"/>
    <polygon points="337,261 340,267 343,261" fill="#33dd88"/>
  </g>

  <!-- L4 -->
  <g transform="translate(340,276)">
    <rect x="-145" y="-20" width="290" height="40" rx="5" fill="#050510" stroke="#ff5544" stroke-width="0.8" opacity="0.88"/>
    <rect x="-141" y="-16" width="282" height="32" rx="3" fill="#ff5544" opacity="0.08"/>
    <text x="0" y="3" text-anchor="middle" fill="#ff7766" font-size="13" font-family="sans-serif" font-weight="600">L4 广义机器人 · 萌芽期</text>
    <text x="0" y="15" text-anchor="middle" fill="#ff7766" font-size="8" opacity="0.55">自动驾驶 · 人形机器人 · 工业 + 服务机器人</text>
    <!-- 小机器人图标 -->
    <circle cx="-120" cy="-10" r="3" fill="none" stroke="#ff5544" stroke-width="0.4" opacity="0.3"/>
    <rect x="-122" y="-7" width="4" height="3" rx="0.5" fill="#ff5544" opacity="0.2"/>
  </g>

  <!-- 数据回流 -->
  <g opacity="0.15">
    <path d="M680,320 Q920,290 1020,220 Q1070,180 1050,140" stroke="#00d4ff" stroke-width="0.6" fill="none" stroke-dasharray="5,4"/>
    <text x="900" y="295" fill="#00d4ff" font-size="9" opacity="0.6" font-family="sans-serif">数据回流 · 错位4-8年</text>
  </g>

  <!-- 底部年份 -->
  <g opacity="0.2">
    <text x="30" y="565" fill="#aaa" font-size="9" font-family="sans-serif">2026 · G4 爆发初期</text>
    <text x="1170" y="565" text-anchor="end" fill="#aaa" font-size="9" font-family="sans-serif">客户代际范式 v5.2</text>
  </g>

  <!-- 极淡公式水印 -->
  <g opacity="0.03">
    <text x="1050" y="570" fill="#ffd700" font-size="24" font-family="monospace" transform="rotate(-4,1050,570)">f(n+1)=f(n)×ΣK(n)</text>
  </g>
</svg>
